<svg width="553" height="228" viewBox="0 0 553 228" fill="none" xmlns="http://www.w3.org/2000/svg">
<path d="M481.717 100.431C482.282 102.689 482.664 104.973 482.856 107.278L482.507 107.307C482.602 108.451 482.65 109.6 482.65 110.755C482.65 111.909 482.602 113.058 482.507 114.202L482.856 114.231C482.664 116.537 482.282 118.82 481.717 121.078L481.378 120.993C480.826 123.197 480.099 125.378 479.202 127.532L479.525 127.667C478.65 129.768 477.615 131.844 476.426 133.892L476.124 133.716C474.995 135.66 473.726 137.578 472.322 139.47L472.603 139.679C471.253 141.497 469.78 143.289 468.187 145.054L467.927 144.819C466.414 146.496 464.791 148.148 463.064 149.774L463.304 150.029C461.659 151.578 459.919 153.103 458.088 154.601L457.866 154.33C456.119 155.761 454.288 157.168 452.377 158.549L452.582 158.833C450.742 160.163 448.828 161.47 446.843 162.753L446.653 162.459C444.748 163.69 442.776 164.899 440.74 166.084L440.916 166.386C438.948 167.532 436.92 168.656 434.835 169.758L434.672 169.448C432.659 170.511 430.592 171.553 428.473 172.573L428.625 172.888C426.567 173.878 424.46 174.848 422.306 175.796L422.165 175.475C420.075 176.395 417.94 177.294 415.763 178.172L415.894 178.497C413.769 179.354 411.604 180.19 409.4 181.006L409.279 180.678C407.131 181.472 404.946 182.247 402.726 183.001L402.839 183.333C400.672 184.068 398.472 184.785 396.24 185.481L396.135 185.147C393.951 185.828 391.735 186.49 389.489 187.133L389.585 187.469C387.379 188.1 385.144 188.712 382.88 189.304L382.792 188.966C380.57 189.547 378.322 190.11 376.048 190.653L376.129 190.993C373.889 191.528 371.624 192.045 369.335 192.542L369.261 192.2C367.02 192.687 364.755 193.155 362.469 193.605L362.536 193.948C360.282 194.391 358.006 194.816 355.709 195.222L355.648 194.878C353.383 195.279 351.098 195.661 348.794 196.025L348.848 196.371C346.569 196.731 344.272 197.072 341.957 197.395L341.908 197.049C339.632 197.366 337.339 197.666 335.029 197.948L335.071 198.295C332.786 198.573 330.485 198.834 328.168 199.076L328.132 198.728C325.839 198.968 323.532 199.19 321.209 199.393L321.24 199.742C318.941 199.944 316.628 200.127 314.302 200.293L314.277 199.944C311.982 200.107 309.674 200.253 307.354 200.38L307.374 200.73C305.07 200.857 302.753 200.966 300.426 201.056L300.412 200.707C298.104 200.797 295.785 200.869 293.455 200.923L293.463 201.273C291.16 201.327 288.847 201.363 286.524 201.381L286.521 201.031C285.361 201.04 284.198 201.045 283.033 201.045C281.868 201.045 280.706 201.04 279.545 201.031L279.543 201.381C277.22 201.363 274.906 201.327 272.604 201.273L272.612 200.923C270.282 200.869 267.962 200.797 265.654 200.707L265.641 201.056C263.313 200.966 260.997 200.857 258.693 200.73L258.712 200.38C256.392 200.253 254.084 200.107 251.789 199.944L251.765 200.293C249.438 200.127 247.125 199.944 244.826 199.742L244.857 199.393C242.535 199.19 240.227 198.968 237.935 198.728L237.898 199.076C235.581 198.834 233.28 198.573 230.995 198.295L231.037 197.948C228.727 197.666 226.434 197.366 224.158 197.049L224.11 197.395C221.794 197.072 219.497 196.731 217.218 196.371L217.273 196.025C214.968 195.661 212.683 195.279 210.418 194.878L210.357 195.222C208.061 194.816 205.785 194.391 203.53 193.948L203.598 193.605C201.311 193.155 199.047 192.687 196.805 192.2L196.731 192.542C194.442 192.045 192.177 191.528 189.937 190.993L190.019 190.653C187.744 190.11 185.496 189.547 183.275 188.966L183.186 189.304C180.923 188.712 178.687 188.1 176.481 187.469L176.577 187.133C174.331 186.49 172.115 185.828 169.931 185.147L169.827 185.481C167.594 184.785 165.394 184.068 163.228 183.333L163.341 183.001C161.12 182.247 158.935 181.472 156.788 180.678L156.666 181.006C154.462 180.19 152.297 179.354 150.173 178.497L150.303 178.172C148.126 177.294 145.991 176.395 143.901 175.475L143.76 175.796C141.606 174.848 139.499 173.878 137.441 172.888L137.593 172.573C135.475 171.553 133.408 170.511 131.395 169.448L131.231 169.758C129.146 168.656 127.119 167.532 125.15 166.386L125.326 166.084C123.291 164.899 121.319 163.69 119.413 162.459L119.223 162.753C117.238 161.47 115.324 160.163 113.485 158.833L113.69 158.549C111.778 157.168 109.948 155.761 108.2 154.33L107.979 154.601C106.148 153.103 104.408 151.578 102.762 150.029L103.002 149.774C101.275 148.148 99.6528 146.496 98.1392 144.819L97.8794 145.054C96.2868 143.289 94.8133 141.497 93.4636 139.678L93.7447 139.47C92.3405 137.578 91.0716 135.66 89.9429 133.716L89.6402 133.892C88.4511 131.844 87.4161 129.768 86.5411 127.667L86.8642 127.532C85.9672 125.378 85.24 123.197 84.6887 120.993L84.3492 121.078C83.7844 118.82 83.4026 116.537 83.2108 114.231L83.5596 114.202C83.4644 113.058 83.4164 111.909 83.4164 110.755C83.4164 109.6 83.4644 108.451 83.5596 107.307L83.2108 107.278C83.4026 104.973 83.7844 102.689 84.3492 100.431L84.6888 100.516C85.24 98.3121 85.9672 96.1315 86.8642 93.9771L86.5411 93.8425C87.4161 91.741 88.4511 89.6651 89.6402 87.6175L89.9429 87.7933C91.0716 85.8497 92.3405 83.931 93.7447 82.0394L93.4636 81.8308C94.8133 80.0126 96.2868 78.2201 97.8794 76.4556L98.1393 76.6901C99.6528 75.0131 101.275 73.3609 103.002 71.7352L102.762 71.4803C104.408 69.9312 106.148 68.4066 107.979 66.908L108.2 67.1788C109.948 65.7486 111.778 64.3418 113.69 62.9598L113.485 62.6762C115.324 61.346 117.238 60.0391 119.223 58.7565L119.413 59.0505C121.319 57.8195 123.291 56.6107 125.326 55.4254L125.15 55.123C127.119 53.9769 129.146 52.8528 131.231 51.7516L131.395 52.0611C133.408 50.9981 135.475 49.9563 137.593 48.9368L137.441 48.6214C139.499 47.6309 141.606 46.6614 143.76 45.7136L143.901 46.034C145.991 45.1142 148.126 44.2149 150.303 43.3369L150.173 43.0123C152.297 42.1555 154.462 41.319 156.666 40.5034L156.788 40.8317C158.935 40.0371 161.12 39.2624 163.34 38.508L163.228 38.1766C165.394 37.4409 167.594 36.7245 169.827 36.0282L169.931 36.3624C172.115 35.6811 174.331 35.0191 176.577 34.3768L176.481 34.0403C178.687 33.4093 180.923 32.7974 183.186 32.205L183.275 32.5436C185.496 31.9622 187.744 31.3997 190.019 30.8564L189.937 30.516C192.177 29.981 194.442 29.4647 196.731 28.9675L196.805 29.3095C199.047 28.8228 201.311 28.3544 203.598 27.9048L203.53 27.5614C205.785 27.1181 208.061 26.6931 210.357 26.2868L210.418 26.6314C212.683 26.2307 214.968 25.8482 217.273 25.4843L217.218 25.1386C219.497 24.7788 221.794 24.4371 224.11 24.1139L224.158 24.4606C226.434 24.1429 228.727 23.8432 231.037 23.5618L230.995 23.2143C233.28 22.9359 235.581 22.6754 237.898 22.4331L237.935 22.7812C240.227 22.5415 242.535 22.3197 244.857 22.116L244.826 21.7674C247.125 21.5657 249.438 21.382 251.765 21.2164L251.789 21.5655C254.084 21.4022 256.392 21.2565 258.712 21.1289L258.693 20.7795C260.997 20.6527 263.313 20.5437 265.641 20.4528L265.654 20.8026C267.962 20.7124 270.282 20.6401 272.612 20.5858L272.604 20.2359C274.906 20.1823 277.22 20.1463 279.543 20.1283L279.545 20.4783C280.706 20.4693 281.868 20.4647 283.033 20.4647C284.198 20.4647 285.361 20.4693 286.521 20.4783L286.524 20.1283C288.847 20.1463 291.16 20.1823 293.463 20.2359L293.455 20.5858C295.785 20.6401 298.104 20.7124 300.412 20.8026L300.426 20.4528C302.753 20.5437 305.07 20.6527 307.374 20.7795L307.355 21.1289C309.675 21.2565 311.982 21.4022 314.277 21.5655L314.302 21.2164C316.628 21.382 318.941 21.5657 321.24 21.7674L321.21 22.116C323.532 22.3197 325.839 22.5415 328.132 22.7813L328.168 22.4332C330.485 22.6754 332.786 22.9359 335.072 23.2144L335.029 23.5618C337.339 23.8432 339.632 24.1429 341.908 24.4606L341.957 24.1139C344.272 24.4371 346.57 24.7788 348.848 25.1386L348.794 25.4843C351.098 25.8483 353.383 26.2308 355.648 26.6314L355.709 26.2868C358.006 26.6931 360.282 27.1181 362.536 27.5614L362.469 27.9048C364.756 28.3544 367.02 28.8228 369.261 29.3096L369.335 28.9675C371.624 29.4647 373.889 29.981 376.129 30.516L376.048 30.8564C378.322 31.3997 380.57 31.9623 382.792 32.5436L382.88 32.205C385.144 32.7974 387.379 33.4093 389.585 34.0403L389.489 34.3768C391.735 35.0191 393.951 35.6811 396.135 36.3624L396.24 36.0282C398.472 36.7245 400.672 37.4409 402.839 38.1766L402.726 38.508C404.946 39.2624 407.131 40.0371 409.279 40.8317L409.4 40.5034C411.604 41.319 413.769 42.1556 415.894 43.0123L415.763 43.3369C417.94 44.2149 420.075 45.1142 422.165 46.034L422.306 45.7136C424.46 46.6614 426.567 47.6309 428.625 48.6214L428.473 48.9368C430.592 49.9563 432.659 50.9981 434.672 52.0611L434.835 51.7516C436.92 52.8528 438.948 53.9769 440.916 55.123L440.74 55.4254C442.776 56.6107 444.748 57.8195 446.653 59.0505L446.843 58.7565C448.828 60.0391 450.742 61.346 452.582 62.6762L452.377 62.9598C454.288 64.3418 456.119 65.7486 457.866 67.1788L458.088 66.908C459.919 68.4066 461.659 69.9312 463.304 71.4804L463.064 71.7352C464.791 73.3609 466.414 75.0132 467.927 76.6901L468.187 76.4556C469.78 78.2202 471.253 80.0126 472.603 81.8308L472.322 82.0394C473.726 83.931 474.995 85.8498 476.124 87.7933L476.426 87.6176C477.615 89.6651 478.65 91.741 479.525 93.8426L479.202 93.9771C480.099 96.1315 480.826 98.3121 481.378 100.516L481.717 100.431Z" stroke="#FF6600" stroke-width="0.7" stroke-dasharray="7 7"/>
</svg>
