<svg width="39" height="39" viewBox="0 0 39 39" fill="none" xmlns="http://www.w3.org/2000/svg">
<path d="M16.04 26.3765L27.1234 19.2515L16.04 12.1265V26.3765ZM19.9984 35.0849C17.8081 35.0849 15.7498 34.669 13.8234 33.8372C11.897 33.0065 10.2213 31.8786 8.79629 30.4536C7.37129 29.0286 6.24343 27.3529 5.41271 25.4265C4.58093 23.5002 4.16504 21.4418 4.16504 19.2515C4.16504 17.0613 4.58093 15.0029 5.41271 13.0765C6.24343 11.1502 7.37129 9.47446 8.79629 8.04946C10.2213 6.62446 11.897 5.49607 13.8234 4.6643C15.7498 3.83357 17.8081 3.41821 19.9984 3.41821C22.1887 3.41821 24.247 3.83357 26.1734 4.6643C28.0998 5.49607 29.7755 6.62446 31.2005 8.04946C32.6255 9.47446 33.7533 11.1502 34.584 13.0765C35.4158 15.0029 35.8317 17.0613 35.8317 19.2515C35.8317 21.4418 35.4158 23.5002 34.584 25.4265C33.7533 27.3529 32.6255 29.0286 31.2005 30.4536C29.7755 31.8786 28.0998 33.0065 26.1734 33.8372C24.247 34.669 22.1887 35.0849 19.9984 35.0849Z" fill="#FF6600"/>
</svg>
