<svg width="359" height="246" viewBox="0 0 359 246" fill="none" xmlns="http://www.w3.org/2000/svg">
<path fill-rule="evenodd" clip-rule="evenodd" d="M328.401 59.036C394.285 5.90792 293.882 -17.8799 140.613 75.3207C146.333 69.9345 156.258 62.8036 168.497 55.1156C160.041 54.3162 151.824 54.7076 143.317 56.7213C133.01 59.1607 123.281 63.5335 114.71 69.5778C106.14 75.6222 98.9051 83.2137 93.4392 91.8977C87.9734 100.582 84.389 110.179 82.9007 120.116C81.4124 130.053 82.0508 140.124 84.7777 149.727C87.5047 159.329 92.264 168.265 98.7706 176C104.133 182.375 113.22 189.513 121.427 194.419C149.073 183.778 182.091 166.305 218.155 140.466C203.607 156.395 154.346 189.899 118.16 205.683C67.8867 227.611 -8.90492 226.403 54.0753 167.26C22.4516 196.957 39.5612 214.21 84.6841 205.368C80.0497 201.928 76.3388 198.01 71.2926 192.011C62.5773 181.651 56.2025 169.681 52.5499 156.819C48.8974 143.957 48.0422 130.467 50.0357 117.158C52.0292 103.848 56.8304 90.9922 64.1516 79.3605C71.4727 67.7288 81.1634 57.5604 92.643 49.4643C104.123 41.3682 117.155 35.511 130.96 32.2436C144.764 28.9762 159.057 28.3657 172.982 30.4488C183.651 32.0447 193.847 36.1449 198.032 37.9754C218.3 27.048 240.385 16.7058 259.23 10.1259C317.939 -10.3733 404.652 -2.45189 328.401 59.036Z" fill="#FF6600"/>
<path fill-rule="evenodd" clip-rule="evenodd" d="M216.313 69.8984C184.552 81.8796 146.366 101.914 104.573 131.858C121.067 113.798 176.918 75.812 217.944 57.9171C274.943 33.0555 362.007 34.4251 290.602 101.48C328.419 65.967 304.768 46.1501 247.216 60.1895C249.956 63.0993 259.285 73.2616 263.78 81.3672C271.885 95.9826 273.785 108.326 274.712 122.741C275.64 137.156 273.758 151.618 269.179 165.259C264.599 178.9 257.417 191.441 248.062 202.13C238.707 212.819 227.372 221.437 214.736 227.466C202.1 233.496 188.422 236.814 174.522 237.221C160.622 237.628 146.786 235.116 133.843 229.836L126.845 226.478C112.614 232.22 98.1502 237.264 85.4425 240.575C33.0071 254.239 -41.7466 241.244 28.8152 193.218C-32.1528 234.714 53.3711 262.455 193.061 192.317C187.227 196.98 176.903 203.092 164.327 209.489L167.308 210.024C177.685 209.72 187.896 207.243 197.33 202.742C206.764 198.24 215.227 191.806 222.211 183.826C229.195 175.846 234.557 166.483 237.976 156.299C241.395 146.115 242.8 135.318 242.107 124.556C241.415 113.794 239.874 104.646 233.945 93.6674C229.309 85.0826 222.253 74.3436 216.313 69.8984Z" fill="#E2E2E2"/>
</svg>
