<svg width="400" height="246" viewBox="0 0 400 246" fill="none" xmlns="http://www.w3.org/2000/svg">
<path d="M398.717 100.123C399.282 102.381 399.664 104.664 399.856 106.97L399.507 106.999C399.602 108.143 399.65 109.292 399.65 110.447C399.65 111.601 399.602 112.75 399.507 113.894L399.856 113.923C399.664 116.229 399.282 118.512 398.717 120.77L398.378 120.685C397.826 122.889 397.099 125.07 396.202 127.224L396.525 127.359C395.65 129.46 394.615 131.536 393.426 133.584L393.124 133.408C391.995 135.351 390.726 137.27 389.322 139.162L389.603 139.37C388.253 141.189 386.78 142.981 385.187 144.746L384.927 144.511C383.414 146.188 381.791 147.84 380.064 149.466L380.304 149.721C378.659 151.27 376.919 152.795 375.088 154.293L374.866 154.022C373.119 155.453 371.288 156.859 369.377 158.241L369.582 158.525C367.742 159.855 365.828 161.162 363.843 162.445L363.653 162.151C361.748 163.382 359.776 164.59 357.74 165.776L357.916 166.078C355.948 167.224 353.92 168.348 351.835 169.45L351.672 169.14C349.659 170.203 347.592 171.245 345.473 172.264L345.625 172.58C343.567 173.57 341.46 174.54 339.306 175.488L339.165 175.167C337.075 176.087 334.94 176.986 332.763 177.864L332.894 178.189C330.769 179.046 328.604 179.882 326.4 180.698L326.279 180.369C324.131 181.164 321.946 181.939 319.726 182.693L319.839 183.025C317.672 183.76 315.472 184.477 313.24 185.173L313.135 184.839C310.951 185.52 308.735 186.182 306.489 186.824L306.585 187.161C304.379 187.792 302.144 188.404 299.88 188.996L299.792 188.658C297.57 189.239 295.322 189.801 293.048 190.345L293.129 190.685C290.889 191.22 288.624 191.736 286.335 192.234L286.261 191.892C284.02 192.378 281.755 192.847 279.469 193.296L279.536 193.64C277.282 194.083 275.006 194.508 272.709 194.914L272.648 194.57C270.383 194.97 268.098 195.353 265.794 195.717L265.848 196.063C263.569 196.422 261.272 196.764 258.957 197.087L258.908 196.741C256.632 197.058 254.339 197.358 252.029 197.639L252.071 197.987C249.786 198.265 247.485 198.526 245.168 198.768L245.132 198.42C242.839 198.66 240.532 198.882 238.209 199.085L238.24 199.434C235.941 199.635 233.628 199.819 231.302 199.985L231.277 199.636C228.982 199.799 226.674 199.945 224.354 200.072L224.374 200.422C222.07 200.548 219.753 200.657 217.426 200.748L217.412 200.399C215.104 200.489 212.785 200.561 210.455 200.615L210.463 200.965C208.16 201.019 205.847 201.055 203.524 201.073L203.521 200.723C202.361 200.732 201.198 200.736 200.033 200.736C198.868 200.736 197.706 200.732 196.545 200.723L196.543 201.073C194.22 201.055 191.906 201.019 189.604 200.965L189.612 200.615C187.282 200.561 184.962 200.489 182.654 200.399L182.641 200.748C180.313 200.657 177.997 200.548 175.693 200.422L175.712 200.072C173.392 199.945 171.084 199.799 168.789 199.636L168.765 199.985C166.438 199.819 164.125 199.635 161.826 199.434L161.857 199.085C159.535 198.882 157.227 198.66 154.935 198.42L154.898 198.768C152.581 198.526 150.28 198.265 147.995 197.987L148.037 197.639C145.727 197.358 143.434 197.058 141.158 196.741L141.11 197.087C138.794 196.764 136.497 196.422 134.218 196.063L134.273 195.717C131.968 195.353 129.683 194.97 127.418 194.57L127.357 194.914C125.061 194.508 122.785 194.083 120.53 193.64L120.598 193.296C118.311 192.847 116.047 192.378 113.805 191.892L113.731 192.234C111.442 191.737 109.177 191.22 106.937 190.685L107.019 190.345C104.744 189.801 102.496 189.239 100.275 188.658L100.186 188.996C97.9228 188.404 95.6874 187.792 93.4812 187.161L93.5774 186.824C91.3312 186.182 89.1154 185.52 86.931 184.839L86.8268 185.173C84.594 184.477 82.394 183.76 80.228 183.025L80.3405 182.693C78.12 181.939 75.9353 181.164 73.7879 180.369L73.6665 180.698C71.4622 179.882 69.2971 179.046 67.1725 178.189L67.3034 177.864C65.126 176.986 62.9913 176.087 60.9011 175.167L60.7601 175.488C58.6063 174.54 56.4995 173.57 54.4413 172.58L54.5931 172.264C52.4745 171.245 50.4078 170.203 48.3948 169.14L48.2314 169.45C46.1463 168.348 44.1185 167.224 42.1502 166.078L42.3263 165.776C40.2906 164.59 38.3188 163.382 36.4133 162.151L36.2234 162.445C34.2382 161.162 32.3244 159.855 30.4847 158.525L30.6898 158.241C28.7784 156.859 26.9476 155.453 25.2003 154.022L24.9786 154.293C23.1477 152.795 21.4077 151.27 19.7621 149.721L20.002 149.466C18.275 147.84 16.6528 146.188 15.1392 144.511L14.8794 144.746C13.2868 142.981 11.8133 141.189 10.4636 139.37L10.7447 139.162C9.34047 137.27 8.07158 135.351 6.94288 133.408L6.64022 133.584C5.45112 131.536 4.4161 129.46 3.54111 127.359L3.86423 127.224C2.96722 125.07 2.23999 122.889 1.68874 120.685L1.3492 120.77C0.784377 118.512 0.402613 116.229 0.2108 113.923L0.559595 113.894C0.464421 112.75 0.416406 111.601 0.416406 110.447C0.416406 109.292 0.464422 108.143 0.559598 106.999L0.210803 106.97C0.402618 104.664 0.784386 102.381 1.34922 100.123L1.68876 100.208C2.24001 98.004 2.96723 95.8234 3.86424 93.6689L3.54113 93.5344C4.41612 91.4329 5.45114 89.357 6.64024 87.3094L6.94291 87.4852C8.0716 85.5416 9.34049 83.6229 10.7447 81.7313L10.4636 81.5227C11.8133 79.7045 13.2868 77.912 14.8794 76.1475L15.1393 76.382C16.6528 74.705 18.275 73.0528 20.002 71.4271L19.7621 71.1722C21.4077 69.6231 23.1477 68.0985 24.9786 66.5998L25.2003 66.8707C26.9476 65.4404 28.7784 64.0337 30.6898 62.6517L30.4847 62.3681C32.3244 61.0379 34.2382 59.731 36.2234 58.4484L36.4133 58.7424C38.3188 57.5114 40.2906 56.3026 42.3263 55.1173L42.1502 54.8149C44.1185 53.6688 46.1463 52.5447 48.2314 51.4435L48.3948 51.753C50.4078 50.69 52.4745 49.6482 54.5931 48.6287L54.4413 48.3133C56.4995 47.3228 58.6063 46.3532 60.7601 45.4055L60.9011 45.7259C62.9913 44.8061 65.1259 43.9068 67.3034 43.0288L67.1725 42.7042C69.2971 41.8474 71.4622 41.0109 73.6665 40.1953L73.7879 40.5236C75.9353 39.729 78.1199 38.9543 80.3405 38.1999L80.2279 37.8685C82.3939 37.1328 84.594 36.4164 86.8267 35.7201L86.9309 36.0543C89.1153 35.373 91.3312 34.711 93.5774 34.0687L93.4811 33.7322C95.6874 33.1012 97.9228 32.4893 100.186 31.8969L100.275 32.2355C102.496 31.6541 104.744 31.0916 107.019 30.5483L106.937 30.2079C109.177 29.6729 111.442 29.1566 113.731 28.6594L113.805 29.0014C116.047 28.5147 118.311 28.0463 120.598 27.5967L120.53 27.2532C122.785 26.81 125.061 26.385 127.357 25.9787L127.418 26.3233C129.683 25.9226 131.968 25.5401 134.273 25.1762L134.218 24.8305C136.497 24.4706 138.794 24.129 141.11 23.8058L141.158 24.1524C143.434 23.8348 145.727 23.5351 148.037 23.2537L147.995 22.9062C150.28 22.6278 152.581 22.3673 154.898 22.125L154.935 22.4731C157.227 22.2334 159.535 22.0115 161.857 21.8079L161.826 21.4592C164.125 21.2576 166.438 21.0739 168.765 20.9083L168.789 21.2574C171.084 21.0941 173.392 20.9484 175.712 20.8208L175.693 20.4714C177.997 20.3446 180.313 20.2356 182.641 20.1447L182.654 20.4945C184.962 20.4043 187.282 20.332 189.612 20.2777L189.604 19.9278C191.906 19.8742 194.22 19.8382 196.543 19.8202L196.545 20.1702C197.706 20.1612 198.868 20.1566 200.033 20.1566C201.198 20.1566 202.361 20.1612 203.521 20.1702L203.524 19.8202C205.847 19.8382 208.16 19.8742 210.463 19.9278L210.455 20.2777C212.785 20.332 215.104 20.4043 217.412 20.4945L217.426 20.1447C219.753 20.2356 222.07 20.3446 224.374 20.4714L224.355 20.8208C226.675 20.9484 228.982 21.0941 231.277 21.2574L231.302 20.9083C233.628 21.0739 235.941 21.2576 238.24 21.4593L238.21 21.8079C240.532 22.0115 242.839 22.2334 245.132 22.4731L245.168 22.125C247.485 22.3673 249.786 22.6278 252.071 22.9062L252.029 23.2537C254.339 23.5351 256.632 23.8348 258.908 24.1525L258.957 23.8058C261.272 24.129 263.57 24.4707 265.848 24.8305L265.794 25.1762C268.098 25.5401 270.383 25.9226 272.648 26.3233L272.709 25.9787C275.006 26.385 277.282 26.81 279.536 27.2532L279.469 27.5967C281.755 28.0463 284.02 28.5147 286.261 29.0014L286.335 28.6594C288.624 29.1566 290.889 29.6729 293.129 30.2079L293.048 30.5483C295.322 31.0916 297.57 31.6541 299.792 32.2355L299.88 31.8969C302.144 32.4893 304.379 33.1012 306.585 33.7321L306.489 34.0687C308.735 34.711 310.951 35.373 313.135 36.0542L313.24 35.7201C315.472 36.4164 317.672 37.1327 319.838 37.8685L319.726 38.1999C321.946 38.9542 324.131 39.729 326.278 40.5236L326.4 40.1953C328.604 41.0109 330.769 41.8474 332.894 42.7042L332.763 43.0288C334.94 43.9068 337.075 44.8061 339.165 45.7259L339.306 45.4055C341.46 46.3532 343.567 47.3228 345.625 48.3133L345.473 48.6286C347.592 49.6482 349.659 50.6899 351.672 51.753L351.835 51.4435C353.92 52.5447 355.948 53.6688 357.916 54.8149L357.74 55.1173C359.776 56.3026 361.748 57.5114 363.653 58.7424L363.843 58.4484C365.828 59.731 367.742 61.0379 369.582 62.3681L369.377 62.6517C371.288 64.0337 373.119 65.4405 374.866 66.8707L375.088 66.5999C376.919 68.0985 378.659 69.6231 380.304 71.1723L380.064 71.4271C381.791 73.0528 383.414 74.7051 384.927 76.382L385.187 76.1475C386.78 77.9121 388.253 79.7045 389.603 81.5227L389.322 81.7313C390.726 83.6229 391.995 85.5417 393.124 87.4852L393.426 87.3095C394.615 89.357 395.65 91.4329 396.525 93.5345L396.202 93.669C397.099 95.8234 397.826 98.004 398.378 100.208L398.717 100.123Z" stroke="#FF6600" stroke-width="0.7" stroke-dasharray="7 7"/>
<rect x="304" y="14.3401" width="80" height="80" rx="40" fill="#A3A3A3"/>
<path fill-rule="evenodd" clip-rule="evenodd" d="M346.009 67.6444C339.357 67.9034 332.187 66.651 326.14 63.6271L327.392 61.6403C333.266 64.4047 340.005 65.3553 346.009 65.0958C346.009 65.3116 346.267 61.0352 346.656 58.7029H337.629C338.449 49.2866 341.343 40.907 345.663 33.7803H318.667V74.9009H347.045C346.397 72.4383 346.009 67.5579 346.009 67.6444Z" fill="#D0E9FB"/>
<path fill-rule="evenodd" clip-rule="evenodd" d="M348.73 64.9228C353.654 64.4475 357.973 63.1518 360.608 61.4673L362.163 63.4541C358.534 65.5711 353.826 66.9528 348.73 67.4714C348.859 70.02 349.248 72.4383 349.896 74.9009H369.333V33.7803H348.643C344.238 40.5187 341.732 48.0342 340.782 55.9818H350.069C349.291 59.0052 348.816 61.9859 348.73 64.9228ZM330.934 40.0001H333.569V46.0907H330.934V40.0001Z" fill="#00ACEC"/>
<path fill-rule="evenodd" clip-rule="evenodd" d="M352.876 40.0001H355.512V46.0907H352.876V40.0001Z" fill="black"/>
<path fill-rule="evenodd" clip-rule="evenodd" d="M348.729 64.9228C353.654 64.4475 357.973 63.1518 360.608 61.4673L362.163 63.4541C358.534 65.5711 353.826 66.9528 348.729 67.4714C348.945 72.0495 350.069 76.5849 352.314 80.9477L350.069 82.1564C345.966 75.678 345.231 66.9528 346.656 58.7029H337.629C338.752 45.8744 343.676 34.9895 350.846 26.5238L352.789 28.2083C345.793 36.3289 341.948 45.7884 340.782 55.9818H350.069C349.291 59.0052 348.816 61.9859 348.729 64.9228Z" fill="black"/>
<path fill-rule="evenodd" clip-rule="evenodd" d="M346.009 65.0959V67.6444C339.357 67.9035 332.187 66.6511 326.14 63.6272L327.392 61.6404C333.266 64.4048 340.004 65.3549 346.009 65.0959Z" fill="#00ACEC"/>
<rect x="143" y="165.692" width="80" height="80" rx="40" fill="#A3A3A3"/>
<g clip-path="url(#clip0_116_62)">
<path d="M193.765 198.098C194.332 199.332 194.964 200.536 195.527 201.772C196.609 204.151 197.43 206.663 197.772 209.255C198.113 211.846 197.964 214.522 197.155 217.006C196.24 219.811 194.502 222.306 192.374 224.348C189.855 226.764 186.623 228.627 183.136 228.764C180.863 228.854 178.601 228.204 176.589 227.145C174.898 226.255 173.354 225.069 172.123 223.608C170.891 222.147 169.977 220.407 169.553 218.544C169.032 216.249 169.268 213.813 170.057 211.597C170.621 210.011 171.458 208.535 172.054 206.961C172.705 205.242 173.068 203.405 173.931 201.781C174.712 200.309 175.885 199.051 176.507 197.505C176.879 196.581 177.041 195.589 177.281 194.623C177.521 193.656 177.857 192.683 178.511 191.932C179.3 191.028 180.486 190.537 181.678 190.4C182.869 190.262 184.076 190.448 185.246 190.715C186.177 190.927 187.097 191.191 187.997 191.511C188.765 191.784 189.526 192.102 190.19 192.575C191.095 193.219 191.784 194.126 192.334 195.092C192.883 196.057 193.303 197.089 193.767 198.098L193.765 198.098Z" fill="#020204"/>
<path d="M183.759 228.786C184.716 228.842 185.672 228.935 186.62 229.078C187.454 229.205 188.283 229.368 189.102 229.567C190.386 229.879 191.666 230.276 192.987 230.313C193.334 230.323 193.683 230.308 194.024 230.232C194.365 230.156 194.693 230.019 194.965 229.802C195.37 229.479 195.626 228.991 195.723 228.481C195.82 227.972 195.759 227.441 195.61 226.945C195.312 225.951 194.67 225.104 194.142 224.212C193.838 223.702 193.567 223.172 193.238 222.677C192.909 222.183 192.516 221.72 192.016 221.398C191.326 220.953 190.469 220.808 189.652 220.889C188.834 220.97 188.05 221.266 187.321 221.644C186.298 222.173 185.335 222.9 184.778 223.908C184.584 224.259 184.443 224.636 184.278 225.001C184.113 225.367 183.92 225.726 183.641 226.014C183.329 226.335 182.925 226.551 182.603 226.86C182.442 227.017 182.301 227.196 182.22 227.403C182.139 227.611 182.117 227.848 182.192 228.059C182.244 228.203 182.338 228.33 182.455 228.429C182.571 228.529 182.709 228.602 182.854 228.652C183.143 228.754 183.454 228.769 183.76 228.786L183.759 228.786Z" fill="#020204"/>
<path d="M180.913 228.724C180.115 228.743 179.326 228.885 178.546 229.047C177.799 229.201 177.055 229.373 176.317 229.567C175.072 229.894 173.825 230.285 172.538 230.313C172.199 230.32 171.858 230.301 171.528 230.225C171.198 230.149 170.878 230.013 170.613 229.801C170.209 229.479 169.951 228.992 169.856 228.483C169.761 227.975 169.819 227.445 169.967 226.949C170.262 225.957 170.895 225.108 171.414 224.212C171.709 223.703 171.969 223.173 172.287 222.679C172.606 222.184 172.99 221.72 173.482 221.397C174.151 220.957 174.987 220.808 175.784 220.886C176.582 220.965 177.347 221.259 178.05 221.643C179.043 222.186 179.95 222.932 180.525 223.906C180.927 224.59 181.16 225.372 181.631 226.012C181.884 226.356 182.205 226.653 182.414 227.025C182.52 227.211 182.597 227.416 182.615 227.629C182.633 227.842 182.589 228.064 182.469 228.241C182.389 228.358 182.279 228.453 182.157 228.523C182.034 228.592 181.898 228.638 181.76 228.667C181.481 228.725 181.197 228.716 180.915 228.723L180.913 228.724ZM176.455 195.499C176.343 194.15 176.368 192.793 176.319 191.441C176.27 190.14 176.151 188.84 176.194 187.539C176.239 186.216 176.461 184.876 177.05 183.687C177.639 182.498 178.595 181.492 179.762 180.863C180.859 180.271 182.124 180.019 183.371 180.032C185.063 180.051 186.759 180.562 188.129 181.554C188.988 182.176 189.711 182.977 190.28 183.872C190.767 184.635 191.144 185.468 191.381 186.343C191.868 188.136 191.752 190.024 191.847 191.878C191.936 193.634 192.218 195.387 192.122 197.143C192.101 197.526 192.06 197.915 191.89 198.257C191.724 198.59 191.443 198.858 191.12 199.043C190.796 199.228 190.433 199.333 190.065 199.39C189.329 199.503 188.577 199.429 187.835 199.497C186.76 199.597 185.734 199.996 184.666 200.161C183.395 200.358 182.098 200.219 180.811 200.167C180.296 200.147 179.779 200.14 179.267 200.076C178.756 200.012 178.246 199.888 177.791 199.645C177.512 199.496 177.252 199.301 177.043 199.062C176.834 198.823 176.674 198.54 176.595 198.231C176.475 197.769 176.538 197.283 176.54 196.806C176.542 196.369 176.491 195.935 176.453 195.5L176.455 195.499Z" fill="#020204"/>
<path d="M178.479 194.979C178.297 195.207 178.178 195.482 178.107 195.765C178.035 196.048 178.009 196.341 177.998 196.632C177.975 197.216 178.011 197.811 177.857 198.374C177.691 198.976 177.321 199.498 176.959 200.006C176.331 200.887 175.697 201.79 175.388 202.826C175.2 203.454 175.138 204.118 175.205 204.77C174.503 205.801 173.894 206.897 173.391 208.039C172.627 209.769 172.104 211.612 171.919 213.494C171.694 215.799 171.988 218.169 172.899 220.299C173.557 221.839 174.538 223.248 175.803 224.345C176.446 224.903 177.161 225.379 177.927 225.755C180.575 227.056 183.847 227.058 186.451 225.671C187.812 224.946 188.96 223.886 190.068 222.813C190.735 222.167 191.398 221.505 191.907 220.728C192.886 219.233 193.228 217.415 193.44 215.64C193.81 212.536 193.822 209.257 192.461 206.443C191.992 205.472 191.37 204.582 190.62 203.807C190.42 202.453 190.027 201.127 189.455 199.884C189.042 198.986 188.538 198.132 188.155 197.222C187.997 196.848 187.859 196.466 187.686 196.1C187.513 195.734 187.296 195.382 187.003 195.102C186.703 194.815 186.329 194.611 185.935 194.481C185.54 194.351 185.125 194.292 184.711 194.271C183.882 194.229 183.051 194.338 182.221 194.305C181.561 194.279 180.902 194.163 180.242 194.202C179.912 194.221 179.582 194.28 179.276 194.404C178.97 194.529 178.687 194.721 178.481 194.979L178.479 194.979Z" fill="#FDFDFB"/>
<g filter="url(#filter0_f_116_62)">
<path d="M178.073 198.075C178.369 198.934 178.965 199.668 179.671 200.241C179.906 200.432 180.156 200.607 180.431 200.731C180.707 200.855 181.011 200.926 181.312 200.9C181.608 200.875 181.888 200.759 182.146 200.614C182.404 200.468 182.643 200.292 182.893 200.134C183.322 199.863 183.781 199.643 184.226 199.4C184.763 199.106 185.283 198.773 185.734 198.362C185.941 198.173 186.134 197.967 186.362 197.805C186.591 197.643 186.864 197.526 187.144 197.545C187.353 197.559 187.55 197.648 187.755 197.692C187.859 197.714 187.964 197.725 188.068 197.709C188.172 197.693 188.273 197.649 188.346 197.573C188.435 197.481 188.474 197.347 188.468 197.218C188.461 197.09 188.418 196.965 188.358 196.852C188.238 196.624 188.056 196.428 187.975 196.184C187.903 195.966 187.918 195.731 187.924 195.502C187.93 195.274 187.925 195.034 187.82 194.831C187.739 194.676 187.604 194.553 187.45 194.472C187.296 194.39 187.123 194.35 186.95 194.332C186.602 194.299 186.254 194.367 185.906 194.386C185.444 194.412 184.98 194.355 184.518 194.382C183.942 194.417 183.376 194.584 182.799 194.585C182.14 194.587 181.482 194.371 180.831 194.474C180.551 194.518 180.285 194.62 180.017 194.709C179.749 194.799 179.472 194.878 179.189 194.874C178.868 194.869 178.557 194.758 178.237 194.735C178.077 194.723 177.913 194.735 177.762 194.791C177.612 194.847 177.476 194.952 177.402 195.094C177.36 195.176 177.339 195.268 177.335 195.36C177.331 195.452 177.344 195.544 177.366 195.633C177.411 195.812 177.492 195.978 177.558 196.15C177.8 196.768 177.852 197.446 178.069 198.074L178.073 198.075Z" fill="black" fill-opacity="0.26"/>
</g>
<g opacity="0.3" filter="url(#filter1_f_116_62)">
<path d="M177.246 195.625C177.822 195.981 178.339 196.418 178.773 196.916C179.175 197.379 179.518 197.903 180.043 198.245C180.414 198.487 180.86 198.623 181.313 198.665C181.844 198.713 182.382 198.635 182.894 198.496C183.368 198.367 183.827 198.187 184.248 197.948C185.048 197.493 185.717 196.827 186.598 196.528C186.791 196.462 186.991 196.416 187.177 196.335C187.363 196.255 187.537 196.134 187.626 195.964C187.713 195.8 187.708 195.611 187.736 195.431C187.765 195.238 187.832 195.052 187.869 194.86C187.905 194.669 187.91 194.464 187.82 194.288C187.746 194.142 187.61 194.027 187.455 193.954C187.299 193.881 187.124 193.847 186.949 193.839C186.6 193.823 186.255 193.906 185.907 193.935C185.446 193.974 184.981 193.919 184.518 193.932C183.943 193.948 183.375 194.068 182.8 194.093C182.143 194.122 181.488 194.026 180.831 194.005C180.547 193.996 180.261 194 179.981 194.046C179.701 194.091 179.426 194.177 179.189 194.322C178.96 194.463 178.772 194.654 178.561 194.818C178.456 194.9 178.344 194.976 178.221 195.033C178.098 195.091 177.964 195.13 177.826 195.136C177.755 195.14 177.684 195.134 177.614 195.144C177.555 195.153 177.499 195.173 177.449 195.202C177.398 195.231 177.355 195.269 177.32 195.314C177.286 195.359 177.262 195.409 177.249 195.463C177.236 195.516 177.234 195.572 177.245 195.626L177.246 195.625Z" fill="black"/>
</g>
<path d="M178.745 187.764C178.435 187.781 178.139 187.924 177.912 188.136C177.685 188.348 177.525 188.625 177.427 188.92C177.23 189.509 177.274 190.147 177.319 190.765C177.359 191.326 177.401 191.897 177.611 192.419C177.716 192.68 177.863 192.924 178.06 193.126C178.257 193.329 178.504 193.482 178.777 193.55C179.032 193.614 179.305 193.601 179.557 193.522C179.808 193.443 180.038 193.299 180.226 193.115C180.501 192.846 180.686 192.494 180.793 192.124C180.899 191.755 180.929 191.367 180.923 190.982C180.917 190.501 180.854 190.018 180.703 189.561C180.552 189.105 180.312 188.673 179.977 188.328C179.814 188.161 179.629 188.014 179.42 187.911C179.211 187.808 178.977 187.75 178.744 187.762L178.745 187.764Z" fill="url(#paint0_radial_116_62)"/>
<path d="M184.231 187.764C183.747 188.095 183.342 188.56 183.143 189.113C182.893 189.809 182.989 190.589 183.23 191.289C183.477 192.005 183.891 192.688 184.515 193.118C184.827 193.333 185.188 193.481 185.564 193.526C185.941 193.57 186.332 193.509 186.668 193.334C187.078 193.121 187.39 192.747 187.584 192.328C187.778 191.909 187.861 191.446 187.886 190.984C187.921 190.397 187.862 189.8 187.669 189.244C187.459 188.64 187.077 188.083 186.542 187.735C186.274 187.561 185.969 187.442 185.653 187.398C185.336 187.355 185.008 187.387 184.71 187.503C184.54 187.569 184.382 187.661 184.231 187.764L184.231 187.764Z" fill="url(#paint1_radial_116_62)"/>
<g opacity="0.3" filter="url(#filter2_f_116_62)">
<path d="M178.642 192.775L177.748 193.591C177.591 193.749 177.433 193.919 177.363 194.13C177.3 194.318 177.312 194.523 177.281 194.719C177.27 194.786 177.255 194.853 177.254 194.921C177.254 194.955 177.258 194.989 177.268 195.021C177.278 195.054 177.294 195.084 177.318 195.109C177.356 195.151 177.411 195.173 177.466 195.184C177.522 195.195 177.579 195.197 177.635 195.203C177.888 195.23 178.122 195.353 178.332 195.498L178.95 195.948C179.425 196.25 179.993 196.384 180.556 196.405C181.118 196.427 181.68 196.341 182.232 196.23C182.671 196.143 183.108 196.039 183.524 195.875C184.162 195.623 184.736 195.236 185.285 194.826C185.535 194.64 185.781 194.448 186.005 194.232C186.081 194.158 186.155 194.082 186.236 194.015C186.317 193.948 186.408 193.889 186.509 193.857C186.662 193.808 186.828 193.822 186.987 193.848C187.106 193.868 187.226 193.895 187.348 193.89C187.408 193.888 187.469 193.877 187.525 193.855C187.581 193.832 187.633 193.797 187.672 193.75C187.722 193.687 187.749 193.609 187.749 193.529C187.749 193.449 187.724 193.37 187.684 193.302C187.603 193.164 187.464 193.071 187.318 193.007C187.118 192.918 186.903 192.874 186.69 192.823C186.038 192.665 185.405 192.433 184.804 192.135C184.505 191.986 184.215 191.822 183.921 191.665C183.619 191.503 183.311 191.347 182.983 191.248C182.25 191.025 181.448 191.098 180.724 191.35C179.92 191.629 179.193 192.127 178.642 192.775L178.642 192.775Z" fill="black"/>
</g>
<path d="M180.202 191.854C180.509 191.508 180.72 191.087 181.015 190.73C181.163 190.552 181.333 190.39 181.534 190.275C181.735 190.16 181.968 190.094 182.199 190.114C182.455 190.136 182.696 190.264 182.883 190.44C183.071 190.616 183.211 190.84 183.322 191.071C183.429 191.294 183.513 191.531 183.667 191.724C183.83 191.93 184.06 192.071 184.267 192.233C184.371 192.314 184.47 192.401 184.552 192.504C184.634 192.607 184.698 192.726 184.725 192.855C184.75 192.987 184.739 193.124 184.692 193.25C184.647 193.375 184.569 193.489 184.473 193.581C184.281 193.767 184.018 193.867 183.753 193.904C183.224 193.979 182.689 193.821 182.155 193.836C181.614 193.851 181.086 194.042 180.545 194.022C180.275 194.013 180.001 193.947 179.779 193.792C179.667 193.715 179.572 193.616 179.501 193.5C179.431 193.385 179.388 193.252 179.384 193.116C179.379 192.988 179.409 192.859 179.461 192.74C179.513 192.622 179.585 192.514 179.667 192.414C179.83 192.214 180.03 192.047 180.201 191.855L180.202 191.854Z" fill="url(#paint2_radial_116_62)"/>
<g filter="url(#filter3_f_116_62)">
<path d="M186.232 182.279C185.785 182.594 185.98 182.987 186.172 183.381C186.364 183.776 185.75 184.914 185.744 184.963C185.737 185.011 186.952 184.386 187.283 183.979C187.674 183.5 188.662 184.629 188.609 184.457C188.609 184.149 186.678 181.964 186.232 182.279H186.232Z" fill="#7C7C7C"/>
</g>
<path d="M185.347 189.225C185.165 189.238 184.988 189.3 184.834 189.399C184.68 189.498 184.548 189.628 184.444 189.779C184.238 190.079 184.147 190.448 184.132 190.813C184.121 191.086 184.151 191.363 184.242 191.622C184.333 191.88 184.486 192.12 184.697 192.294C184.913 192.473 185.187 192.58 185.467 192.594C185.747 192.607 186.031 192.526 186.261 192.366C186.444 192.239 186.592 192.063 186.697 191.866C186.803 191.669 186.866 191.451 186.895 191.23C186.946 190.839 186.888 190.43 186.707 190.08C186.527 189.729 186.22 189.441 185.85 189.304C185.69 189.245 185.517 189.214 185.347 189.227V189.225Z" fill="#020204"/>
<g filter="url(#filter4_f_116_62)">
<path d="M185.781 190.418C185.631 190.478 185.392 190.44 185.326 190.588C185.287 190.676 185.342 190.82 185.431 190.856C185.611 190.93 185.889 190.797 185.962 190.617C185.993 190.539 185.946 190.415 185.868 190.382C185.839 190.37 185.81 190.406 185.782 190.418L185.781 190.418Z" fill="#141413"/>
</g>
<g filter="url(#filter5_f_116_62)">
<path d="M186.472 190.81C186.674 190.608 186.328 190.072 186.059 189.853C185.863 189.694 185.295 189.527 185.319 189.7C185.343 189.873 185.597 190.095 185.771 190.264C185.982 190.472 186.376 190.906 186.472 190.81Z" fill="url(#paint3_linear_116_62)"/>
</g>
<mask id="mask0_116_62" style="mask-type:luminance" maskUnits="userSpaceOnUse" x="182" y="187" width="6" height="7">
<path d="M184.231 187.764C183.788 188.134 183.325 188.565 183.143 189.113C182.915 189.802 182.859 190.665 183.23 191.289C183.913 192.434 185.386 193.699 186.668 193.334C187.517 193.092 187.731 191.854 187.886 190.984C187.989 190.408 187.99 189.732 187.669 189.243C187.04 188.287 185.854 187.521 184.71 187.503C184.528 187.5 184.37 187.647 184.231 187.764Z" fill="white"/>
</mask>
<g mask="url(#mask0_116_62)">
<path d="M182.403 189.526C182.82 189.181 183.3 188.921 183.817 188.76C184.877 188.433 186.08 188.562 187.016 189.156C187.339 189.361 187.627 189.616 187.928 189.853C188.229 190.09 188.548 190.313 188.909 190.44C189.104 190.508 189.313 190.548 189.518 190.527C189.704 190.507 189.884 190.438 190.038 190.332C190.192 190.226 190.321 190.085 190.417 189.925C190.611 189.605 190.673 189.218 190.64 188.846C190.573 188.101 190.153 187.444 189.801 186.785C189.691 186.578 189.586 186.368 189.453 186.175C189.045 185.584 188.396 185.194 187.715 184.966C187.034 184.738 186.314 184.655 185.602 184.565C185.284 184.525 184.963 184.484 184.644 184.522C184.279 184.566 183.935 184.713 183.578 184.805C183.409 184.848 183.237 184.879 183.069 184.927C182.901 184.976 182.736 185.044 182.599 185.153C182.4 185.312 182.275 185.551 182.22 185.801C182.166 186.05 182.179 186.31 182.218 186.562C182.298 187.066 182.486 187.558 182.469 188.068C182.456 188.418 182.346 188.762 182.36 189.113C182.364 189.217 182.378 189.317 182.403 189.417" fill="url(#paint4_linear_116_62)"/>
</g>
<g filter="url(#filter6_f_116_62)">
<path d="M185.912 186.33C185.829 186.435 185.754 186.548 185.694 186.673C186.068 186.754 186.425 186.907 186.744 187.119C187.361 187.529 187.83 188.128 188.158 188.795C188.235 188.71 188.305 188.618 188.365 188.517C188.035 187.823 187.557 187.195 186.918 186.771C186.611 186.568 186.27 186.414 185.912 186.331L185.912 186.33Z" fill="url(#paint5_linear_116_62)"/>
</g>
<g filter="url(#filter7_f_116_62)">
<path d="M178.71 186.67C178.668 186.67 178.627 186.673 178.585 186.675L178.503 186.68C178.749 186.702 178.993 186.769 179.215 186.868C179.518 187.004 179.785 187.198 180.02 187.418C180.456 187.826 180.78 188.33 181 188.865C180.946 188.461 180.825 188.069 180.641 187.706C180.555 187.606 180.466 187.509 180.369 187.418C180.134 187.198 179.866 187.004 179.564 186.868C179.299 186.749 179.004 186.676 178.71 186.67L178.71 186.67Z" fill="url(#paint6_linear_116_62)"/>
</g>
<path d="M177.998 190.331C177.933 190.722 177.931 191.132 178.065 191.505C178.152 191.751 178.3 191.974 178.478 192.166C178.595 192.292 178.727 192.406 178.881 192.48C179.036 192.554 179.215 192.586 179.381 192.544C179.534 192.506 179.668 192.407 179.767 192.284C179.866 192.16 179.932 192.013 179.979 191.862C180.118 191.417 180.096 190.929 179.958 190.483C179.858 190.158 179.691 189.845 179.431 189.625C179.307 189.521 179.162 189.439 179.004 189.401C178.846 189.364 178.675 189.373 178.527 189.44C178.363 189.514 178.236 189.656 178.153 189.816C178.07 189.975 178.027 190.153 177.998 190.331L177.998 190.331Z" fill="#020204"/>
<g filter="url(#filter8_f_116_62)">
<path d="M178.825 190.048C178.867 190.159 179.008 190.199 179.086 190.288C179.161 190.374 179.24 190.464 179.281 190.571C179.361 190.775 179.203 191.079 179.368 191.223C179.42 191.269 179.524 191.27 179.575 191.223C179.775 191.042 179.73 190.676 179.651 190.418C179.58 190.184 179.403 189.963 179.185 189.852C179.084 189.8 178.933 189.758 178.846 189.831C178.791 189.878 178.799 189.981 178.825 190.048Z" fill="url(#paint7_linear_116_62)"/>
</g>
<path d="M177.269 195.191C177.279 195.242 177.299 195.292 177.326 195.337C177.372 195.415 177.44 195.478 177.513 195.53C177.586 195.583 177.665 195.628 177.741 195.676C178.147 195.931 178.478 196.29 178.772 196.669C179.167 197.178 179.516 197.742 180.043 198.112C180.415 198.373 180.86 198.522 181.313 198.567C181.844 198.621 182.381 198.535 182.893 198.384C183.368 198.245 183.827 198.048 184.248 197.789C185.049 197.295 185.717 196.572 186.598 196.247C186.79 196.177 186.991 196.126 187.177 196.039C187.362 195.951 187.537 195.82 187.626 195.635C187.713 195.457 187.708 195.252 187.735 195.056C187.765 194.847 187.832 194.645 187.868 194.437C187.905 194.23 187.909 194.007 187.82 193.816C187.745 193.658 187.61 193.533 187.454 193.453C187.298 193.373 187.123 193.337 186.949 193.329C186.6 193.311 186.255 193.401 185.906 193.433C185.445 193.475 184.981 193.416 184.518 193.429C183.942 193.447 183.375 193.576 182.799 193.604C182.143 193.636 181.488 193.535 180.831 193.509C180.547 193.497 180.26 193.5 179.98 193.548C179.699 193.596 179.423 193.691 179.189 193.853C178.961 194.011 178.779 194.225 178.57 194.407C178.465 194.498 178.352 194.581 178.227 194.642C178.103 194.702 177.965 194.74 177.826 194.737C177.757 194.735 177.682 194.723 177.614 194.745C177.572 194.758 177.534 194.784 177.502 194.816C177.47 194.847 177.444 194.883 177.419 194.92C177.361 195.006 177.31 195.097 177.268 195.191L177.269 195.191Z" fill="url(#paint8_radial_116_62)"/>
<g filter="url(#filter9_f_116_62)">
<path d="M179.846 195.899C179.781 196.18 179.822 196.475 179.962 196.727C180.102 196.979 180.33 197.171 180.602 197.264C180.947 197.379 181.335 197.323 181.656 197.155C181.843 197.058 182.013 196.921 182.121 196.74C182.176 196.65 182.212 196.549 182.226 196.445C182.24 196.341 182.231 196.233 182.194 196.134C182.154 196.026 182.083 195.931 181.995 195.856C181.907 195.782 181.802 195.728 181.693 195.692C181.474 195.619 181.239 195.618 181.008 195.629C180.659 195.646 180.312 195.69 179.969 195.76" fill="#D9B30D"/>
</g>
<g filter="url(#filter10_f_116_62)">
<path d="M178.716 193.737L178.038 194.183C177.923 194.264 177.806 194.352 177.745 194.479C177.703 194.568 177.693 194.67 177.693 194.769C177.693 194.868 177.698 194.968 177.685 195.065C177.676 195.132 177.658 195.198 177.655 195.266C177.653 195.3 177.656 195.334 177.665 195.367C177.673 195.4 177.69 195.431 177.713 195.456C177.743 195.488 177.784 195.507 177.826 195.52C177.868 195.533 177.911 195.539 177.954 195.55C178.159 195.598 178.336 195.723 178.493 195.864L178.952 196.295C179.394 196.654 179.979 196.803 180.546 196.812C181.114 196.821 181.679 196.703 182.234 196.577L183.526 196.221C184.171 195.984 184.769 195.624 185.288 195.173C185.523 194.969 185.743 194.744 186.007 194.579C186.24 194.432 186.502 194.335 186.739 194.195C186.76 194.183 186.781 194.17 186.8 194.154C186.819 194.138 186.836 194.12 186.847 194.098C186.866 194.059 186.866 194.014 186.854 193.973C186.842 193.932 186.818 193.896 186.792 193.863C186.762 193.826 186.728 193.793 186.692 193.762C186.445 193.55 186.108 193.473 185.783 193.447C185.457 193.421 185.128 193.439 184.808 193.386C184.505 193.333 184.217 193.222 183.925 193.129C183.619 193.029 183.305 192.953 182.987 192.901C182.24 192.779 181.47 192.802 180.728 192.956C180.022 193.103 179.341 193.369 178.72 193.736L178.716 193.737Z" fill="#604405"/>
</g>
<path d="M178.642 192.949C178.306 193.176 178.004 193.451 177.748 193.765C177.602 193.944 177.469 194.139 177.395 194.359C177.337 194.531 177.318 194.714 177.281 194.893C177.267 194.959 177.251 195.027 177.251 195.095C177.252 195.129 177.256 195.163 177.266 195.195C177.277 195.228 177.294 195.258 177.318 195.283C177.357 195.324 177.412 195.346 177.467 195.357C177.522 195.369 177.579 195.37 177.635 195.377C177.888 195.405 178.121 195.528 178.331 195.673L178.95 196.122C179.426 196.423 179.993 196.556 180.556 196.578C181.119 196.6 181.68 196.515 182.232 196.404C182.671 196.317 183.108 196.213 183.525 196.048C184.162 195.797 184.737 195.41 185.286 195C185.535 194.814 185.781 194.622 186.005 194.406C186.081 194.332 186.155 194.256 186.236 194.189C186.318 194.122 186.408 194.063 186.509 194.031C186.662 193.982 186.828 193.996 186.987 194.022C187.107 194.042 187.227 194.069 187.348 194.064C187.408 194.061 187.469 194.051 187.525 194.028C187.582 194.006 187.634 193.971 187.672 193.924C187.722 193.861 187.749 193.783 187.749 193.703C187.749 193.623 187.725 193.544 187.685 193.475C187.604 193.338 187.464 193.245 187.318 193.18C187.119 193.092 186.903 193.048 186.691 192.997C186.039 192.839 185.405 192.607 184.804 192.308C184.506 192.16 184.215 191.996 183.922 191.838C183.619 191.677 183.312 191.521 182.983 191.422C182.25 191.199 181.448 191.272 180.725 191.524C179.921 191.803 179.193 192.3 178.642 192.949L178.642 192.949Z" fill="url(#paint9_linear_116_62)"/>
<g filter="url(#filter11_f_116_62)">
<path d="M183.794 193.111C183.755 193.061 183.699 193.026 183.638 193.008C183.577 192.99 183.511 192.991 183.449 192.999C183.324 193.021 183.211 193.086 183.107 193.16C182.809 193.365 182.546 193.618 182.317 193.897C182.013 194.266 181.763 194.692 181.679 195.163C181.665 195.242 181.655 195.323 181.665 195.403C181.675 195.483 181.706 195.562 181.762 195.619C181.812 195.669 181.88 195.7 181.95 195.71C182.02 195.72 182.092 195.711 182.159 195.688C182.293 195.643 182.404 195.549 182.51 195.455C183.09 194.935 183.615 194.311 183.825 193.561C183.846 193.486 183.864 193.408 183.864 193.33C183.863 193.252 183.843 193.172 183.794 193.111Z" fill="#F6DA4A"/>
</g>
<g opacity="0.8" filter="url(#filter12_f_116_62)">
<path d="M182.404 192.035C182.444 192.164 182.652 192.143 182.773 192.205C182.878 192.259 182.963 192.378 183.082 192.382C183.195 192.385 183.371 192.342 183.386 192.23C183.406 192.082 183.189 191.987 183.05 191.933C182.87 191.863 182.64 191.827 182.472 191.921C182.433 191.942 182.391 191.993 182.404 192.035L182.404 192.035Z" fill="url(#paint10_radial_116_62)"/>
</g>
<g opacity="0.8" filter="url(#filter13_f_116_62)">
<path d="M180.415 191.96C180.261 191.91 180.005 192.182 180.088 192.322C180.111 192.36 180.181 192.409 180.229 192.383C180.3 192.344 180.358 192.204 180.435 192.149C180.487 192.112 180.475 191.98 180.415 191.96L180.415 191.96Z" fill="url(#paint11_radial_116_62)"/>
</g>
<g filter="url(#filter14_f_116_62)">
<path d="M187.231 194.613C187.506 194.613 187.759 194.338 187.797 193.998C187.835 193.658 187.643 193.383 187.369 193.383C187.094 193.383 186.841 193.658 186.803 193.998C186.764 194.338 186.956 194.613 187.231 194.613Z" fill="url(#paint12_linear_116_62)"/>
</g>
<mask id="mask1_116_62" style="mask-type:luminance" maskUnits="userSpaceOnUse" x="177" y="187" width="4" height="7">
<path d="M178.745 187.764C178.085 188.598 177.262 189.799 177.319 190.766C177.376 191.734 177.991 193.192 178.777 193.551C179.563 193.911 179.778 193.554 180.227 193.116C180.675 192.679 180.899 191.837 180.924 190.984C180.949 190.131 180.396 188.909 179.977 188.33C179.559 187.75 179.405 186.93 178.745 187.764H178.745Z" fill="white"/>
</mask>
<g mask="url(#mask1_116_62)">
<path d="M178.077 189.011C178.544 188.732 179.113 188.668 179.655 188.719C180.197 188.77 180.721 188.929 181.246 189.073C181.631 189.177 182.021 189.274 182.382 189.445C182.742 189.615 183.078 189.865 183.277 190.211L183.371 190.379C183.404 190.433 183.444 190.485 183.495 190.523C183.546 190.561 183.61 190.586 183.673 190.583C183.705 190.581 183.737 190.572 183.765 190.556C183.792 190.54 183.816 190.516 183.83 190.488C183.848 190.455 183.853 190.418 183.851 190.381C183.848 190.344 183.841 190.308 183.83 190.272C183.699 189.793 183.389 189.387 183.153 188.949L182.753 188.15C182.263 187.251 181.458 186.545 180.543 186.087C179.628 185.629 178.606 185.409 177.584 185.349C176.401 185.28 175.214 185.421 174.046 185.626C173.539 185.715 173.026 185.82 172.577 186.072C172.353 186.198 172.148 186.361 171.988 186.561C171.827 186.762 171.713 187.002 171.676 187.257C171.641 187.502 171.678 187.755 171.763 187.987C171.849 188.22 171.982 188.433 172.139 188.625C172.452 189.009 172.852 189.309 173.222 189.639C173.591 189.969 173.935 190.334 174.347 190.608C174.553 190.744 174.777 190.858 175.016 190.924C175.254 190.991 175.508 191.009 175.751 190.96C176.002 190.908 176.235 190.785 176.439 190.628C176.643 190.472 176.82 190.284 176.987 190.089C177.322 189.7 177.635 189.274 178.076 189.011L178.077 189.011Z" fill="url(#paint13_radial_116_62)"/>
</g>
<path d="M194.562 205.707C195.621 206.559 196.293 207.846 196.501 209.189C196.663 210.237 196.558 211.312 196.322 212.345C196.086 213.379 195.721 214.378 195.359 215.374C195.214 215.771 195.07 216.172 195.012 216.591C194.955 217.01 194.991 217.453 195.193 217.825C195.425 218.251 195.857 218.544 196.321 218.682C196.78 218.818 197.275 218.815 197.74 218.699C198.204 218.584 198.637 218.358 199.015 218.064C199.975 217.319 200.555 216.158 200.779 214.964C201.003 213.769 200.9 212.536 200.692 211.338C200.407 209.705 199.929 208.109 199.32 206.567C198.872 205.433 198.348 204.319 197.616 203.344C196.899 202.39 195.996 201.587 195.294 200.622C194.806 199.952 194.415 199.204 193.831 198.616C193.539 198.322 193.197 198.071 192.811 197.921C192.425 197.771 191.991 197.727 191.592 197.839C191.066 197.987 190.634 198.401 190.408 198.898C190.181 199.394 190.139 199.963 190.228 200.503C190.343 201.198 190.661 201.843 191.019 202.45C191.424 203.136 191.893 203.795 192.505 204.305C193.143 204.836 193.915 205.187 194.562 205.708L194.562 205.707Z" fill="#020204"/>
<mask id="mask2_116_62" style="mask-type:luminance" maskUnits="userSpaceOnUse" x="190" y="197" width="11" height="22">
<path d="M194.562 205.707C195.628 206.564 196.294 207.851 196.501 209.189C196.824 211.283 196.085 213.38 195.359 215.374C195.214 215.772 195.068 216.175 195.011 216.592C194.953 217.008 194.989 217.453 195.193 217.825C195.424 218.247 195.854 218.543 196.321 218.682C196.78 218.818 197.277 218.814 197.742 218.698C198.206 218.582 198.638 218.355 199.015 218.064C199.986 217.316 200.567 216.152 200.787 214.958C201.007 213.765 200.901 212.534 200.69 211.338C200.402 209.707 199.926 208.111 199.318 206.568C198.872 205.435 198.349 204.321 197.614 203.344C196.897 202.392 195.99 201.586 195.292 200.623C194.808 199.954 194.424 199.207 193.84 198.62C193.549 198.325 193.206 198.074 192.818 197.923C192.429 197.773 191.991 197.728 191.589 197.839C191.323 197.914 191.077 198.055 190.874 198.24C190.671 198.425 190.51 198.653 190.396 198.902C190.17 199.398 190.135 199.966 190.225 200.503C190.342 201.196 190.659 201.842 191.017 202.45C191.42 203.135 191.888 203.794 192.503 204.305C193.141 204.835 193.913 205.188 194.56 205.708" fill="white"/>
</mask>
<g mask="url(#mask2_116_62)">
<g filter="url(#filter15_f_116_62)">
<path d="M192.069 204.066L192.335 204.305C192.985 204.837 193.331 205.434 193.99 205.955C195.068 206.807 196.162 208.277 196.374 209.62C196.539 210.668 196.321 211.237 196.054 212.473C195.787 213.708 195.031 215.458 194.623 216.649C194.46 217.124 194.953 216.928 194.888 217.429C194.856 217.675 194.854 217.923 194.882 218.17L194.894 218.027C194.973 217.344 195.182 216.687 195.41 216.043C195.849 214.804 196.352 213.589 196.699 212.317C197.046 211.045 197.007 210.13 196.826 209.037C196.599 207.663 195.799 206.394 194.667 205.556C193.866 204.964 192.922 204.584 192.07 204.066H192.069Z" fill="#838384"/>
</g>
</g>
<g opacity="0.25" filter="url(#filter16_f_116_62)">
<path d="M175.557 203.295C175.734 203.561 175.447 204.475 179.568 203.89C179.568 203.89 178.845 203.969 178.131 204.134C177.022 204.506 176.056 204.92 175.31 205.47C174.572 206.014 174.031 206.723 173.353 207.332C173.353 207.332 174.451 205.327 174.724 204.723C174.998 204.12 174.678 204.149 174.895 203.259C175.112 202.369 175.641 201.517 175.641 201.517C175.641 201.517 175.209 202.772 175.557 203.295V203.295Z" fill="url(#paint14_radial_116_62)"/>
</g>
<g opacity="0.42" filter="url(#filter17_f_116_62)">
<path d="M188.809 203.056C187.969 203.641 187.477 203.572 186.458 203.686C185.439 203.801 182.681 203.759 182.681 203.759C182.681 203.759 183.08 203.752 183.965 203.917C184.85 204.082 186.655 204.239 187.671 204.626C188.688 205.013 189.058 205.123 189.676 205.514C190.555 206.07 191.201 206.941 192.041 207.55C192.041 207.55 192.082 206.741 191.742 206.138C191.403 205.534 190.489 204.583 190.222 203.694C189.956 202.805 189.827 201.06 189.827 201.06C189.827 201.06 189.649 202.471 188.809 203.056L188.809 203.056Z" fill="url(#paint15_radial_116_62)"/>
</g>
<g opacity="0.2" filter="url(#filter18_f_116_62)">
<path d="M180.91 201.807L180.789 202.563C180.764 202.686 180.737 202.81 180.691 202.927C180.645 203.044 180.579 203.155 180.486 203.24C180.404 203.314 180.304 203.364 180.204 203.41C179.813 203.59 179.394 203.708 178.967 203.762L179.478 203.809C179.585 203.82 179.692 203.833 179.796 203.86C179.901 203.887 180.003 203.93 180.09 203.991C180.185 204.061 180.26 204.156 180.316 204.261C180.427 204.468 180.464 204.707 180.485 204.939C180.511 205.239 180.513 205.542 180.491 205.842C180.511 205.641 180.553 205.442 180.616 205.25C180.73 204.905 180.913 204.58 181.159 204.313C181.257 204.207 181.365 204.109 181.483 204.026C181.85 203.77 182.299 203.661 182.743 203.719C182.293 203.738 181.851 203.6 181.49 203.331C181.309 203.194 181.151 203.024 181.041 202.825C180.871 202.514 180.824 202.149 180.911 201.805L180.91 201.807Z" fill="url(#paint16_radial_116_62)"/>
</g>
<g opacity="0.1" filter="url(#filter19_f_116_62)">
<path d="M179.836 207.732C179.622 208.547 179.475 209.378 179.396 210.217C179.286 211.402 179.312 212.596 179.248 213.786C179.196 214.795 179.076 215.815 179.251 216.81C179.335 217.285 179.485 217.747 179.696 218.181C179.729 218.015 179.754 217.848 179.769 217.68C179.844 216.873 179.708 216.064 179.662 215.255C179.581 213.837 179.778 212.417 179.858 211.001C179.919 209.912 179.912 208.82 179.836 207.732L179.836 207.732Z" fill="black"/>
</g>
<g filter="url(#filter20_f_116_62)">
<path d="M189.616 195.51C189.24 195.852 189.793 196.367 190.055 196.972C190.218 197.348 190.669 197.878 191.105 197.794C191.433 197.73 191.636 197.257 191.605 196.925C191.546 196.283 191.004 196.132 190.61 195.912C190.299 195.737 189.88 195.269 189.616 195.51L189.616 195.51Z" fill="#838384"/>
</g>
<g opacity="0.2" filter="url(#filter21_f_116_62)">
<path d="M201.69 223.58C201.608 223.852 201.484 224.111 201.324 224.348C200.97 224.872 200.456 225.267 199.943 225.631C199.067 226.251 198.155 226.821 197.34 227.528C196.794 228.001 196.296 228.531 195.834 229.088C195.44 229.565 195.069 230.067 194.619 230.491C194.165 230.919 193.63 231.265 193.055 231.453C192.354 231.683 191.614 231.672 190.94 231.499C190.467 231.378 190.006 231.167 189.713 230.786C189.419 230.403 189.324 229.889 189.29 229.384C189.23 228.491 189.336 227.579 189.434 226.673C189.514 225.92 189.589 225.167 189.619 224.415C189.673 223.048 189.584 221.694 189.399 220.364C189.368 220.141 189.334 219.917 189.353 219.688C189.372 219.458 189.449 219.22 189.61 219.043C189.759 218.879 189.966 218.783 190.173 218.735C190.38 218.687 190.589 218.683 190.797 218.679C191.287 218.666 191.78 218.637 192.262 218.68C192.566 218.707 192.865 218.763 193.169 218.792C193.676 218.841 194.202 218.815 194.711 218.666C195.258 218.506 195.781 218.205 196.337 218.122C196.566 218.088 196.795 218.092 197.017 218.123C197.243 218.155 197.468 218.217 197.642 218.355C197.775 218.461 197.872 218.605 197.947 218.759C198.06 218.988 198.13 219.241 198.169 219.5C198.204 219.73 198.217 219.967 198.276 220.189C198.373 220.554 198.594 220.865 198.86 221.118C199.126 221.372 199.436 221.571 199.746 221.768C200.056 221.965 200.366 222.159 200.696 222.321C200.851 222.397 201.011 222.466 201.159 222.553C201.307 222.641 201.445 222.748 201.543 222.89C201.676 223.082 201.73 223.334 201.69 223.582" fill="url(#paint17_linear_116_62)"/>
</g>
<mask id="mask3_116_62" style="mask-type:luminance" maskUnits="userSpaceOnUse" x="190" y="216" width="16" height="16">
<path d="M205.163 224.232C205.321 224.51 204.89 224.822 204.673 225.057C204.195 225.574 203.55 225.91 202.95 226.279C201.921 226.911 200.754 227.306 199.744 227.97C199.068 228.414 198.469 228.966 197.854 229.491C197.328 229.941 196.9 230.514 196.316 230.887C195.733 231.26 195.09 231.61 194.404 231.696C193.571 231.801 192.685 231.652 191.914 231.32C191.376 231.088 190.842 230.731 190.528 230.235C190.213 229.737 190.17 229.097 190.14 228.508C190.086 227.453 190.377 226.409 190.519 225.362C190.637 224.492 190.841 223.632 190.912 222.756C191.041 221.164 190.776 219.552 190.968 217.967C191.03 217.456 190.937 216.808 191.318 216.462C191.673 216.141 192.263 216.267 192.742 216.277C193.324 216.289 193.896 216.443 194.463 216.576C194.821 216.66 195.159 216.821 195.52 216.891C196.119 217.006 196.733 217.077 197.342 217.057C198.001 217.035 198.637 216.744 199.296 216.75C199.566 216.752 199.84 216.799 200.094 216.889C200.352 216.98 200.614 217.099 200.812 217.288C200.962 217.433 201.061 217.629 201.139 217.823C201.256 218.112 201.295 218.428 201.342 218.736C201.384 219.01 201.315 219.306 201.414 219.565C201.733 220.4 202.385 221.084 203.02 221.713C203.323 222.05 203.721 222.329 204.093 222.554C204.488 222.793 204.854 222.98 205.044 223.392C205.159 223.651 204.95 224.047 205.163 224.232L205.163 224.232Z" fill="white"/>
</mask>
<g mask="url(#mask3_116_62)">
<path d="M205.163 224.232C205.046 224.531 204.88 224.811 204.673 225.057C204.216 225.599 203.582 225.957 202.95 226.279C201.873 226.828 200.757 227.309 199.744 227.97C199.066 228.412 198.439 228.932 197.854 229.492C197.353 229.97 196.878 230.481 196.316 230.887C195.75 231.296 195.095 231.593 194.404 231.697C193.563 231.823 192.694 231.659 191.914 231.32C191.368 231.082 190.843 230.741 190.528 230.235C190.213 229.728 190.141 229.106 190.14 228.508C190.138 227.45 190.334 226.402 190.519 225.362C190.672 224.497 190.818 223.63 190.912 222.756C191.083 221.167 191.082 219.561 190.968 217.967C190.951 217.7 190.927 217.43 190.967 217.165C191.007 216.901 191.115 216.637 191.318 216.462C191.506 216.301 191.757 216.23 192.004 216.216C192.251 216.203 192.497 216.242 192.742 216.277C193.319 216.362 193.9 216.428 194.463 216.576C194.819 216.67 195.165 216.796 195.52 216.891C196.113 217.051 196.733 217.128 197.342 217.057C197.998 216.98 198.635 216.734 199.296 216.75C199.567 216.756 199.835 216.808 200.094 216.889C200.358 216.972 200.618 217.091 200.812 217.289C200.959 217.438 201.062 217.627 201.139 217.823C201.254 218.114 201.316 218.425 201.342 218.737C201.366 219.013 201.362 219.293 201.414 219.565C201.5 220.013 201.736 220.422 202.028 220.772C202.321 221.123 202.672 221.42 203.02 221.714C203.368 222.006 203.718 222.298 204.093 222.554C204.269 222.674 204.451 222.787 204.618 222.92C204.786 223.052 204.939 223.206 205.044 223.392C205.186 223.645 205.229 223.951 205.163 224.232L205.163 224.232Z" fill="url(#paint18_linear_116_62)"/>
</g>
<mask id="mask4_116_62" style="mask-type:luminance" maskUnits="userSpaceOnUse" x="190" y="216" width="16" height="16">
<path d="M205.163 224.232C205.321 224.51 204.89 224.822 204.673 225.057C204.195 225.574 203.55 225.91 202.95 226.279C201.921 226.911 200.754 227.306 199.744 227.97C199.068 228.414 198.469 228.966 197.854 229.491C197.328 229.941 196.9 230.514 196.316 230.887C195.733 231.26 195.09 231.61 194.404 231.696C193.571 231.801 192.685 231.652 191.914 231.32C191.376 231.088 190.842 230.731 190.528 230.235C190.213 229.737 190.17 229.097 190.14 228.508C190.086 227.453 190.377 226.409 190.519 225.362C190.637 224.492 190.841 223.632 190.912 222.756C191.041 221.164 190.776 219.552 190.968 217.967C191.03 217.456 190.937 216.808 191.318 216.462C191.673 216.141 192.263 216.267 192.742 216.277C193.324 216.289 193.896 216.443 194.463 216.576C194.821 216.66 195.159 216.821 195.52 216.891C196.119 217.006 196.733 217.077 197.342 217.057C198.001 217.035 198.637 216.744 199.296 216.75C199.566 216.752 199.84 216.799 200.094 216.889C200.352 216.98 200.614 217.099 200.812 217.288C200.962 217.433 201.061 217.629 201.139 217.823C201.256 218.112 201.295 218.428 201.342 218.736C201.384 219.01 201.315 219.306 201.414 219.565C201.733 220.4 202.385 221.084 203.02 221.713C203.323 222.05 203.721 222.329 204.093 222.554C204.488 222.793 204.854 222.98 205.044 223.392C205.159 223.651 204.95 224.047 205.163 224.232L205.163 224.232Z" fill="white"/>
</mask>
<g mask="url(#mask4_116_62)">
<g filter="url(#filter22_f_116_62)">
<path d="M204.621 223.683C204.513 223.953 204.362 224.204 204.173 224.425C203.755 224.915 203.176 225.235 202.6 225.523C201.616 226.016 200.598 226.449 199.672 227.043C199.054 227.441 198.482 227.908 197.946 228.412C197.488 228.842 197.054 229.302 196.542 229.666C196.023 230.035 195.425 230.301 194.795 230.394C194.027 230.507 193.235 230.36 192.522 230.055C192.025 229.842 191.544 229.538 191.256 229.08C190.97 228.625 190.903 228.066 190.901 227.527C190.899 226.576 191.078 225.635 191.248 224.699C191.388 223.921 191.522 223.142 191.607 222.356C191.762 220.927 191.754 219.484 191.658 218.05C191.641 217.81 191.623 217.568 191.66 217.33C191.697 217.092 191.795 216.855 191.978 216.698C192.149 216.551 192.378 216.486 192.604 216.474C192.83 216.462 193.054 216.499 193.278 216.532C193.804 216.609 194.335 216.667 194.85 216.8C195.174 216.884 195.491 216.997 195.815 217.084C196.356 217.228 196.922 217.297 197.479 217.233C198.077 217.163 198.66 216.942 199.263 216.956C199.51 216.962 199.755 217.009 199.992 217.082C200.233 217.156 200.471 217.262 200.647 217.441C200.781 217.576 200.873 217.746 200.946 217.921C201.055 218.182 201.126 218.46 201.132 218.743C201.138 219.038 201.073 219.334 201.113 219.626C201.146 219.863 201.246 220.087 201.374 220.289C201.503 220.491 201.659 220.674 201.814 220.856C202.112 221.21 202.412 221.569 202.787 221.841C203.214 222.149 203.72 222.33 204.161 222.618C204.293 222.704 204.42 222.801 204.512 222.928C204.59 223.036 204.64 223.161 204.659 223.292C204.678 223.424 204.665 223.558 204.621 223.683H204.621Z" fill="#CD8907"/>
</g>
</g>
<mask id="mask5_116_62" style="mask-type:luminance" maskUnits="userSpaceOnUse" x="190" y="216" width="16" height="16">
<path d="M205.163 224.232C205.321 224.51 204.89 224.822 204.673 225.057C204.195 225.574 203.55 225.91 202.95 226.279C201.92 226.911 200.753 227.308 199.744 227.97C199.068 228.414 198.468 228.966 197.853 229.491C197.327 229.941 196.899 230.515 196.316 230.887C195.732 231.259 195.09 231.61 194.403 231.696C193.57 231.801 192.684 231.652 191.916 231.32C191.377 231.088 190.842 230.731 190.53 230.236C190.214 229.737 190.171 229.098 190.141 228.508C190.088 227.453 190.378 226.409 190.52 225.362C190.639 224.492 190.843 223.631 190.914 222.756C191.043 221.165 190.778 219.552 190.97 217.967C191.029 217.456 190.938 216.808 191.32 216.462C191.674 216.141 192.265 216.269 192.743 216.277C193.326 216.29 193.898 216.443 194.465 216.576C194.823 216.66 195.161 216.822 195.522 216.892C196.118 217.007 196.734 217.077 197.344 217.057C198.002 217.036 198.638 216.744 199.297 216.75C199.567 216.752 199.841 216.799 200.096 216.889C200.354 216.981 200.616 217.1 200.813 217.289C200.964 217.433 201.062 217.629 201.14 217.825C201.257 218.115 201.296 218.43 201.343 218.739C201.385 219.013 201.316 219.308 201.415 219.567C201.734 220.403 202.386 221.086 203.021 221.716C203.324 222.052 203.722 222.331 204.094 222.556C204.489 222.795 204.854 222.982 205.045 223.394C205.16 223.653 204.951 224.049 205.164 224.234L205.163 224.232Z" fill="white"/>
</mask>
<g mask="url(#mask5_116_62)">
<g filter="url(#filter23_f_116_62)">
<path d="M204.559 223.379C204.44 223.651 204.284 223.903 204.1 224.128C203.671 224.649 203.093 225.007 202.484 225.237C201.481 225.616 200.386 225.667 199.401 226.099C198.801 226.362 198.261 226.758 197.714 227.132C197.272 227.435 196.82 227.727 196.335 227.938C195.787 228.177 195.204 228.311 194.619 228.406C194.247 228.466 193.87 228.51 193.494 228.489C193.119 228.468 192.742 228.38 192.41 228.188C192.159 228.043 191.933 227.834 191.798 227.563C191.649 227.261 191.623 226.907 191.627 226.565C191.636 225.654 191.831 224.753 191.825 223.843C191.82 223.05 191.663 222.267 191.618 221.476C191.531 219.954 191.857 218.406 191.57 216.913C191.524 216.674 191.462 216.435 191.465 216.191C191.467 216.069 191.485 215.947 191.528 215.834C191.57 215.721 191.64 215.618 191.732 215.547C191.809 215.487 191.901 215.45 191.995 215.434C192.089 215.417 192.185 215.42 192.28 215.435C192.468 215.465 192.648 215.539 192.832 215.593C193.357 215.75 193.913 215.746 194.447 215.865C194.782 215.939 195.106 216.06 195.438 216.151C195.995 216.301 196.576 216.368 197.147 216.301C197.762 216.229 198.362 216.006 198.98 216.022C199.234 216.028 199.485 216.076 199.729 216.149C199.974 216.222 200.218 216.324 200.403 216.511C200.536 216.646 200.631 216.818 200.709 216.996C200.823 217.256 200.902 217.539 200.9 217.826C200.899 217.975 200.876 218.123 200.863 218.272C200.849 218.42 200.845 218.573 200.881 218.717C200.916 218.862 200.991 218.993 201.076 219.112C201.162 219.23 201.258 219.339 201.346 219.455C201.593 219.781 201.77 220.16 201.963 220.526C202.155 220.892 202.371 221.254 202.675 221.517C203.089 221.875 203.625 222.019 204.086 222.302C204.222 222.385 204.352 222.482 204.447 222.615C204.523 222.722 204.574 222.848 204.593 222.981C204.613 223.114 204.601 223.251 204.559 223.378L204.559 223.379Z" fill="#F5C021"/>
</g>
</g>
<g filter="url(#filter24_f_116_62)">
<path d="M191.465 217.056C192.035 216.902 192.521 217.334 192.934 217.66C193.202 217.888 193.588 217.831 193.916 217.842C194.459 217.822 194.999 217.933 195.543 217.865C196.612 217.775 197.661 217.512 198.735 217.465C199.249 217.433 199.825 217.403 200.268 217.703C200.448 217.827 200.712 218.354 200.889 218.156C200.816 217.603 200.406 217.067 199.855 216.92C199.424 216.852 198.985 216.97 198.551 216.932C197.259 216.901 195.977 216.662 194.681 216.73C193.78 216.738 192.88 216.696 191.981 216.661C191.627 216.589 191.503 216.903 191.311 217.023" fill="url(#paint19_linear_116_62)"/>
</g>
<g opacity="0.75" filter="url(#filter25_f_116_62)">
<path d="M194.021 206.538C194.228 206.506 195.504 207.591 195.33 207.996C195.155 208.4 194.827 208.156 194.593 208.158C194.359 208.161 193.717 208.452 193.61 208.269C193.503 208.085 193.894 207.656 194.098 207.297C194.263 207.009 193.815 206.572 194.022 206.54L194.021 206.538Z" fill="#7C7C7C"/>
</g>
<g opacity="0.25" filter="url(#filter26_f_116_62)">
<path d="M176.02 199.712C175.999 199.462 175.642 199.424 175.483 199.549C175.349 199.654 175.223 200.014 175.339 200.155C175.527 200.383 176.048 200.055 176.02 199.712L176.02 199.712Z" fill="#7C7C7C"/>
</g>
<g opacity="0.35" filter="url(#filter27_f_116_62)">
<path d="M199.154 217.925C199.056 217.733 198.878 217.589 198.679 217.506C198.48 217.423 198.262 217.397 198.046 217.399C197.615 217.402 197.187 217.514 196.758 217.477C196.396 217.446 196.052 217.309 195.696 217.223C195.331 217.136 194.944 217.101 194.582 217.198C194.194 217.304 193.852 217.563 193.638 217.902C193.45 218.202 193.36 218.556 193.332 218.908C193.304 219.261 193.334 219.616 193.37 219.969C193.396 220.223 193.424 220.479 193.486 220.727C193.548 220.976 193.643 221.219 193.793 221.426C194.009 221.725 194.33 221.938 194.676 222.066C195.247 222.275 195.876 222.264 196.44 222.035C197.425 221.607 198.258 220.84 198.767 219.894C198.949 219.555 199.09 219.194 199.181 218.821C199.218 218.673 199.246 218.521 199.247 218.369C199.249 218.216 199.222 218.06 199.152 217.925H199.154Z" fill="url(#paint20_radial_116_62)"/>
</g>
<g opacity="0.35" filter="url(#filter28_f_116_62)">
<path d="M199.154 217.724C199.056 217.585 198.878 217.481 198.679 217.421C198.48 217.361 198.262 217.342 198.046 217.343C197.615 217.346 197.187 217.427 196.758 217.4C196.396 217.377 196.052 217.279 195.696 217.216C195.331 217.153 194.944 217.128 194.582 217.198C194.194 217.275 193.852 217.462 193.638 217.707C193.45 217.924 193.36 218.18 193.332 218.435C193.304 218.69 193.334 218.946 193.37 219.201C193.396 219.385 193.424 219.57 193.486 219.75C193.548 219.93 193.643 220.105 193.793 220.255C194.009 220.471 194.33 220.625 194.676 220.717C195.247 220.868 195.876 220.86 196.44 220.695C197.425 220.386 198.258 219.831 198.767 219.147C198.949 218.902 199.09 218.641 199.181 218.372C199.218 218.264 199.246 218.155 199.247 218.044C199.249 217.934 199.222 217.822 199.152 217.724H199.154Z" fill="url(#paint21_radial_116_62)"/>
</g>
<path d="M199.973 216.13C199.902 215.938 199.778 215.767 199.626 215.63C199.475 215.493 199.296 215.388 199.107 215.308C198.73 215.148 198.32 215.089 197.918 215.013L196.782 214.79C196.387 214.723 195.978 214.68 195.587 214.769C195.245 214.846 194.928 215.023 194.669 215.26C194.41 215.496 194.208 215.791 194.063 216.112C193.806 216.675 193.726 217.307 193.775 217.923C193.811 218.381 193.927 218.854 194.229 219.201C194.473 219.481 194.819 219.656 195.175 219.761C195.788 219.943 196.457 219.933 197.065 219.734C198.076 219.393 198.951 218.735 199.559 217.858C199.758 217.571 199.927 217.258 200.004 216.918C200.062 216.657 200.064 216.382 199.973 216.132V216.13Z" fill="#020204"/>
<mask id="mask6_116_62" style="mask-type:luminance" maskUnits="userSpaceOnUse" x="193" y="214" width="8" height="6">
<path d="M199.973 216.13C199.902 215.938 199.778 215.767 199.626 215.63C199.475 215.493 199.296 215.388 199.107 215.308C198.73 215.148 198.32 215.089 197.918 215.013L196.782 214.79C196.387 214.723 195.978 214.68 195.587 214.769C195.245 214.846 194.928 215.023 194.669 215.26C194.41 215.496 194.208 215.791 194.063 216.112C193.806 216.675 193.726 217.307 193.775 217.923C193.811 218.381 193.927 218.854 194.229 219.201C194.473 219.481 194.819 219.656 195.175 219.761C195.788 219.943 196.457 219.933 197.065 219.734C198.076 219.393 198.951 218.735 199.559 217.858C199.758 217.571 199.927 217.258 200.004 216.918C200.062 216.657 200.064 216.382 199.973 216.132" fill="white"/>
</mask>
<g mask="url(#mask6_116_62)">
<g filter="url(#filter29_f_116_62)">
<path d="M195.801 214.586C195.706 214.591 195.612 214.602 195.518 214.618C194.914 214.726 194.361 215.107 194.049 215.636C193.83 216.012 193.729 216.446 193.761 216.881C193.774 216.578 193.853 216.281 194.001 216.016C194.25 215.567 194.702 215.228 195.208 215.135C195.522 215.078 195.84 215.112 196.155 215.151C196.456 215.189 196.76 215.228 197.058 215.293C197.517 215.392 197.972 215.545 198.358 215.815C198.448 215.878 198.532 215.949 198.603 216.033C198.673 216.116 198.728 216.213 198.75 216.321C198.781 216.478 198.736 216.643 198.657 216.783C198.579 216.923 198.472 217.045 198.358 217.158C198.266 217.25 198.167 217.338 198.07 217.425C198.515 217.338 198.967 217.216 199.337 216.957C199.494 216.847 199.635 216.716 199.729 216.549C199.822 216.382 199.861 216.18 199.816 215.994C199.785 215.869 199.716 215.754 199.631 215.657C199.545 215.56 199.443 215.481 199.337 215.407C198.871 215.08 198.325 214.871 197.76 214.803C197.398 214.736 197.032 214.68 196.667 214.634C196.381 214.598 196.089 214.569 195.802 214.585L195.801 214.586Z" fill="url(#paint22_radial_116_62)"/>
</g>
</g>
<mask id="mask7_116_62" style="mask-type:luminance" maskUnits="userSpaceOnUse" x="193" y="214" width="8" height="6">
<path d="M199.973 216.13C199.902 215.938 199.778 215.767 199.626 215.63C199.475 215.493 199.296 215.388 199.107 215.308C198.73 215.148 198.32 215.089 197.918 215.013L196.782 214.79C196.387 214.723 195.978 214.68 195.587 214.769C195.245 214.846 194.928 215.023 194.669 215.26C194.41 215.496 194.208 215.791 194.063 216.112C193.806 216.675 193.726 217.307 193.775 217.923C193.811 218.381 193.927 218.854 194.229 219.201C194.473 219.481 194.819 219.656 195.175 219.761C195.788 219.943 196.457 219.933 197.065 219.734C198.076 219.393 198.951 218.735 199.559 217.858C199.758 217.571 199.927 217.258 200.004 216.918C200.062 216.657 200.064 216.382 199.973 216.132" fill="white"/>
</mask>
<g mask="url(#mask7_116_62)">
<g filter="url(#filter30_f_116_62)">
<path d="M195.801 214.586C195.706 214.591 195.612 214.602 195.518 214.618C194.914 214.726 194.361 215.107 194.049 215.636C193.83 216.012 193.729 216.446 193.761 216.881C193.774 216.578 193.853 216.281 194.001 216.016C194.25 215.567 194.702 215.228 195.208 215.135C195.522 215.078 195.84 215.112 196.155 215.151C196.456 215.189 196.76 215.228 197.058 215.293C197.517 215.392 197.972 215.545 198.358 215.815C198.448 215.878 198.532 215.949 198.603 216.033C198.673 216.116 198.728 216.213 198.75 216.321C198.781 216.478 198.736 216.643 198.657 216.783C198.579 216.923 198.472 217.045 198.358 217.158C198.266 217.25 198.167 217.338 198.07 217.425C198.515 217.338 198.967 217.216 199.337 216.957C199.494 216.847 199.635 216.716 199.729 216.549C199.822 216.382 199.861 216.18 199.816 215.994C199.785 215.869 199.716 215.754 199.631 215.657C199.545 215.56 199.443 215.481 199.337 215.407C198.871 215.08 198.325 214.871 197.76 214.803C197.398 214.736 197.032 214.68 196.667 214.634C196.381 214.598 196.089 214.569 195.802 214.585L195.801 214.586Z" fill="url(#paint23_linear_116_62)"/>
</g>
</g>
<path d="M176.007 198.567L173.061 202.254C172.446 203.017 171.817 203.785 171.416 204.679C171.072 205.447 170.91 206.282 170.674 207.09C170.406 208.007 170.043 208.895 169.635 209.759C169.258 210.557 168.843 211.337 168.427 212.115C168.124 212.682 167.817 213.26 167.712 213.894C167.629 214.395 167.677 214.911 167.805 215.402C167.932 215.894 168.135 216.362 168.368 216.813C169.355 218.741 170.835 220.403 172.588 221.674C173.383 222.251 174.236 222.75 175.129 223.158C175.614 223.379 176.124 223.576 176.656 223.586C176.923 223.59 177.191 223.547 177.435 223.44C177.679 223.332 177.896 223.16 178.041 222.937C178.219 222.662 178.28 222.321 178.244 221.996C178.208 221.671 178.081 221.36 177.911 221.08C177.493 220.397 176.838 219.904 176.206 219.414C174.841 218.357 173.521 217.242 172.258 216.065C171.901 215.733 171.545 215.39 171.295 214.971C171.053 214.563 170.922 214.099 170.833 213.632C170.589 212.353 170.652 211.007 171.087 209.78C171.257 209.3 171.482 208.841 171.699 208.38C172.075 207.581 172.431 206.767 172.926 206.036C173.542 205.126 174.365 204.355 174.867 203.377C175.291 202.552 175.462 201.624 175.626 200.711L176.007 198.567Z" fill="#020204"/>
<mask id="mask8_116_62" style="mask-type:luminance" maskUnits="userSpaceOnUse" x="167" y="198" width="12" height="26">
<path d="M175.93 198.599C175.93 198.599 175.042 199.704 174.556 200.383C174.07 201.062 173.557 201.54 173.061 202.254C172.565 202.968 171.779 203.896 171.416 204.679C171.053 205.461 171.012 206.251 170.674 207.089C170.335 207.927 170.03 208.942 169.635 209.759C169.24 210.576 168.7 211.444 168.427 212.115C168.153 212.785 167.764 213.111 167.712 213.894C167.66 214.676 167.611 215.341 168.368 216.813C169.125 218.285 171.368 220.644 172.588 221.674C173.807 222.704 174.222 222.931 175.129 223.158C176.037 223.384 177.541 223.679 178.041 222.937C178.542 222.194 178.437 221.898 177.911 221.08C177.385 220.262 177.071 220.157 176.206 219.414C175.341 218.67 172.962 216.825 172.258 216.065C171.554 215.305 171.021 215.471 171.295 214.971C171.57 214.471 170.911 214.273 170.833 213.632C170.7 212.545 170.997 210.377 171.087 209.78C171.177 209.182 171.3 209.271 171.699 208.38C172.098 207.49 172.417 206.879 172.926 206.036C173.435 205.193 174.427 204.273 174.867 203.377C175.306 202.48 175.477 201.511 175.626 200.71C175.776 199.91 175.93 198.599 175.93 198.599Z" fill="white"/>
</mask>
<g mask="url(#mask8_116_62)">
<g opacity="0.95" filter="url(#filter31_f_116_62)">
<path d="M173.192 205.502C172.788 205.875 172.439 206.304 172.156 206.776C171.692 207.552 171.418 208.424 171.081 209.263C170.829 209.888 170.537 210.515 170.502 211.187C170.484 211.533 170.535 211.878 170.546 212.223C170.558 212.569 170.526 212.928 170.355 213.23C170.213 213.483 169.978 213.681 169.705 213.777C170.076 213.902 170.4 214.137 170.634 214.45C170.828 214.711 170.952 215.017 171.12 215.294C171.257 215.52 171.426 215.73 171.633 215.894C171.84 216.059 172.087 216.176 172.349 216.21C172.53 216.231 172.713 216.214 172.886 216.159C173.059 216.104 173.218 216.011 173.353 215.889C173.018 212.75 173.325 209.543 174.249 206.525C174.308 206.334 174.369 206.142 174.383 205.943C174.398 205.744 174.361 205.534 174.24 205.376C174.175 205.292 174.089 205.225 173.991 205.183C173.893 205.142 173.784 205.127 173.679 205.139C173.574 205.152 173.472 205.193 173.387 205.256C173.302 205.319 173.233 205.405 173.191 205.502L173.192 205.502Z" fill="#7C7C7C"/>
</g>
</g>
<mask id="mask9_116_62" style="mask-type:luminance" maskUnits="userSpaceOnUse" x="161" y="215" width="18" height="17">
<path d="M168.884 215.38C169.162 215.265 169.475 215.244 169.771 215.298C170.068 215.353 170.348 215.481 170.597 215.65C171.096 215.989 171.465 216.482 171.819 216.97C172.633 218.089 173.416 219.233 174.125 220.421C174.7 221.385 175.229 222.381 175.894 223.285C176.328 223.875 176.818 224.423 177.254 225.012C177.69 225.601 178.077 226.24 178.27 226.947C178.522 227.866 178.424 228.878 177.987 229.724C177.68 230.319 177.208 230.829 176.634 231.175C176.061 231.521 175.386 231.7 174.717 231.675C173.653 231.635 172.681 231.103 171.691 230.709C169.676 229.906 167.486 229.654 165.408 229.029C164.769 228.837 164.142 228.609 163.499 228.433C163.213 228.354 162.923 228.285 162.653 228.163C162.383 228.041 162.131 227.858 161.98 227.603C161.865 227.405 161.815 227.173 161.819 226.944C161.822 226.715 161.875 226.489 161.953 226.273C162.109 225.843 162.361 225.453 162.531 225.028C162.809 224.333 162.859 223.568 162.821 222.821C162.784 222.073 162.663 221.333 162.612 220.587C162.589 220.254 162.58 219.917 162.644 219.589C162.707 219.261 162.849 218.941 163.089 218.709C163.311 218.495 163.605 218.369 163.906 218.306C164.208 218.243 164.518 218.24 164.826 218.247C165.134 218.254 165.442 218.27 165.749 218.245C166.056 218.22 166.364 218.151 166.632 217.998C166.886 217.853 167.094 217.637 167.266 217.401C167.439 217.164 167.578 216.905 167.72 216.65C167.863 216.394 168.011 216.139 168.198 215.914C168.385 215.689 168.614 215.492 168.884 215.38" fill="white"/>
</mask>
<g mask="url(#mask9_116_62)">
<path d="M168.884 215.38C169.162 215.265 169.475 215.244 169.771 215.298C170.068 215.353 170.348 215.481 170.597 215.65C171.096 215.989 171.465 216.482 171.819 216.97C172.633 218.089 173.416 219.233 174.125 220.421C174.7 221.385 175.229 222.381 175.894 223.285C176.328 223.875 176.818 224.423 177.254 225.012C177.69 225.601 178.077 226.24 178.27 226.947C178.522 227.866 178.424 228.878 177.987 229.724C177.68 230.319 177.208 230.829 176.634 231.175C176.061 231.521 175.386 231.7 174.717 231.675C173.653 231.635 172.681 231.103 171.691 230.709C169.676 229.906 167.486 229.654 165.408 229.029C164.769 228.837 164.142 228.609 163.499 228.433C163.213 228.354 162.923 228.285 162.653 228.163C162.383 228.041 162.131 227.858 161.98 227.603C161.865 227.405 161.815 227.173 161.819 226.944C161.822 226.715 161.875 226.489 161.953 226.273C162.109 225.843 162.361 225.453 162.531 225.028C162.809 224.333 162.859 223.568 162.821 222.821C162.784 222.073 162.663 221.333 162.612 220.587C162.589 220.254 162.58 219.917 162.644 219.589C162.707 219.261 162.849 218.941 163.089 218.709C163.311 218.495 163.605 218.369 163.906 218.306C164.208 218.243 164.518 218.24 164.826 218.247C165.134 218.254 165.442 218.27 165.749 218.245C166.056 218.22 166.364 218.151 166.632 217.998C166.886 217.853 167.094 217.637 167.266 217.401C167.439 217.164 167.578 216.905 167.72 216.65C167.863 216.394 168.011 216.139 168.198 215.914C168.385 215.689 168.614 215.492 168.884 215.38L168.884 215.38Z" fill="url(#paint24_linear_116_62)"/>
<g filter="url(#filter32_f_116_62)">
<path d="M169.323 215.86C169.576 215.758 169.861 215.747 170.128 215.807C170.394 215.868 170.641 215.999 170.856 216.164C171.288 216.497 171.588 216.967 171.875 217.429C172.566 218.549 173.242 219.68 173.88 220.835C174.363 221.704 174.824 222.592 175.418 223.39C175.812 223.92 176.262 224.405 176.664 224.928C177.066 225.452 177.425 226.022 177.603 226.657C177.832 227.476 177.739 228.38 177.342 229.135C177.055 229.678 176.622 230.131 176.092 230.442C175.56 230.751 174.951 230.902 174.336 230.875C173.362 230.831 172.472 230.344 171.554 230.014C169.796 229.376 167.89 229.29 166.086 228.792C165.44 228.616 164.809 228.382 164.159 228.219C163.872 228.146 163.579 228.087 163.306 227.971C163.033 227.856 162.776 227.677 162.628 227.421C162.517 227.23 162.473 227.005 162.48 226.785C162.487 226.564 162.543 226.349 162.619 226.142C162.776 225.73 163.023 225.358 163.182 224.945C163.422 224.323 163.451 223.639 163.407 222.973C163.362 222.308 163.247 221.649 163.206 220.983C163.188 220.686 163.185 220.384 163.246 220.093C163.306 219.801 163.433 219.518 163.645 219.307C163.875 219.079 164.192 218.955 164.511 218.906C164.831 218.858 165.156 218.879 165.478 218.908C165.8 218.936 166.123 218.973 166.446 218.953C166.769 218.934 167.096 218.855 167.363 218.673C167.606 218.509 167.789 218.269 167.928 218.012C168.067 217.756 168.166 217.481 168.272 217.209C168.378 216.937 168.492 216.665 168.659 216.425C168.825 216.186 169.048 215.972 169.321 215.862" fill="#D99A03"/>
</g>
<g filter="url(#filter33_f_116_62)">
<path d="M169.088 215.228C169.334 215.106 169.623 215.081 169.892 215.136C170.161 215.191 170.41 215.322 170.622 215.494C171.046 215.836 171.315 216.328 171.566 216.808C172.141 217.911 172.677 219.039 173.365 220.077C173.865 220.83 174.441 221.533 174.946 222.283C175.631 223.3 176.188 224.419 176.418 225.618C176.572 226.424 176.567 227.293 176.179 228.021C175.923 228.499 175.509 228.893 175.019 229.136C174.529 229.38 173.967 229.481 173.42 229.433C172.557 229.357 171.774 228.933 170.962 228.637C169.522 228.112 167.965 227.987 166.483 227.591C165.858 227.424 165.247 227.209 164.612 227.078C164.332 227.02 164.047 226.977 163.78 226.876C163.514 226.775 163.261 226.609 163.124 226.362C163.028 226.188 162.996 225.985 163.01 225.788C163.025 225.591 163.083 225.399 163.161 225.217C163.315 224.852 163.544 224.518 163.666 224.14C163.842 223.586 163.77 222.985 163.637 222.419C163.505 221.854 163.314 221.298 163.255 220.72C163.229 220.463 163.23 220.201 163.288 219.949C163.347 219.696 163.467 219.454 163.656 219.273C163.898 219.041 164.238 218.925 164.575 218.892C164.913 218.86 165.253 218.904 165.588 218.952C165.924 219 166.261 219.055 166.6 219.038C166.939 219.02 167.284 218.933 167.549 218.726C167.812 218.521 167.977 218.215 168.072 217.899C168.166 217.583 168.197 217.253 168.236 216.925C168.275 216.598 168.323 216.268 168.45 215.963C168.577 215.658 168.791 215.377 169.09 215.229L169.088 215.228Z" fill="#F5BD0C"/>
</g>
<g filter="url(#filter34_f_116_62)">
<path d="M172.161 217.982C172.615 218.803 172.892 219.744 173.341 220.571C173.755 221.332 174.226 222.116 174.647 222.818C174.834 223.13 175.27 223.611 175.712 224.356C176.112 225.031 176.516 225.974 176.742 226.291C176.612 225.92 176.345 224.925 176.027 224.215C175.731 223.552 175.383 223.174 175.169 222.818C174.748 222.116 174.296 221.485 173.864 220.816C173.267 219.893 172.813 218.86 172.161 217.982V217.982Z" fill="url(#paint25_linear_116_62)"/>
</g>
</g>
</g>
<rect x="30" width="80" height="80" rx="40" fill="#A3A3A3"/>
<path d="M66.6301 12.0627C64.969 12.2272 61.2507 12.9074 61.8448 12.9294C61.9328 12.9294 62.4608 12.8636 62.9999 12.7648C64.463 12.5234 67.3452 12.4466 69.3144 12.6112C78.1811 13.3134 85.5186 18.1956 89.1929 25.8315C89.886 27.2688 90.458 28.9364 90.7771 30.4394C91.0741 31.8657 91.1841 34.6305 91.0081 36.1884C90.568 39.8857 88.8519 43.934 86.5747 46.5891C86.2557 46.9731 85.7717 47.5326 85.4966 47.8508C85.0016 48.4322 85.0016 48.4322 85.8597 47.6643C89.2919 44.6362 91.6461 40.7414 92.6032 36.5285C92.8782 35.2887 92.9442 31.1635 92.7132 29.7921C92.2072 26.8189 90.9531 23.8128 89.1929 21.3882C88.3899 20.2801 86.4207 18.2175 85.2876 17.3069C81.9214 14.608 77.895 12.8855 73.3407 12.2163C72.0096 12.0188 67.9942 11.931 66.6301 12.0627Z" fill="white"/>
<path d="M65.1996 15.1016C62.2294 15.354 58.5991 16.473 55.5739 18.0638C53.0437 19.3914 51.3825 20.6421 49.2484 22.8254C45.9481 26.2045 43.6489 30.0773 42.7029 33.8295C42.5378 34.4987 42.3728 35.2887 42.3288 35.5958C42.2738 36.0566 42.3178 35.9689 42.6259 35.0473C43.6489 31.9973 45.9591 28.4755 48.7643 25.6779C50.6675 23.7798 52.8347 22.178 55.0018 21.0809C61.0523 18.009 68.2469 17.8883 74.0443 20.7737C78.8627 23.1655 82.515 27.543 83.8131 32.4691C84.0331 33.2919 84.0991 33.8734 84.1431 35.2887C84.2092 37.3403 84.0881 38.4155 83.6041 39.9295C82.218 44.2851 78.6317 47.7629 74.2974 48.9369C73.0543 49.277 70.4361 49.3538 69.259 49.0904C65.7717 48.3225 63.5825 45.5467 64.0226 42.4529C64.2866 40.6316 65.1336 39.0518 66.6848 37.5048C67.4988 36.693 67.8068 36.4735 68.7859 35.9908C70.172 35.3106 70.9641 35.1021 72.1412 35.1021C72.8673 35.1021 73.0873 35.146 73.3183 35.3216C73.9673 35.8372 73.9893 37.0331 73.3623 38.3277C72.5372 40.0282 70.4801 41.3996 69.754 40.7414C69.567 40.5768 69.545 40.5878 69.479 40.862C69.38 41.257 69.578 41.3777 70.238 41.3119C71.1401 41.2131 71.9212 40.7743 72.8342 39.8417C74.6164 38.0315 75.1224 35.8592 74.0333 34.7072C73.5713 34.2135 72.9663 34.0709 71.5581 34.1367C70.6011 34.1806 70.161 34.2574 69.281 34.5536C65.9037 35.6946 63.0875 38.6349 62.2734 41.8933C61.9544 43.177 62.0094 44.8994 62.4274 46.0514C63.2195 48.2896 65.4637 50.3521 68.0709 51.2189C70.6891 52.0966 73.9893 52.0746 76.7946 51.153C78.9397 50.4619 80.7989 49.3318 82.515 47.6642C85.2982 44.9653 87.1684 41.5642 87.9935 37.6255C88.3015 36.1773 88.2685 32.7214 87.9384 31.0647C87.2454 27.6307 85.7383 24.5917 83.4391 22.0135C80.1058 18.2613 75.0344 15.705 69.853 15.1455C68.8629 15.0358 66.2337 15.0138 65.1996 15.1016Z" fill="#FF6600"/>
<path d="M68.9949 26.2264C71.4481 26.4349 73.4832 26.9944 75.0784 27.905C76.9485 28.9692 78.2466 30.2967 79.0607 31.9753C79.7097 33.3358 79.8307 33.9063 79.8307 35.6507C79.8197 36.9014 79.7757 37.2964 79.5337 38.1741C78.8517 40.6207 77.5536 42.6613 75.7384 44.0876C74.7043 44.9104 74.6823 44.9543 75.4304 44.5374C77.8726 43.2099 79.7427 41.0376 80.6448 38.4813C81.0298 37.3732 81.0408 37.3183 81.0408 35.6507C81.0408 34.1696 81.0078 33.8404 80.7878 33.1273C79.7207 29.7482 77.1795 27.4662 73.3072 26.4129C72.5922 26.2155 72.0971 26.1825 70.15 26.1496C68.1148 26.1277 67.9828 26.1387 68.9949 26.2264Z" fill="white"/>
<path d="M66.2447 28.2013C63.8355 28.4755 61.3823 29.3642 59.3911 30.6917C57.818 31.734 55.9148 33.7637 54.6387 35.7604C53.9347 36.8466 52.9116 38.9969 52.5596 40.116C51.9325 42.1128 51.7895 43.1111 51.7895 45.47C51.7785 47.9495 51.9655 49.1673 52.6696 51.3176C55.2988 59.3705 63.4174 64.9658 72.4602 64.9658C76.6735 64.9658 79.9627 64.143 84.1651 62.0475C86.6183 60.8077 88.4774 59.4692 90.5126 57.4396C92.7678 55.1795 94.3519 52.9852 95.727 50.1876C96.7061 48.2018 97.1571 46.962 97.4761 45.2615C97.7622 43.8243 97.7622 43.5939 97.4871 44.5484C97.0361 46.1282 95.859 48.4432 94.5389 50.3522C91.5797 54.6529 87.6084 57.9442 83.241 59.7216C76.1234 62.607 67.9168 61.5099 62.3394 56.9239C59.0611 54.225 56.5969 50.2095 55.9478 46.4574C55.6838 44.9543 55.7828 42.0579 56.1569 40.8072C56.7509 38.7556 57.433 37.3622 58.5551 35.8811C60.5022 33.3029 63.3514 31.5146 66.5747 30.8673C67.6968 30.6478 70.106 30.7027 71.129 30.988C72.6912 31.4158 74.1543 32.4252 75.0454 33.6978C75.8374 34.8279 75.9584 35.2667 75.9034 37.0002C75.8594 38.3496 75.8374 38.5032 75.4964 39.3151C75.0014 40.4561 74.2423 41.5752 73.3732 42.42C72.4712 43.3086 72.0971 43.5829 71.052 44.1095C69.919 44.691 69.1599 44.8665 67.8838 44.8665C66.8387 44.8665 66.8057 44.8556 66.5417 44.5374C66.0246 43.923 66.0576 42.7052 66.6187 41.5862C67.4108 40.0392 69.6549 38.5471 70.205 39.2164C70.381 39.4248 70.535 39.3261 70.535 38.9969C70.535 38.6568 70.106 38.5581 69.3689 38.7556C67.8068 39.1615 66.2337 40.7304 65.5846 42.5297C65.1556 43.7146 65.4196 45.0531 66.1787 45.5138C67.0147 46.0295 68.8189 46.0295 70.502 45.5138C72.2951 44.9653 74.4293 43.5171 75.7384 41.9592C76.5635 40.9827 77.5206 39.0737 77.7516 37.9547C78.0046 36.7698 77.9166 34.8388 77.5756 33.9612C76.3435 30.7685 73.2192 28.6072 69.2149 28.1903C68.0158 28.0696 67.4108 28.0696 66.2447 28.2013Z" fill="#FF6600"/>
<path d="M53.2304 33.27C51.4373 35.0693 50.6562 36.0786 49.5672 37.9766C48.3461 40.116 47.598 42.2225 47.257 44.5703C47.004 46.2599 47.092 49.3977 47.433 50.9556C48.8081 57.3408 53.0324 62.5522 59.2589 65.5473C61.7121 66.7322 63.8463 67.3466 67.0475 67.8074C69.6327 68.1804 74.2311 67.9939 76.7503 67.4014C77.2674 67.2808 77.3114 67.2588 76.9263 67.3137C70.1718 68.1036 63.9123 66.798 58.9839 63.5835C57.4988 62.607 56.4647 61.7513 55.0676 60.325C52.0644 57.2421 50.0292 53.5448 49.1931 49.6281C48.8961 48.2457 48.7751 45.2615 48.9621 43.7036C49.3031 40.8291 50.4692 37.6585 52.1304 35.1022C52.7904 34.0928 53.3955 33.3358 54.4075 32.2716C54.7596 31.8986 55.0236 31.5914 54.9796 31.5914C54.9356 31.5914 54.1435 32.3484 53.2304 33.27Z" fill="#FF6600"/>
<path d="M63.6375 36.0567C59.6662 38.7117 57.939 43.3635 59.4351 47.4338C60.5572 50.4948 62.9994 52.5574 66.6847 53.5558C67.3668 53.7423 67.9058 53.7862 69.765 53.8081C71.0081 53.8191 71.7011 53.8191 71.3051 53.7971C67.6528 53.5887 64.8916 52.5464 62.8014 50.5826C60.7992 48.6955 59.9852 46.6878 60.1172 43.9889C60.2602 41.1254 61.4263 38.5691 63.5825 36.4407C64.0885 35.947 64.4735 35.541 64.4515 35.541C64.4405 35.541 64.0665 35.7714 63.6375 36.0567Z" fill="#FF6600"/>
<path d="M69.6996 39.8753C69.6557 39.9738 69.6776 40.1053 69.7435 40.171C69.9193 40.3462 70.2597 40.2257 70.2597 39.9848C70.2597 39.7 69.7985 39.6124 69.6996 39.8753Z" fill="#FF6600"/>
<defs>
<filter id="filter0_f_116_62" x="176.462" y="193.451" width="12.8786" height="8.32731" filterUnits="userSpaceOnUse" color-interpolation-filters="sRGB">
<feFlood flood-opacity="0" result="BackgroundImageFix"/>
<feBlend mode="normal" in="SourceGraphic" in2="BackgroundImageFix" result="shape"/>
<feGaussianBlur stdDeviation="0.436168" result="effect1_foregroundBlur_116_62"/>
</filter>
<filter id="filter1_f_116_62" x="176.855" y="193.454" width="11.422" height="5.60841" filterUnits="userSpaceOnUse" color-interpolation-filters="sRGB">
<feFlood flood-opacity="0" result="BackgroundImageFix"/>
<feBlend mode="normal" in="SourceGraphic" in2="BackgroundImageFix" result="shape"/>
<feGaussianBlur stdDeviation="0.191623" result="effect1_foregroundBlur_116_62"/>
</filter>
<filter id="filter2_f_116_62" x="176.671" y="190.532" width="11.6608" height="6.45971" filterUnits="userSpaceOnUse" color-interpolation-filters="sRGB">
<feFlood flood-opacity="0" result="BackgroundImageFix"/>
<feBlend mode="normal" in="SourceGraphic" in2="BackgroundImageFix" result="shape"/>
<feGaussianBlur stdDeviation="0.291564" result="effect1_foregroundBlur_116_62"/>
</filter>
<filter id="filter3_f_116_62" x="184.885" y="181.389" width="4.58517" height="4.43539" filterUnits="userSpaceOnUse" color-interpolation-filters="sRGB">
<feFlood flood-opacity="0" result="BackgroundImageFix"/>
<feBlend mode="normal" in="SourceGraphic" in2="BackgroundImageFix" result="shape"/>
<feGaussianBlur stdDeviation="0.429496" result="effect1_foregroundBlur_116_62"/>
</filter>
<filter id="filter4_f_116_62" x="185.207" y="190.273" width="0.871696" height="0.710686" filterUnits="userSpaceOnUse" color-interpolation-filters="sRGB">
<feFlood flood-opacity="0" result="BackgroundImageFix"/>
<feBlend mode="normal" in="SourceGraphic" in2="BackgroundImageFix" result="shape"/>
<feGaussianBlur stdDeviation="0.0533428" result="effect1_foregroundBlur_116_62"/>
</filter>
<filter id="filter5_f_116_62" x="185.096" y="189.404" width="1.65921" height="1.64151" filterUnits="userSpaceOnUse" color-interpolation-filters="sRGB">
<feFlood flood-opacity="0" result="BackgroundImageFix"/>
<feBlend mode="normal" in="SourceGraphic" in2="BackgroundImageFix" result="shape"/>
<feGaussianBlur stdDeviation="0.111184" result="effect1_foregroundBlur_116_62"/>
</filter>
<filter id="filter6_f_116_62" x="185.631" y="186.267" width="2.79748" height="2.59118" filterUnits="userSpaceOnUse" color-interpolation-filters="sRGB">
<feFlood flood-opacity="0" result="BackgroundImageFix"/>
<feBlend mode="normal" in="SourceGraphic" in2="BackgroundImageFix" result="shape"/>
<feGaussianBlur stdDeviation="0.0317057" result="effect1_foregroundBlur_116_62"/>
</filter>
<filter id="filter7_f_116_62" x="178.445" y="186.612" width="2.61239" height="2.31002" filterUnits="userSpaceOnUse" color-interpolation-filters="sRGB">
<feFlood flood-opacity="0" result="BackgroundImageFix"/>
<feBlend mode="normal" in="SourceGraphic" in2="BackgroundImageFix" result="shape"/>
<feGaussianBlur stdDeviation="0.0289208" result="effect1_foregroundBlur_116_62"/>
</filter>
<filter id="filter8_f_116_62" x="178.585" y="189.572" width="1.35293" height="1.90554" filterUnits="userSpaceOnUse" color-interpolation-filters="sRGB">
<feFlood flood-opacity="0" result="BackgroundImageFix"/>
<feBlend mode="normal" in="SourceGraphic" in2="BackgroundImageFix" result="shape"/>
<feGaussianBlur stdDeviation="0.109899" result="effect1_foregroundBlur_116_62"/>
</filter>
<filter id="filter9_f_116_62" x="179.431" y="195.239" width="3.18699" height="2.47105" filterUnits="userSpaceOnUse" color-interpolation-filters="sRGB">
<feFlood flood-opacity="0" result="BackgroundImageFix"/>
<feBlend mode="normal" in="SourceGraphic" in2="BackgroundImageFix" result="shape"/>
<feGaussianBlur stdDeviation="0.192591" result="effect1_foregroundBlur_116_62"/>
</filter>
<filter id="filter10_f_116_62" x="177.33" y="192.498" width="9.85755" height="4.63953" filterUnits="userSpaceOnUse" color-interpolation-filters="sRGB">
<feFlood flood-opacity="0" result="BackgroundImageFix"/>
<feBlend mode="normal" in="SourceGraphic" in2="BackgroundImageFix" result="shape"/>
<feGaussianBlur stdDeviation="0.162385" result="effect1_foregroundBlur_116_62"/>
</filter>
<filter id="filter11_f_116_62" x="181.297" y="192.63" width="2.9304" height="3.44834" filterUnits="userSpaceOnUse" color-interpolation-filters="sRGB">
<feFlood flood-opacity="0" result="BackgroundImageFix"/>
<feBlend mode="normal" in="SourceGraphic" in2="BackgroundImageFix" result="shape"/>
<feGaussianBlur stdDeviation="0.18188" result="effect1_foregroundBlur_116_62"/>
</filter>
<filter id="filter12_f_116_62" x="182.355" y="191.817" width="1.08022" height="0.611716" filterUnits="userSpaceOnUse" color-interpolation-filters="sRGB">
<feFlood flood-opacity="0" result="BackgroundImageFix"/>
<feBlend mode="normal" in="SourceGraphic" in2="BackgroundImageFix" result="shape"/>
<feGaussianBlur stdDeviation="0.0235651" result="effect1_foregroundBlur_116_62"/>
</filter>
<filter id="filter13_f_116_62" x="180.025" y="191.907" width="0.490134" height="0.530784" filterUnits="userSpaceOnUse" color-interpolation-filters="sRGB">
<feFlood flood-opacity="0" result="BackgroundImageFix"/>
<feBlend mode="normal" in="SourceGraphic" in2="BackgroundImageFix" result="shape"/>
<feGaussianBlur stdDeviation="0.0235651" result="effect1_foregroundBlur_116_62"/>
</filter>
<filter id="filter14_f_116_62" x="186.651" y="193.237" width="1.29694" height="1.52302" filterUnits="userSpaceOnUse" color-interpolation-filters="sRGB">
<feFlood flood-opacity="0" result="BackgroundImageFix"/>
<feBlend mode="normal" in="SourceGraphic" in2="BackgroundImageFix" result="shape"/>
<feGaussianBlur stdDeviation="0.073168" result="effect1_foregroundBlur_116_62"/>
</filter>
<filter id="filter15_f_116_62" x="191.485" y="203.481" width="6.06179" height="15.2732" filterUnits="userSpaceOnUse" color-interpolation-filters="sRGB">
<feFlood flood-opacity="0" result="BackgroundImageFix"/>
<feBlend mode="normal" in="SourceGraphic" in2="BackgroundImageFix" result="shape"/>
<feGaussianBlur stdDeviation="0.292242" result="effect1_foregroundBlur_116_62"/>
</filter>
<filter id="filter16_f_116_62" x="173.057" y="201.221" width="6.80695" height="6.40704" filterUnits="userSpaceOnUse" color-interpolation-filters="sRGB">
<feFlood flood-opacity="0" result="BackgroundImageFix"/>
<feBlend mode="normal" in="SourceGraphic" in2="BackgroundImageFix" result="shape"/>
<feGaussianBlur stdDeviation="0.147995" result="effect1_foregroundBlur_116_62"/>
</filter>
<filter id="filter17_f_116_62" x="182.194" y="200.572" width="10.3366" height="7.46479" filterUnits="userSpaceOnUse" color-interpolation-filters="sRGB">
<feFlood flood-opacity="0" result="BackgroundImageFix"/>
<feBlend mode="normal" in="SourceGraphic" in2="BackgroundImageFix" result="shape"/>
<feGaussianBlur stdDeviation="0.243791" result="effect1_foregroundBlur_116_62"/>
</filter>
<filter id="filter18_f_116_62" x="178.63" y="201.469" width="4.44855" height="4.70954" filterUnits="userSpaceOnUse" color-interpolation-filters="sRGB">
<feFlood flood-opacity="0" result="BackgroundImageFix"/>
<feBlend mode="normal" in="SourceGraphic" in2="BackgroundImageFix" result="shape"/>
<feGaussianBlur stdDeviation="0.168169" result="effect1_foregroundBlur_116_62"/>
</filter>
<filter id="filter19_f_116_62" x="178.54" y="207.112" width="1.97835" height="11.6881" filterUnits="userSpaceOnUse" color-interpolation-filters="sRGB">
<feFlood flood-opacity="0" result="BackgroundImageFix"/>
<feBlend mode="normal" in="SourceGraphic" in2="BackgroundImageFix" result="shape"/>
<feGaussianBlur stdDeviation="0.309774" result="effect1_foregroundBlur_116_62"/>
</filter>
<filter id="filter20_f_116_62" x="189.103" y="195.056" width="2.89158" height="3.13231" filterUnits="userSpaceOnUse" color-interpolation-filters="sRGB">
<feFlood flood-opacity="0" result="BackgroundImageFix"/>
<feBlend mode="normal" in="SourceGraphic" in2="BackgroundImageFix" result="shape"/>
<feGaussianBlur stdDeviation="0.193019" result="effect1_foregroundBlur_116_62"/>
</filter>
<filter id="filter21_f_116_62" x="188.313" y="217.139" width="14.3486" height="15.4474" filterUnits="userSpaceOnUse" color-interpolation-filters="sRGB">
<feFlood flood-opacity="0" result="BackgroundImageFix"/>
<feBlend mode="normal" in="SourceGraphic" in2="BackgroundImageFix" result="shape"/>
<feGaussianBlur stdDeviation="0.479548" result="effect1_foregroundBlur_116_62"/>
</filter>
<filter id="filter22_f_116_62" x="188.854" y="214.424" width="17.8614" height="18.0551" filterUnits="userSpaceOnUse" color-interpolation-filters="sRGB">
<feFlood flood-opacity="0" result="BackgroundImageFix"/>
<feBlend mode="normal" in="SourceGraphic" in2="BackgroundImageFix" result="shape"/>
<feGaussianBlur stdDeviation="1.0238" result="effect1_foregroundBlur_116_62"/>
</filter>
<filter id="filter23_f_116_62" x="189.851" y="213.809" width="16.3642" height="16.2983" filterUnits="userSpaceOnUse" color-interpolation-filters="sRGB">
<feFlood flood-opacity="0" result="BackgroundImageFix"/>
<feBlend mode="normal" in="SourceGraphic" in2="BackgroundImageFix" result="shape"/>
<feGaussianBlur stdDeviation="0.806721" result="effect1_foregroundBlur_116_62"/>
</filter>
<filter id="filter24_f_116_62" x="191.105" y="216.445" width="9.98883" height="1.96002" filterUnits="userSpaceOnUse" color-interpolation-filters="sRGB">
<feFlood flood-opacity="0" result="BackgroundImageFix"/>
<feBlend mode="normal" in="SourceGraphic" in2="BackgroundImageFix" result="shape"/>
<feGaussianBlur stdDeviation="0.102615" result="effect1_foregroundBlur_116_62"/>
</filter>
<filter id="filter25_f_116_62" x="192.61" y="205.556" width="3.71833" height="3.75593" filterUnits="userSpaceOnUse" color-interpolation-filters="sRGB">
<feFlood flood-opacity="0" result="BackgroundImageFix"/>
<feBlend mode="normal" in="SourceGraphic" in2="BackgroundImageFix" result="shape"/>
<feGaussianBlur stdDeviation="0.491044" result="effect1_foregroundBlur_116_62"/>
</filter>
<filter id="filter26_f_116_62" x="175.019" y="199.206" width="1.27605" height="1.29875" filterUnits="userSpaceOnUse" color-interpolation-filters="sRGB">
<feFlood flood-opacity="0" result="BackgroundImageFix"/>
<feBlend mode="normal" in="SourceGraphic" in2="BackgroundImageFix" result="shape"/>
<feGaussianBlur stdDeviation="0.137066" result="effect1_foregroundBlur_116_62"/>
</filter>
<filter id="filter27_f_116_62" x="192.102" y="215.921" width="8.36369" height="7.51201" filterUnits="userSpaceOnUse" color-interpolation-filters="sRGB">
<feFlood flood-opacity="0" result="BackgroundImageFix"/>
<feBlend mode="normal" in="SourceGraphic" in2="BackgroundImageFix" result="shape"/>
<feGaussianBlur stdDeviation="0.609264" result="effect1_foregroundBlur_116_62"/>
</filter>
<filter id="filter28_f_116_62" x="192.848" y="216.684" width="6.87162" height="4.6138" filterUnits="userSpaceOnUse" color-interpolation-filters="sRGB">
<feFlood flood-opacity="0" result="BackgroundImageFix"/>
<feBlend mode="normal" in="SourceGraphic" in2="BackgroundImageFix" result="shape"/>
<feGaussianBlur stdDeviation="0.236245" result="effect1_foregroundBlur_116_62"/>
</filter>
<filter id="filter29_f_116_62" x="193.316" y="214.142" width="6.95756" height="3.72221" filterUnits="userSpaceOnUse" color-interpolation-filters="sRGB">
<feFlood flood-opacity="0" result="BackgroundImageFix"/>
<feBlend mode="normal" in="SourceGraphic" in2="BackgroundImageFix" result="shape"/>
<feGaussianBlur stdDeviation="0.219584" result="effect1_foregroundBlur_116_62"/>
</filter>
<filter id="filter30_f_116_62" x="193.316" y="214.142" width="6.95756" height="3.72221" filterUnits="userSpaceOnUse" color-interpolation-filters="sRGB">
<feFlood flood-opacity="0" result="BackgroundImageFix"/>
<feBlend mode="normal" in="SourceGraphic" in2="BackgroundImageFix" result="shape"/>
<feGaussianBlur stdDeviation="0.219584" result="effect1_foregroundBlur_116_62"/>
</filter>
<filter id="filter31_f_116_62" x="169.22" y="204.65" width="5.65105" height="12.0538" filterUnits="userSpaceOnUse" color-interpolation-filters="sRGB">
<feFlood flood-opacity="0" result="BackgroundImageFix"/>
<feBlend mode="normal" in="SourceGraphic" in2="BackgroundImageFix" result="shape"/>
<feGaussianBlur stdDeviation="0.242506" result="effect1_foregroundBlur_116_62"/>
</filter>
<filter id="filter32_f_116_62" x="160.798" y="214.089" width="18.6089" height="18.4703" filterUnits="userSpaceOnUse" color-interpolation-filters="sRGB">
<feFlood flood-opacity="0" result="BackgroundImageFix"/>
<feBlend mode="normal" in="SourceGraphic" in2="BackgroundImageFix" result="shape"/>
<feGaussianBlur stdDeviation="0.840631" result="effect1_foregroundBlur_116_62"/>
</filter>
<filter id="filter33_f_116_62" x="161.972" y="214.074" width="15.575" height="16.4055" filterUnits="userSpaceOnUse" color-interpolation-filters="sRGB">
<feFlood flood-opacity="0" result="BackgroundImageFix"/>
<feBlend mode="normal" in="SourceGraphic" in2="BackgroundImageFix" result="shape"/>
<feGaussianBlur stdDeviation="0.517366" result="effect1_foregroundBlur_116_62"/>
</filter>
<filter id="filter34_f_116_62" x="172.003" y="217.824" width="4.89775" height="8.62565" filterUnits="userSpaceOnUse" color-interpolation-filters="sRGB">
<feFlood flood-opacity="0" result="BackgroundImageFix"/>
<feBlend mode="normal" in="SourceGraphic" in2="BackgroundImageFix" result="shape"/>
<feGaussianBlur stdDeviation="0.0792644" result="effect1_foregroundBlur_116_62"/>
</filter>
<radialGradient id="paint0_radial_116_62" cx="0" cy="0" r="1" gradientUnits="userSpaceOnUse" gradientTransform="translate(829.353 1160.33) rotate(-2.41003) scale(43.3201 106.032)">
<stop stop-color="#FEFEFC"/>
<stop offset="0.757" stop-color="#FEFEFC"/>
<stop offset="1" stop-color="#D4D4D4"/>
</radialGradient>
<radialGradient id="paint1_radial_116_62" cx="0" cy="0" r="1" gradientUnits="userSpaceOnUse" gradientTransform="translate(1363.89 1206.75) rotate(-1.81001) scale(77.5581 112.079)">
<stop stop-color="#FEFEFC"/>
<stop offset="0.757" stop-color="#FEFEFC"/>
<stop offset="1" stop-color="#D4D4D4"/>
</radialGradient>
<radialGradient id="paint2_radial_116_62" cx="0" cy="0" r="1" gradientUnits="userSpaceOnUse" gradientTransform="translate(1444.51 -159.113) rotate(-36.0085) scale(71.0561 47.1374)">
<stop stop-color="#020204"/>
<stop offset="0.734" stop-color="#020204"/>
<stop offset="1" stop-color="#5C5C5C"/>
</radialGradient>
<linearGradient id="paint3_linear_116_62" x1="553.313" y1="348.53" x2="561.332" y2="358.166" gradientUnits="userSpaceOnUse">
<stop stop-color="#949494" stop-opacity="0.392"/>
<stop offset="0.5" stop-color="#949494"/>
<stop offset="1" stop-color="#949494" stop-opacity="0.392"/>
</linearGradient>
<linearGradient id="paint4_linear_116_62" x1="920.691" y1="907.549" x2="1065.67" y2="1026.64" gradientUnits="userSpaceOnUse">
<stop stop-color="#747474"/>
<stop offset="0.125" stop-color="#8C8C8C"/>
<stop offset="0.25" stop-color="#A4A4A4"/>
<stop offset="0.5" stop-color="#D4D4D4"/>
<stop offset="0.619" stop-color="#D4D4D4"/>
<stop offset="1" stop-color="#7C7C7C"/>
</linearGradient>
<linearGradient id="paint5_linear_116_62" x1="227.115" y1="446.471" x2="262.234" y2="482.401" gradientUnits="userSpaceOnUse">
<stop stop-color="#646464" stop-opacity="0"/>
<stop offset="0.306" stop-color="#646464" stop-opacity="0.583"/>
<stop offset="0.47" stop-color="#646464"/>
<stop offset="0.728" stop-color="#646464" stop-opacity="0.257"/>
<stop offset="1" stop-color="#646464" stop-opacity="0"/>
</linearGradient>
<linearGradient id="paint6_linear_116_62" x1="114.155" y1="420.736" x2="143.458" y2="452.844" gradientUnits="userSpaceOnUse">
<stop stop-color="#646464" stop-opacity="0"/>
<stop offset="0.306" stop-color="#646464" stop-opacity="0.583"/>
<stop offset="0.47" stop-color="#646464"/>
<stop offset="0.728" stop-color="#646464" stop-opacity="0.257"/>
<stop offset="1" stop-color="#646464" stop-opacity="0"/>
</linearGradient>
<linearGradient id="paint7_linear_116_62" x1="328.644" y1="383.382" x2="338.621" y2="394.498" gradientUnits="userSpaceOnUse">
<stop stop-color="#757574" stop-opacity="0"/>
<stop offset="0.263" stop-color="#757574"/>
<stop offset="0.5" stop-color="#757574"/>
<stop offset="1" stop-color="#757574" stop-opacity="0"/>
</linearGradient>
<radialGradient id="paint8_radial_116_62" cx="0" cy="0" r="1" gradientUnits="userSpaceOnUse" gradientTransform="translate(3346.18 -335.134) rotate(-22.428) scale(334.786 116.311)">
<stop stop-color="#D2940A"/>
<stop offset="0.751" stop-color="#D89C08"/>
<stop offset="0.866" stop-color="#B67E07"/>
<stop offset="1" stop-color="#946106"/>
</radialGradient>
<linearGradient id="paint9_linear_116_62" x1="669.136" y1="1029.2" x2="1261.93" y2="1019.99" gradientUnits="userSpaceOnUse">
<stop stop-color="#AD780A"/>
<stop offset="0.12" stop-color="#D89E08"/>
<stop offset="0.255" stop-color="#EDB80B"/>
<stop offset="0.392" stop-color="#EBC80D"/>
<stop offset="0.527" stop-color="#F5D838"/>
<stop offset="0.769" stop-color="#F6D811"/>
<stop offset="1" stop-color="#F5CD31"/>
</linearGradient>
<radialGradient id="paint10_radial_116_62" cx="0" cy="0" r="1" gradientUnits="userSpaceOnUse" gradientTransform="translate(258.981 236.37) scale(3.18457 0.974946)">
<stop stop-color="#3A2903"/>
<stop offset="0.555" stop-color="#735208"/>
<stop offset="1" stop-color="#AC8C04"/>
</radialGradient>
<radialGradient id="paint11_radial_116_62" cx="0" cy="0" r="1" gradientUnits="userSpaceOnUse" gradientTransform="translate(205.061 261.127) scale(0.607645 0.720332)">
<stop stop-color="#3A2903"/>
<stop offset="0.555" stop-color="#735208"/>
<stop offset="1" stop-color="#AC8C04"/>
</radialGradient>
<linearGradient id="paint12_linear_116_62" x1="406.962" y1="386.567" x2="407.593" y2="389.84" gradientUnits="userSpaceOnUse">
<stop stop-color="#F5CE2D"/>
<stop offset="1" stop-color="#D79B08"/>
</linearGradient>
<radialGradient id="paint13_radial_116_62" cx="0" cy="0" r="1" gradientUnits="userSpaceOnUse" gradientTransform="translate(849.822 214.64) rotate(-9.34942) scale(88.3477 37.8953)">
<stop stop-color="#C8C8C8"/>
<stop offset="1" stop-color="#797978"/>
</radialGradient>
<radialGradient id="paint14_radial_116_62" cx="0" cy="0" r="1" gradientUnits="userSpaceOnUse" gradientTransform="translate(-1228.16 1180.92) rotate(180) scale(118.9 121.587)">
<stop/>
<stop offset="1" stop-opacity="0.25"/>
</radialGradient>
<radialGradient id="paint15_radial_116_62" cx="0" cy="0" r="1" gradientUnits="userSpaceOnUse" gradientTransform="translate(3054.51 1371.36) scale(256.419 135.693)">
<stop/>
<stop offset="1" stop-opacity="0.25"/>
</radialGradient>
<radialGradient id="paint16_radial_116_62" cx="0" cy="0" r="1" gradientUnits="userSpaceOnUse" gradientTransform="translate(1169.12 1171.74) scale(40.9495 46.8102)">
<stop/>
<stop offset="1" stop-opacity="0.25"/>
</radialGradient>
<linearGradient id="paint17_linear_116_62" x1="540.878" y1="4600.23" x2="595.126" y2="4972.23" gradientUnits="userSpaceOnUse">
<stop/>
<stop offset="1" stop-opacity="0"/>
</linearGradient>
<linearGradient id="paint18_linear_116_62" x1="6844.32" y1="5984.68" x2="7600.97" y2="4795.21" gradientUnits="userSpaceOnUse">
<stop stop-color="#3E2A06"/>
<stop offset="1" stop-color="#AD780A"/>
</linearGradient>
<linearGradient id="paint19_linear_116_62" x1="623.908" y1="665.381" x2="623.549" y2="685.34" gradientUnits="userSpaceOnUse">
<stop stop-color="#F3CD0C"/>
<stop offset="1" stop-color="#F3CD0C" stop-opacity="0"/>
</linearGradient>
<radialGradient id="paint20_radial_116_62" cx="0" cy="0" r="1" gradientUnits="userSpaceOnUse" gradientTransform="translate(2373.13 3065.86) rotate(15) scale(135.218 121.541)">
<stop stop-color="#110800"/>
<stop offset="0.591" stop-color="#A65A00" stop-opacity="0.8"/>
<stop offset="1" stop-color="#FF921E" stop-opacity="0"/>
</radialGradient>
<radialGradient id="paint21_radial_116_62" cx="0" cy="0" r="1" gradientUnits="userSpaceOnUse" gradientTransform="translate(2373.13 2276.57) rotate(10.9628) scale(133.038 89.3047)">
<stop stop-color="#110800"/>
<stop offset="0.591" stop-color="#A65A00" stop-opacity="0.8"/>
<stop offset="1" stop-color="#FF921E" stop-opacity="0"/>
</radialGradient>
<radialGradient id="paint22_radial_116_62" cx="0" cy="0" r="1" gradientUnits="userSpaceOnUse" gradientTransform="translate(982.84 696.956) rotate(23.5217) scale(49.055 10.6056)">
<stop stop-color="#7C7C7C"/>
<stop offset="1" stop-color="#7C7C7C" stop-opacity="0.33"/>
</radialGradient>
<linearGradient id="paint23_linear_116_62" x1="2373.14" y1="1009.05" x2="2391.27" y2="1007.43" gradientUnits="userSpaceOnUse">
<stop stop-color="#7C7C7C"/>
<stop offset="1" stop-color="#7C7C7C" stop-opacity="0.33"/>
</linearGradient>
<linearGradient id="paint24_linear_116_62" x1="2204.4" y1="5162.91" x2="2983.45" y2="6484.34" gradientUnits="userSpaceOnUse">
<stop stop-color="#B98309"/>
<stop offset="1" stop-color="#382605"/>
</linearGradient>
<linearGradient id="paint25_linear_116_62" x1="955.652" y1="2895.2" x2="1106.21" y2="3051.46" gradientUnits="userSpaceOnUse">
<stop stop-color="#EBC40C"/>
<stop offset="1" stop-color="#EBC40C" stop-opacity="0"/>
</linearGradient>
<clipPath id="clip0_116_62">
<rect width="52" height="52" fill="white" transform="translate(157 179.692)"/>
</clipPath>
</defs>
</svg>
