<svg width="80" height="80" viewBox="0 0 80 80" fill="none" xmlns="http://www.w3.org/2000/svg">
<rect width="80" height="80" rx="40" fill="#A3A3A3"/>
<g clip-path="url(#clip0_1_279)">
<path d="M50.7651 32.4063C51.3318 33.6403 51.9644 34.8436 52.5266 36.08C53.6085 38.4594 54.4303 40.9716 54.7716 43.5628C55.1129 46.1541 54.9645 48.8299 54.1551 51.3144C53.2399 54.1191 51.5024 56.6142 49.3736 58.6563C46.8553 61.0722 43.6227 62.9347 40.1356 63.0722C37.8634 63.1617 35.6013 62.5121 33.5892 61.4529C31.8982 60.5629 30.3544 59.3769 29.1228 57.916C27.8911 56.4551 26.9766 54.7156 26.5531 52.8521C26.0316 50.5574 26.2677 48.1215 27.0569 45.9046C27.6213 44.3193 28.458 42.8433 29.0537 41.2694C29.7047 39.5497 30.0681 37.7134 30.9306 36.0894C31.7121 34.6168 32.8846 33.3591 33.5074 31.8127C33.8793 30.8891 34.0407 29.8972 34.2809 28.9308C34.5211 27.9644 34.8574 26.9911 35.5115 26.2403C36.3 25.3357 37.4859 24.8454 38.6776 24.7077C39.8694 24.5701 41.0758 24.756 42.2455 25.0228C43.1768 25.2351 44.0967 25.4988 44.9966 25.8189C45.7647 26.0922 46.5258 26.4104 47.1901 26.8831C48.0952 27.5272 48.7845 28.434 49.3336 29.3997C49.8828 30.3654 50.3031 31.3971 50.7668 32.4064L50.7651 32.4063Z" fill="#020204"/>
<path d="M40.7587 63.0941C41.716 63.1498 42.6716 63.2428 43.6202 63.386C44.4544 63.5127 45.2825 63.676 46.1023 63.8755C47.3864 64.1867 48.6659 64.5835 49.9867 64.6211C50.3343 64.6311 50.6829 64.6156 51.0241 64.54C51.3652 64.4645 51.6928 64.3268 51.9649 64.1101C52.3704 63.7869 52.6263 63.2993 52.7232 62.7895C52.8202 62.2797 52.7595 61.7493 52.6101 61.2525C52.3116 60.2594 51.6702 59.4119 51.1416 58.5205C50.8378 58.0102 50.5672 57.4796 50.2382 56.9853C49.9092 56.491 49.5158 56.028 49.0163 55.7059C48.3256 55.2607 47.4692 55.1155 46.6517 55.197C45.8341 55.2785 45.0503 55.5738 44.3207 55.9517C43.2979 56.4812 42.3352 57.2084 41.7776 58.2162C41.5836 58.567 41.4426 58.9438 41.2777 59.3093C41.1129 59.6749 40.9199 60.0345 40.6407 60.322C40.3291 60.6426 39.9249 60.8588 39.6028 61.1685C39.4418 61.3251 39.3008 61.5035 39.2198 61.7112C39.1389 61.9189 39.1168 62.1561 39.192 62.3665C39.2437 62.511 39.3382 62.6377 39.4548 62.7373C39.5714 62.8368 39.7093 62.9096 39.8539 62.9601C40.1429 63.0617 40.4544 63.0767 40.7603 63.0945L40.7587 63.0941Z" fill="#020204"/>
<path d="M37.913 63.0323C37.1151 63.0508 36.3256 63.1935 35.5458 63.355C34.7987 63.5094 34.0552 63.6814 33.3171 63.8751C32.0719 64.202 30.8251 64.5935 29.538 64.6208C29.1992 64.6278 28.8581 64.6095 28.5279 64.5331C28.1977 64.4567 27.8781 64.3207 27.6132 64.1094C27.2085 63.7867 26.9512 63.3 26.856 62.7914C26.7608 62.2828 26.819 61.7533 26.9666 61.2572C27.2619 60.2651 27.8953 59.4157 28.414 58.52C28.7087 58.0108 28.9688 57.4815 29.2875 56.987C29.6062 56.4925 29.99 56.0285 30.4815 55.7052C31.1513 55.2649 31.9866 55.1157 32.7843 55.1942C33.5821 55.2727 34.3465 55.5667 35.0501 55.951C36.0433 56.4936 36.9503 57.2401 37.5245 58.2138C37.9275 58.8979 38.1599 59.6803 38.6309 60.3196C38.8845 60.6639 39.2053 60.9612 39.4141 61.3331C39.5196 61.519 39.5969 61.7239 39.6148 61.9371C39.6328 62.1504 39.5887 62.3719 39.4686 62.549C39.3894 62.6661 39.2794 62.7608 39.1565 62.8306C39.0336 62.9004 38.898 62.9463 38.7597 62.975C38.4812 63.0328 38.1974 63.0238 37.9146 63.0308L37.913 63.0323ZM33.4547 29.8068C33.3426 28.4579 33.3676 27.1014 33.3189 25.7486C33.2705 24.4479 33.1507 23.1478 33.1944 21.8469C33.239 20.524 33.4607 19.1838 34.0498 17.9949C34.6388 16.8061 35.5954 15.8004 36.7625 15.1713C37.8591 14.5795 39.1238 14.3266 40.3715 14.3402C42.0633 14.3586 43.7594 14.8697 45.1292 15.8622C45.9882 16.4839 46.7106 17.2855 47.2804 18.1796C47.7666 18.9429 48.1443 19.7764 48.3814 20.6513C48.8675 22.4441 48.7521 24.3323 48.8468 26.1857C48.9364 27.9423 49.2176 29.6947 49.1218 31.451C49.1009 31.8339 49.0599 32.2228 48.8898 32.565C48.7241 32.8983 48.4428 33.1664 48.1196 33.3512C47.7964 33.5361 47.4326 33.6412 47.0648 33.6979C46.329 33.8114 45.5766 33.7366 44.8354 33.8053C43.7597 33.9051 42.7336 34.304 41.6661 34.4692C40.3955 34.6659 39.0975 34.5266 37.811 34.4751C37.2958 34.4546 36.7789 34.4481 36.2675 34.3839C35.7561 34.3197 35.2457 34.1959 34.7907 33.9533C34.5122 33.8039 34.2524 33.6095 34.0432 33.3702C33.8339 33.1309 33.6741 32.848 33.5946 32.5387C33.475 32.0769 33.538 31.5908 33.5398 31.1137C33.5415 30.6775 33.4907 30.2428 33.4527 29.8082L33.4547 29.8068Z" fill="#020204"/>
<path d="M35.4792 29.2871C35.2971 29.5151 35.1784 29.7896 35.1067 30.0728C35.035 30.356 35.0089 30.6486 34.9976 30.9403C34.9753 31.5239 35.0108 32.1187 34.8566 32.682C34.6912 33.2842 34.3212 33.8057 33.9588 34.3143C33.3313 35.195 32.6968 36.0984 32.3875 37.1344C32.2001 37.7619 32.1376 38.4265 32.2051 39.0778C31.5028 40.1093 30.8944 41.2048 30.3909 42.3467C29.6274 44.0772 29.1035 45.9196 28.9192 47.8017C28.6936 50.1066 28.9885 52.4773 29.8986 54.6069C30.5566 56.1467 31.5379 57.5562 32.803 58.6533C33.4462 59.2112 34.1607 59.6872 34.9265 60.0627C37.5745 61.3641 40.8468 61.3664 43.4508 59.9791C44.8116 59.254 45.9604 58.1936 47.0678 57.1207C47.7348 56.4746 48.3983 55.8132 48.9071 55.0362C49.8865 53.5406 50.2277 51.7228 50.4397 49.9477C50.8104 46.8437 50.8222 43.5649 49.4614 40.7507C48.9915 39.7799 48.3698 38.8903 47.6197 38.1153C47.4204 36.7611 47.0269 35.4352 46.4549 34.1916C46.0424 33.2943 45.5379 32.4402 45.1547 31.5302C44.9973 31.1565 44.8588 30.7739 44.6859 30.408C44.5131 30.0422 44.296 29.69 44.0029 29.4098C43.703 29.1226 43.3293 28.9193 42.9349 28.7891C42.5405 28.6589 42.1255 28.5999 41.7112 28.579C40.8818 28.5372 40.0507 28.6457 39.2211 28.6128C38.5606 28.5867 37.9021 28.4708 37.2421 28.5097C36.912 28.5292 36.5824 28.5881 36.276 28.7125C35.9697 28.837 35.6874 29.0288 35.4813 29.2869L35.4792 29.2871Z" fill="#FDFDFB"/>
<g filter="url(#filter0_f_1_279)">
<path d="M35.0725 32.3829C35.3689 33.2424 35.9655 33.9759 36.6714 34.5489C36.9064 34.7395 37.1557 34.9152 37.4314 35.0393C37.7071 35.1634 38.0114 35.2342 38.3125 35.2084C38.6075 35.1834 38.8881 35.0675 39.1462 34.9219C39.4044 34.7764 39.6433 34.6004 39.8935 34.4421C40.3222 34.1705 40.7812 33.9512 41.2263 33.7075C41.7627 33.4139 42.2828 33.0809 42.7345 32.6701C42.9413 32.4813 43.1341 32.2754 43.3625 32.1131C43.5909 31.9509 43.8643 31.8336 44.1437 31.8526C44.3532 31.8668 44.5498 31.956 44.755 32.0002C44.8594 32.0223 44.9638 32.0332 45.0678 32.0172C45.1717 32.0012 45.2732 31.9573 45.3459 31.8815C45.435 31.7887 45.474 31.6552 45.4677 31.5264C45.4615 31.3976 45.4183 31.2735 45.3581 31.1596C45.238 30.932 45.0561 30.7358 44.9752 30.4916C44.9031 30.274 44.9177 30.039 44.924 29.8103C44.9303 29.5816 44.9254 29.3421 44.8195 29.139C44.7391 28.984 44.6044 28.8613 44.4502 28.7797C44.296 28.6981 44.123 28.6579 43.9496 28.6398C43.6023 28.6072 43.2544 28.6746 42.9063 28.6942C42.444 28.7203 41.9799 28.6626 41.5178 28.6904C40.9417 28.7252 40.3765 28.8923 39.7991 28.8934C39.1401 28.8946 38.4818 28.6789 37.8309 28.782C37.5515 28.8262 37.2852 28.9278 37.017 29.0173C36.7487 29.1068 36.4716 29.1856 36.1889 29.1816C35.868 29.1769 35.5571 29.0659 35.2368 29.0429C35.0767 29.0314 34.9127 29.0429 34.7623 29.0991C34.612 29.1553 34.476 29.2599 34.4024 29.4025C34.3601 29.4843 34.3392 29.576 34.3352 29.6679C34.3312 29.7598 34.3439 29.8519 34.3662 29.9412C34.4106 30.1198 34.4922 30.2864 34.5577 30.4576C34.8001 31.0763 34.8522 31.754 35.0689 32.3821L35.0725 32.3829Z" fill="black" fill-opacity="0.26"/>
</g>
<g opacity="0.3" filter="url(#filter1_f_1_279)">
<path d="M34.2461 29.9333C34.8219 30.2892 35.3386 30.726 35.7726 31.2243C36.1752 31.6866 36.5176 32.2109 37.0432 32.5534C37.4145 32.7951 37.8604 32.9314 38.3128 32.9728C38.844 33.0214 39.3815 32.9428 39.8936 32.8041C40.3683 32.6755 40.8271 32.4947 41.2482 32.2558C42.0485 31.8011 42.7172 31.1346 43.598 30.8358C43.7907 30.7705 43.9914 30.7239 44.1771 30.6434C44.3628 30.5629 44.5374 30.4423 44.6262 30.2717C44.7132 30.1079 44.708 29.9187 44.7358 29.7387C44.7654 29.5463 44.8322 29.36 44.8688 29.1685C44.9053 28.9771 44.9097 28.7722 44.8201 28.5962C44.7456 28.4503 44.6103 28.3351 44.4545 28.2619C44.2987 28.1886 44.1238 28.1554 43.9491 28.1474C43.5999 28.1314 43.2549 28.2139 42.9068 28.2433C42.4455 28.2821 41.9811 28.2272 41.5183 28.2401C40.9425 28.2561 40.3751 28.3763 39.7996 28.4012C39.1431 28.4297 38.4883 28.3342 37.8314 28.313C37.5473 28.3037 37.2613 28.3082 36.9813 28.3536C36.7012 28.399 36.4263 28.4854 36.1893 28.6303C35.9595 28.7709 35.7721 28.9617 35.5614 29.1257C35.4561 29.2078 35.3442 29.2836 35.2213 29.3414C35.0984 29.3991 34.9637 29.4384 34.8262 29.4445C34.7554 29.4477 34.6838 29.442 34.6139 29.452C34.5552 29.4611 34.499 29.4808 34.4486 29.51C34.3982 29.5392 34.3546 29.5772 34.3203 29.622C34.286 29.6668 34.2616 29.7174 34.2486 29.7709C34.2357 29.8244 34.2343 29.8798 34.2447 29.9338L34.2461 29.9333Z" fill="black"/>
</g>
<path d="M35.7451 22.0719C35.4353 22.0888 35.1385 22.2321 34.9117 22.4439C34.6849 22.6557 34.5253 22.9333 34.4268 23.2279C34.2301 23.8169 34.2745 24.4553 34.3189 25.0729C34.3594 25.6337 34.4007 26.2052 34.6108 26.7268C34.7157 26.9876 34.8631 27.2316 35.0598 27.4342C35.2565 27.6368 35.504 27.7896 35.7766 27.8579C36.0325 27.9219 36.3054 27.9087 36.5569 27.8297C36.8084 27.7506 37.038 27.6069 37.2264 27.4227C37.5014 27.1538 37.6864 26.802 37.7926 26.4323C37.8987 26.0626 37.929 25.6748 37.9235 25.2905C37.9165 24.8094 37.8538 24.3262 37.7031 23.8694C37.5524 23.4127 37.3122 22.9812 36.9768 22.636C36.8144 22.469 36.629 22.3219 36.4198 22.2188C36.2105 22.1158 35.9771 22.0578 35.7444 22.0704L35.7451 22.0719Z" fill="url(#paint0_radial_1_279)"/>
<path d="M41.2311 22.0719C40.7472 22.4027 40.3417 22.8683 40.1432 23.4209C39.8933 24.1175 39.989 24.8969 40.2303 25.5967C40.4774 26.3133 40.8907 26.9961 41.5148 27.4264C41.8269 27.6415 42.1881 27.789 42.5644 27.8337C42.9407 27.8784 43.332 27.8172 43.668 27.6422C44.0775 27.4288 44.39 27.0551 44.5839 26.6362C44.7778 26.2172 44.8606 25.7537 44.8864 25.2924C44.9212 24.705 44.862 24.1078 44.6688 23.5518C44.4591 22.9478 44.077 22.3908 43.5421 22.0432C43.2741 21.8695 42.9691 21.7501 42.6527 21.7064C42.3362 21.6627 42.0078 21.6955 41.71 21.8112C41.5403 21.8773 41.3815 21.9691 41.2313 22.0723L41.2311 22.0719Z" fill="url(#paint1_radial_1_279)"/>
<g opacity="0.3" filter="url(#filter2_f_1_279)">
<path d="M35.6421 27.0835L34.7481 27.899C34.5908 28.0574 34.4331 28.2269 34.3626 28.4385C34.2999 28.6265 34.3118 28.8307 34.2808 29.0269C34.2703 29.0941 34.2547 29.1609 34.2543 29.2288C34.2537 29.2628 34.2583 29.2967 34.2679 29.3294C34.2778 29.3619 34.294 29.3926 34.3175 29.4175C34.3561 29.4587 34.4111 29.4812 34.4665 29.4923C34.5219 29.5034 34.5788 29.5048 34.635 29.5109C34.8884 29.5383 35.122 29.6611 35.3319 29.806L35.9498 30.2559C36.425 30.5577 36.993 30.6919 37.5557 30.7133C38.1185 30.7348 38.6798 30.6489 39.2319 30.5384C39.6706 30.4507 40.1081 30.3469 40.5243 30.1826C41.1619 29.9313 41.7365 29.5444 42.2855 29.1344C42.5349 28.9482 42.7808 28.7562 43.0049 28.54C43.0809 28.4666 43.1545 28.3903 43.236 28.3231C43.3175 28.256 43.408 28.1975 43.5086 28.1651C43.6618 28.1158 43.8282 28.1299 43.9869 28.1564C44.1065 28.1764 44.2264 28.2034 44.3476 28.1982C44.4081 28.1957 44.4689 28.1853 44.5251 28.1627C44.5813 28.14 44.6334 28.1052 44.6718 28.0582C44.722 27.9954 44.7492 27.9173 44.7488 27.8368C44.7491 27.7571 44.7244 27.6784 44.6844 27.6097C44.6034 27.4722 44.4636 27.3794 44.318 27.3146C44.1185 27.2259 43.9027 27.1824 43.6903 27.1308C43.0384 26.9735 42.4049 26.7409 41.8042 26.4426C41.5055 26.2943 41.2152 26.13 40.9213 25.9726C40.6192 25.8108 40.3113 25.6552 39.9832 25.5558C39.2498 25.3335 38.448 25.4064 37.7244 25.6578C36.9202 25.937 36.1932 26.4346 35.6416 27.083L35.6421 27.0835Z" fill="black"/>
</g>
<path d="M37.2016 26.1624C37.5092 25.8165 37.7196 25.3947 38.0152 25.0384C38.1631 24.8604 38.3334 24.6982 38.5342 24.5829C38.7351 24.4677 38.968 24.4019 39.1986 24.4218C39.4552 24.444 39.6956 24.5718 39.8834 24.7481C40.0712 24.9244 40.2106 25.1485 40.322 25.3791C40.4285 25.6015 40.5131 25.8386 40.6666 26.0318C40.8303 26.2379 41.06 26.3785 41.2672 26.5406C41.3709 26.6215 41.4703 26.7094 41.5523 26.8121C41.6342 26.9148 41.6985 27.0342 41.7246 27.1632C41.7503 27.2952 41.7391 27.4317 41.6924 27.5578C41.6468 27.6831 41.5693 27.7966 41.4731 27.8892C41.2806 28.0746 41.0181 28.1747 40.7535 28.2121C40.2244 28.2869 39.6891 28.1292 39.1549 28.1442C38.6141 28.159 38.0859 28.3503 37.5452 28.3304C37.2749 28.3205 37.0008 28.2546 36.7787 28.1002C36.6667 28.0234 36.572 27.9241 36.5009 27.8084C36.4309 27.6927 36.3882 27.5595 36.3837 27.4245C36.3794 27.2957 36.4095 27.1669 36.461 27.0485C36.5125 26.9301 36.5851 26.8219 36.6667 26.722C36.8304 26.5221 37.03 26.3554 37.2015 26.1625L37.2016 26.1624Z" fill="url(#paint2_radial_1_279)"/>
<g filter="url(#filter3_f_1_279)">
<path d="M43.2315 16.5868C42.7853 16.9017 42.9802 17.2948 43.1721 17.6895C43.3641 18.0842 42.7502 19.2217 42.7436 19.2707C42.7369 19.3196 43.9519 18.6941 44.283 18.2875C44.6741 17.8076 45.6622 18.9369 45.6087 18.7649C45.6091 18.4574 43.6779 16.272 43.2317 16.5868H43.2315Z" fill="#7C7C7C"/>
</g>
<path d="M42.3472 23.5332C42.1653 23.5462 41.988 23.6084 41.8337 23.7072C41.6795 23.8061 41.5478 23.9361 41.4444 24.0867C41.2378 24.3875 41.1467 24.7563 41.1323 25.1206C41.1213 25.3942 41.1514 25.6715 41.2423 25.93C41.3331 26.1885 41.486 26.4278 41.6971 26.6024C41.9129 26.7811 42.1873 26.8885 42.4673 26.9018C42.7474 26.915 43.0313 26.8344 43.261 26.6743C43.4443 26.5467 43.5921 26.3711 43.6974 26.1742C43.8027 25.9773 43.8662 25.7594 43.895 25.538C43.9461 25.1469 43.8883 24.7385 43.7075 24.388C43.5266 24.0374 43.2201 23.7487 42.8499 23.6124C42.6898 23.5532 42.5174 23.5226 42.3472 23.5347V23.5332Z" fill="#020204"/>
<g filter="url(#filter4_f_1_279)">
<path d="M42.7814 24.7264C42.6306 24.7859 42.392 24.7485 42.326 24.8964C42.2868 24.9842 42.3422 25.1284 42.431 25.1645C42.6106 25.2376 42.8891 25.1053 42.9618 24.9251C42.9932 24.8468 42.9457 24.7232 42.8679 24.6902C42.8391 24.678 42.8104 24.7145 42.7815 24.726L42.7814 24.7264Z" fill="#141413"/>
</g>
<g filter="url(#filter5_f_1_279)">
<path d="M43.4721 25.118C43.6741 24.9161 43.3284 24.38 43.0588 24.1607C42.8635 24.0017 42.2946 23.8352 42.319 24.0084C42.3434 24.1816 42.5975 24.4028 42.7707 24.5718C42.9816 24.7798 43.3764 25.2141 43.4721 25.118Z" fill="url(#paint3_linear_1_279)"/>
</g>
<mask id="mask0_1_279" style="mask-type:luminance" maskUnits="userSpaceOnUse" x="39" y="21" width="6" height="7">
<path d="M41.2312 22.0719C40.7878 22.4422 40.3247 22.8726 40.1433 23.4209C39.9153 24.1102 39.859 24.973 40.2303 25.5966C40.9126 26.7423 42.3859 28.0074 43.668 27.6419C44.5165 27.3999 44.731 26.1623 44.8864 25.292C44.9891 24.7164 44.9902 24.04 44.6688 23.5514C44.0401 22.5953 42.8539 21.8293 41.7098 21.8108C41.5281 21.8079 41.3704 21.9553 41.2312 22.0719Z" fill="white"/>
</mask>
<g mask="url(#mask0_1_279)">
<path d="M39.4035 23.8343C39.8199 23.4888 40.3003 23.2286 40.8172 23.0684C41.8765 22.7412 43.08 22.8705 44.0161 23.4644C44.3393 23.6695 44.6274 23.9243 44.9281 24.1614C45.2289 24.3984 45.5478 24.6209 45.9091 24.7479C46.1041 24.8165 46.3126 24.8564 46.5184 24.835C46.7043 24.8155 46.8839 24.7458 47.0378 24.64C47.1916 24.5342 47.3206 24.3932 47.4172 24.2332C47.6108 23.9135 47.6731 23.5257 47.6397 23.1535C47.573 22.4091 47.153 21.7518 46.801 21.0927C46.6909 20.8862 46.5859 20.6761 46.4529 20.4835C46.0451 19.8924 45.3958 19.5025 44.7149 19.2741C44.034 19.0457 43.3144 18.9632 42.6018 18.8734C42.284 18.8334 41.9625 18.7916 41.6445 18.8299C41.279 18.8739 40.935 19.0214 40.5784 19.1127C40.409 19.1563 40.2365 19.1867 40.0687 19.2353C39.9009 19.2838 39.7358 19.3519 39.5993 19.4609C39.4 19.6203 39.2747 19.8595 39.2204 20.1089C39.1661 20.3583 39.1786 20.6178 39.2183 20.8699C39.298 21.374 39.4863 21.8662 39.4686 22.3762C39.4564 22.7264 39.3464 23.0703 39.3598 23.4206C39.3638 23.525 39.3784 23.6254 39.4033 23.7252" fill="url(#paint4_linear_1_279)"/>
</g>
<g filter="url(#filter6_f_1_279)">
<path d="M42.9119 20.6382C42.8289 20.7427 42.7539 20.8561 42.6943 20.9811C43.0679 21.0615 43.4254 21.2154 43.7439 21.4272C44.361 21.837 44.8295 22.4361 45.1582 23.1026C45.2347 23.0176 45.3047 22.9264 45.3649 22.8251C45.0346 22.131 44.5566 21.5031 43.9182 21.0793C43.6115 20.8756 43.2698 20.7218 42.9121 20.6389L42.9119 20.6382Z" fill="url(#paint5_linear_1_279)"/>
</g>
<g filter="url(#filter7_f_1_279)">
<path d="M35.7099 20.9785C35.6678 20.9776 35.6269 20.9814 35.5846 20.9833L35.5028 20.9882C35.7488 21.0105 35.9933 21.0766 36.2154 21.1762C36.5183 21.312 36.7853 21.5057 37.0204 21.7262C37.4563 22.1344 37.7802 22.6383 37.9995 23.1727C37.9459 22.7689 37.8246 22.377 37.6406 22.0136C37.5546 21.9144 37.4655 21.8169 37.3687 21.7264C37.1338 21.5061 36.8664 21.3125 36.5637 21.1764C36.2991 21.0575 36.0043 20.9835 35.7098 20.9783L35.7099 20.9785Z" fill="url(#paint6_linear_1_279)"/>
</g>
<path d="M34.9981 24.6393C34.9333 25.0303 34.9309 25.4403 35.0652 25.813C35.1523 26.0591 35.3002 26.2824 35.4781 26.4744C35.5947 26.6001 35.7267 26.7143 35.8812 26.7883C36.0358 26.8622 36.2147 26.8937 36.3808 26.8521C36.534 26.8139 36.6683 26.7146 36.7672 26.5916C36.8661 26.4685 36.9322 26.3213 36.9792 26.1704C37.1179 25.7248 37.0958 25.237 36.958 24.7911C36.8575 24.4661 36.6913 24.1526 36.4311 23.9335C36.307 23.8291 36.1616 23.7473 36.0038 23.7095C35.8459 23.6717 35.6748 23.6808 35.5272 23.7478C35.3632 23.8223 35.2362 23.9641 35.153 24.1238C35.0698 24.2834 35.0271 24.4614 34.9977 24.639L34.9981 24.6393Z" fill="#020204"/>
<g filter="url(#filter8_f_1_279)">
<path d="M35.8245 24.3565C35.8666 24.4668 36.008 24.5069 36.0856 24.5958C36.161 24.6823 36.24 24.7716 36.2814 24.8787C36.3606 25.0833 36.2031 25.3869 36.3685 25.5314C36.4203 25.5766 36.5242 25.5777 36.5752 25.5314C36.7745 25.35 36.7302 24.9841 36.6515 24.7264C36.5801 24.4924 36.4031 24.271 36.185 24.1598C36.084 24.1084 35.9326 24.0658 35.8463 24.1389C35.7906 24.1859 35.7986 24.2886 35.8245 24.3565Z" fill="url(#paint7_linear_1_279)"/>
</g>
<path d="M34.269 29.4991C34.2795 29.5504 34.2992 29.6 34.326 29.6453C34.3723 29.7227 34.4398 29.7856 34.5127 29.8385C34.5857 29.8914 34.6647 29.936 34.7411 29.9838C35.1473 30.2392 35.4782 30.5983 35.7724 30.9772C36.167 31.4858 36.516 32.0503 37.043 32.4202C37.4152 32.6812 37.8604 32.8301 38.3126 32.8755C38.8435 32.9289 39.3814 32.8431 39.8934 32.6924C40.3679 32.5526 40.8269 32.3564 41.248 32.0971C42.0487 31.6035 42.7171 30.8799 43.5978 30.5554C43.7905 30.4846 43.9912 30.434 44.1767 30.3466C44.3623 30.2592 44.537 30.1283 44.6258 29.9431C44.7128 29.7652 44.7076 29.5598 44.7355 29.3644C44.765 29.1555 44.8319 28.9532 44.8684 28.7454C44.905 28.5376 44.9093 28.3151 44.8197 28.124C44.7452 27.9656 44.61 27.8406 44.4542 27.7611C44.2984 27.6815 44.1235 27.6455 43.9487 27.6368C43.5995 27.6194 43.2546 27.709 42.9064 27.7409C42.4452 27.783 41.9808 27.7238 41.518 27.7374C40.9422 27.7548 40.3747 27.8845 39.7993 27.9123C39.1427 27.9442 38.4877 27.8427 37.831 27.8166C37.5466 27.8051 37.2601 27.8079 36.9795 27.8558C36.6989 27.9036 36.4234 27.9992 36.1893 28.1609C35.9613 28.3186 35.7792 28.5334 35.5696 28.7151C35.4648 28.806 35.352 28.8892 35.2274 28.9496C35.1028 29.01 34.9651 29.0477 34.8264 29.0448C34.7568 29.043 34.6819 29.0314 34.614 29.053C34.5716 29.0664 34.534 29.0925 34.5019 29.1236C34.4699 29.1548 34.4436 29.191 34.4187 29.2281C34.3608 29.314 34.3104 29.4047 34.2678 29.4992L34.269 29.4991Z" fill="url(#paint8_radial_1_279)"/>
<g filter="url(#filter9_f_1_279)">
<path d="M36.846 30.2066C36.7809 30.4876 36.8222 30.7826 36.9619 31.0348C37.1016 31.2871 37.3298 31.4786 37.6025 31.5725C37.9468 31.6874 38.3347 31.631 38.6564 31.4632C38.8426 31.3657 39.0132 31.2289 39.1211 31.0482C39.1757 30.9579 39.2116 30.8575 39.2265 30.753C39.2404 30.6486 39.2308 30.5407 39.1942 30.4423C39.1542 30.3344 39.0829 30.239 38.9948 30.1645C38.9067 30.09 38.8024 30.0361 38.6931 29.9999C38.4742 29.9275 38.2388 29.9261 38.0084 29.9372C37.6592 29.954 37.3118 29.9978 36.9694 30.0683" fill="#D9B30D"/>
</g>
<g filter="url(#filter10_f_1_279)">
<path d="M35.7162 28.0453L35.0378 28.4914C34.9234 28.5726 34.8056 28.6603 34.7453 28.7866C34.7025 28.8763 34.6928 28.9781 34.6931 29.0773C34.6935 29.1765 34.6983 29.2765 34.6851 29.3732C34.6764 29.4404 34.6583 29.5066 34.6552 29.5743C34.6534 29.6082 34.656 29.6422 34.6649 29.6752C34.6734 29.7082 34.6898 29.7386 34.7128 29.7638C34.7429 29.7957 34.7838 29.8153 34.8259 29.8282C34.868 29.8411 34.9112 29.8474 34.954 29.8578C35.1586 29.9059 35.3364 30.0314 35.4926 30.1718L35.9521 30.6028C36.3937 30.9621 36.979 31.111 37.5465 31.1203C38.1139 31.1295 38.6786 31.0106 39.234 30.8853L40.5264 30.5295C41.1709 30.2919 41.7692 29.9321 42.2875 29.4813C42.5225 29.277 42.7431 29.0524 43.0069 28.8869C43.2402 28.7403 43.5018 28.6436 43.739 28.5035C43.7603 28.4909 43.7813 28.478 43.8003 28.4622C43.8193 28.4464 43.8362 28.4277 43.8473 28.4056C43.8664 28.3673 43.8664 28.3221 43.8543 28.281C43.8421 28.2399 43.8184 28.2037 43.7916 28.1706C43.762 28.1341 43.7284 28.1007 43.6924 28.07C43.4445 27.8577 43.1081 27.7808 42.7827 27.755C42.4574 27.7292 42.1283 27.7475 41.808 27.6937C41.5051 27.6415 41.2174 27.5301 40.9252 27.4366C40.6186 27.3375 40.305 27.2613 39.9872 27.2086C39.2396 27.0868 38.4699 27.1101 37.7284 27.2643C37.022 27.4114 36.3411 27.6768 35.7197 28.0441L35.7162 28.0453Z" fill="#604405"/>
</g>
<path d="M35.642 27.2576C35.3061 27.4838 35.0039 27.7594 34.7481 28.073C34.6018 28.2523 34.4689 28.4473 34.3952 28.6669C34.3373 28.8396 34.3176 29.0223 34.2811 29.2008C34.2671 29.2676 34.2515 29.3348 34.2515 29.4027C34.2516 29.4368 34.256 29.4711 34.2664 29.5036C34.2769 29.5362 34.2939 29.5666 34.3176 29.5912C34.3568 29.6319 34.4116 29.6538 34.467 29.6653C34.5223 29.6768 34.579 29.6784 34.6351 29.6848C34.8884 29.7135 35.1214 29.8366 35.3313 29.9811L35.9499 30.4298C36.4258 30.7309 36.9934 30.8646 37.556 30.8864C38.1186 30.9081 38.6799 30.8227 39.2322 30.7123C39.6708 30.6247 40.1084 30.5208 40.5246 30.3565C41.162 30.1052 41.7368 29.7182 42.2857 29.3083C42.5352 29.1221 42.7811 28.9301 43.0051 28.7139C43.0812 28.6405 43.1548 28.5642 43.2363 28.497C43.3177 28.4298 43.4083 28.3714 43.5089 28.339C43.662 28.2897 43.8284 28.3038 43.9872 28.3303C44.1068 28.3503 44.2267 28.3773 44.3478 28.3721C44.4084 28.3696 44.4692 28.3592 44.5254 28.3366C44.5816 28.3139 44.6336 28.2791 44.6721 28.2321C44.7223 28.1693 44.7495 28.0911 44.749 28.0107C44.7494 27.931 44.7247 27.8523 44.6846 27.7836C44.6037 27.6461 44.4639 27.5533 44.3182 27.4885C44.1188 27.3998 43.9029 27.3562 43.6906 27.3047C43.0387 27.1474 42.4051 26.9148 41.8045 26.6165C41.5058 26.4682 41.2154 26.3039 40.9216 26.1465C40.6195 25.9846 40.3115 25.829 39.9834 25.7297C39.2501 25.5074 38.4482 25.5803 37.7247 25.8317C36.9205 26.1108 36.1935 26.6085 35.6419 27.2569L35.642 27.2576Z" fill="url(#paint9_linear_1_279)"/>
<g filter="url(#filter11_f_1_279)">
<path d="M40.7943 27.4187C40.7549 27.369 40.6985 27.3338 40.6376 27.316C40.5767 27.2983 40.5114 27.2986 40.4489 27.3073C40.3236 27.3287 40.2115 27.3944 40.1067 27.4683C39.8091 27.673 39.5462 27.9258 39.317 28.2046C39.0133 28.5736 38.7626 29.0004 38.6785 29.4709C38.6646 29.5501 38.6551 29.631 38.665 29.7111C38.6749 29.7912 38.7055 29.8704 38.7624 29.9275C38.8122 29.9776 38.8801 30.0082 38.9501 30.0183C39.0201 30.0284 39.0921 30.0187 39.159 29.996C39.293 29.9508 39.4044 29.8568 39.5095 29.7628C40.0902 29.2432 40.6153 28.6196 40.8254 27.869C40.8463 27.7937 40.8644 27.7166 40.8637 27.6384C40.863 27.5602 40.8426 27.48 40.7943 27.4187Z" fill="#F6DA4A"/>
</g>
<g opacity="0.8" filter="url(#filter12_f_1_279)">
<path d="M39.4035 26.343C39.4436 26.4722 39.6521 26.451 39.7725 26.5127C39.8782 26.5671 39.963 26.6863 40.0818 26.6898C40.195 26.6932 40.3715 26.6506 40.3864 26.5383C40.4059 26.3899 40.1891 26.2955 40.0496 26.241C39.8703 26.1711 39.6401 26.1356 39.4718 26.2292C39.4331 26.2506 39.391 26.3009 39.4042 26.3432L39.4035 26.343Z" fill="url(#paint10_radial_1_279)"/>
</g>
<g opacity="0.8" filter="url(#filter13_f_1_279)">
<path d="M37.4152 26.2682C37.2607 26.2177 37.005 26.4904 37.0883 26.6302C37.1113 26.6685 37.1815 26.7172 37.2286 26.6911C37.3 26.652 37.3581 26.5119 37.4352 26.457C37.4868 26.4205 37.4753 26.2878 37.415 26.2683L37.4152 26.2682Z" fill="url(#paint11_radial_1_279)"/>
</g>
<g filter="url(#filter14_f_1_279)">
<path d="M44.2309 28.9213C44.5056 28.9213 44.7591 28.6459 44.7972 28.3061C44.8353 27.9664 44.6435 27.691 44.3688 27.691C44.0941 27.691 43.8406 27.9664 43.8025 28.3061C43.7644 28.6459 43.9562 28.9213 44.2309 28.9213Z" fill="url(#paint12_linear_1_279)"/>
</g>
<mask id="mask1_1_279" style="mask-type:luminance" maskUnits="userSpaceOnUse" x="34" y="21" width="4" height="8">
<path d="M35.7451 22.0719C35.0851 22.9057 34.2625 24.1067 34.319 25.0745C34.3756 26.0423 34.9909 27.5 35.7768 27.8594C36.5627 28.2189 36.7783 27.8617 37.2267 27.4243C37.6751 26.9869 37.8986 26.1453 37.924 25.2921C37.9494 24.4388 37.3957 23.2173 36.9771 22.6376C36.5585 22.058 36.405 21.2382 35.7448 22.0719H35.7451Z" fill="white"/>
</mask>
<g mask="url(#mask1_1_279)">
<path d="M35.0767 23.3191C35.5441 23.0406 36.1132 22.9762 36.6549 23.0273C37.1966 23.0785 37.721 23.2376 38.2458 23.3807C38.6308 23.4855 39.0207 23.5826 39.3816 23.7528C39.7424 23.9231 40.0778 24.1734 40.2766 24.5192L40.3706 24.6867C40.4043 24.741 40.4442 24.7928 40.4952 24.8311C40.5462 24.8694 40.6096 24.8945 40.6734 24.891C40.7055 24.8893 40.7372 24.8806 40.7647 24.8642C40.7922 24.8478 40.8157 24.8242 40.8304 24.796C40.8475 24.7634 40.8527 24.7257 40.8508 24.6888C40.8479 24.652 40.8411 24.6157 40.8304 24.5805C40.699 24.1013 40.3892 23.6949 40.1534 23.2576L39.7534 22.4576C39.2629 21.5595 38.4577 20.8535 37.5428 20.3956C36.6279 19.9376 35.606 19.7174 34.5843 19.6575C33.4007 19.5883 32.2136 19.7289 31.0457 19.9343C30.5391 20.0234 30.0257 20.1284 29.5773 20.3802C29.3533 20.5061 29.1479 20.6687 28.9876 20.8693C28.8273 21.07 28.7132 21.3106 28.6763 21.5651C28.6408 21.8105 28.6781 22.0629 28.7634 22.2954C28.8487 22.528 28.9823 22.7407 29.1388 22.9328C29.4516 23.3172 29.8525 23.6176 30.2218 23.9476C30.5912 24.2776 30.9355 24.6425 31.3468 24.9159C31.5532 25.0525 31.7772 25.1657 32.0157 25.2322C32.2542 25.2987 32.5083 25.3175 32.7509 25.2677C33.0024 25.2162 33.2353 25.0927 33.4392 24.9366C33.643 24.7805 33.8197 24.592 33.9871 24.3974C34.3222 24.0082 34.6351 23.5817 35.0762 23.3189L35.0767 23.3191Z" fill="url(#paint13_radial_1_279)"/>
</g>
<path d="M51.562 40.0154C52.6212 40.8675 53.2932 42.154 53.501 43.4972C53.6633 44.545 53.5578 45.6198 53.3217 46.6532C53.0857 47.6866 52.7209 48.6856 52.3588 49.6819C52.2144 50.0793 52.0696 50.4803 52.0121 50.8991C51.9547 51.3179 51.9912 51.7614 52.1931 52.1328C52.4246 52.5586 52.8568 52.8517 53.3214 52.9897C53.78 53.126 54.2753 53.1231 54.7396 53.0075C55.204 52.8919 55.6373 52.6658 56.0152 52.3722C56.9753 51.6267 57.5545 50.4662 57.7787 49.2718C58.0029 48.0774 57.8999 46.8437 57.6917 45.6461C57.4075 44.0134 56.929 42.4173 56.3201 40.8755C55.8723 39.7415 55.3482 38.6266 54.6161 37.6519C53.8995 36.698 52.9961 35.8951 52.2941 34.9305C51.8062 34.2603 51.4154 33.5119 50.8309 32.9242C50.5385 32.6304 50.1974 32.3791 49.811 32.2289C49.4245 32.0786 48.9906 32.0346 48.5917 32.1471C48.066 32.295 47.6343 32.7093 47.4075 33.2057C47.1807 33.7021 47.139 34.2715 47.2279 34.8105C47.3428 35.5059 47.6606 36.1513 48.0192 36.7583C48.4242 37.4435 48.8933 38.1032 49.505 38.6127C50.1432 39.1445 50.9152 39.4952 51.5623 40.0156L51.562 40.0154Z" fill="#020204"/>
<mask id="mask2_1_279" style="mask-type:luminance" maskUnits="userSpaceOnUse" x="47" y="32" width="11" height="22">
<path d="M51.5619 40.0155C52.628 40.8724 53.2944 42.1594 53.501 43.4972C53.8245 45.5911 53.0853 47.6877 52.3588 49.6821C52.214 50.0798 52.0682 50.4827 52.0106 50.8996C51.953 51.3165 51.9893 51.7609 52.1931 52.133C52.424 52.5551 52.8544 52.851 53.3214 52.9899C53.7803 53.1264 54.2772 53.1222 54.7417 53.0059C55.2061 52.8897 55.6383 52.6634 56.0152 52.3723C56.9863 51.6239 57.5672 50.4601 57.7873 49.2664C58.0074 48.0727 57.9007 46.8418 57.6898 45.6463C57.4022 44.0154 56.9261 42.4192 56.3183 40.8757C55.8721 39.7431 55.3493 38.6285 54.6139 37.6521C53.8969 36.7 52.9903 35.8941 52.292 34.9306C51.8078 34.2616 51.4237 33.5155 50.8403 32.9276C50.5486 32.6334 50.2064 32.3819 49.8178 32.2313C49.4292 32.0808 48.9913 32.0357 48.5892 32.1474C48.3226 32.2216 48.0768 32.3627 47.8737 32.5478C47.6706 32.7328 47.5099 32.9613 47.3965 33.2097C47.1697 33.7063 47.1347 34.2736 47.2255 34.8107C47.3424 35.504 47.6586 36.1498 48.0169 36.7584C48.4198 37.4429 48.8884 38.1022 49.5026 38.6129C50.1405 39.1432 50.9135 39.4961 51.5599 40.0158" fill="white"/>
</mask>
<g mask="url(#mask2_1_279)">
<g filter="url(#filter15_f_1_279)">
<path d="M49.0691 38.3737L49.3349 38.6131C49.9847 39.1448 50.3308 39.7418 50.9897 40.2626C52.068 41.1146 53.1622 42.5853 53.3738 43.9283C53.5389 44.9762 53.3206 45.5453 53.0539 46.7808C52.7872 48.0163 52.0314 49.7656 51.6232 50.9569C51.4601 51.4321 51.9528 51.2359 51.8883 51.7367C51.8559 51.9826 51.8538 52.2315 51.8821 52.478L51.8945 52.3349C51.973 51.6521 52.1821 50.9955 52.4101 50.3515C52.8485 49.1118 53.3518 47.8973 53.6988 46.6252C54.0457 45.3532 54.0071 44.4383 53.8264 43.3452C53.5987 41.9708 52.7991 40.7018 51.6668 39.864C50.8658 39.2717 49.9218 38.8919 49.0696 38.3737H49.0691Z" fill="#838384"/>
</g>
</g>
<g opacity="0.25" filter="url(#filter16_f_1_279)">
<path d="M32.5571 37.6035C32.734 37.8688 32.4472 38.7833 36.5683 38.1979C36.5683 38.1979 35.8446 38.2775 35.1311 38.4423C34.022 38.8136 33.0556 39.2285 32.3102 39.7782C31.5716 40.3216 31.031 41.0309 30.3533 41.6401C30.3533 41.6401 31.4507 39.635 31.7241 39.0315C31.9976 38.428 31.6783 38.4571 31.8949 37.567C32.1115 36.6768 32.6409 35.8251 32.6409 35.8251C32.6409 35.8251 32.2086 37.0801 32.5571 37.6033V37.6035Z" fill="url(#paint14_radial_1_279)"/>
</g>
<g opacity="0.42" filter="url(#filter17_f_1_279)">
<path d="M45.8089 37.3642C44.9691 37.949 44.477 37.8799 43.4579 37.9943C42.4388 38.1086 39.6812 38.0674 39.6812 38.0674C39.6812 38.0674 40.0804 38.0599 40.9654 38.2247C41.8503 38.3896 43.6551 38.5471 44.6715 38.934C45.6878 39.321 46.0584 39.4313 46.6761 39.8217C47.5551 40.3777 48.2005 41.2485 49.0411 41.8577C49.0411 41.8577 49.0818 41.0494 48.7424 40.4457C48.403 39.8421 47.4891 38.8905 47.2225 38.0019C46.9558 37.1133 46.8267 35.368 46.8267 35.368C46.8267 35.368 46.6491 36.7788 45.8091 37.3638L45.8089 37.3642Z" fill="url(#paint15_radial_1_279)"/>
</g>
<g opacity="0.2" filter="url(#filter18_f_1_279)">
<path d="M37.9101 36.1148L37.7887 36.8709C37.7644 36.9945 37.7374 37.1181 37.6913 37.2352C37.6451 37.3523 37.5792 37.4636 37.4859 37.5478C37.4041 37.6216 37.3042 37.6724 37.2039 37.7184C36.8126 37.8977 36.3938 38.0166 35.9667 38.07L36.4775 38.1166C36.5846 38.1283 36.692 38.1414 36.7964 38.1682C36.9009 38.195 37.0027 38.2378 37.0895 38.2996C37.1849 38.3692 37.2598 38.4646 37.3158 38.5687C37.4272 38.7762 37.4645 39.0148 37.4852 39.2475C37.5113 39.5474 37.5134 39.8498 37.4909 40.1498C37.5111 39.949 37.5532 39.7502 37.6162 39.5584C37.7299 39.2127 37.9128 38.8886 38.1593 38.6209C38.2571 38.5147 38.3647 38.4172 38.4831 38.334C38.8499 38.0782 39.2992 37.9689 39.7426 38.0275C39.2929 38.0458 38.8506 37.9086 38.4904 37.6389C38.309 37.5022 38.151 37.332 38.0413 37.1332C37.871 36.8217 37.8243 36.4574 37.9106 36.113L37.9101 36.1148Z" fill="url(#paint16_radial_1_279)"/>
</g>
<g opacity="0.1" filter="url(#filter19_f_1_279)">
<path d="M36.8361 42.0398C36.622 42.8548 36.4749 43.6859 36.3964 44.5249C36.2855 45.7106 36.3122 46.9046 36.2485 48.094C36.1963 49.1032 36.0761 50.1228 36.2513 51.1181C36.3348 51.5927 36.485 52.0554 36.696 52.4888C36.7295 52.3234 36.754 52.1563 36.7694 51.9882C36.8438 51.1813 36.7078 50.3717 36.6619 49.5627C36.5814 48.1446 36.7778 46.7255 36.8577 45.309C36.9191 44.2199 36.9118 43.1281 36.8359 42.04L36.8361 42.0398Z" fill="black"/>
</g>
<g filter="url(#filter20_f_1_279)">
<path d="M46.6163 29.8176C46.24 30.1605 46.7928 30.6754 47.0549 31.2804C47.2178 31.6564 47.6688 32.1864 48.1048 32.1016C48.4329 32.0378 48.6364 31.5655 48.6054 31.2331C48.5456 30.5908 48.0037 30.4406 47.6103 30.22C47.2988 30.0453 46.8805 29.5771 46.6164 29.818L46.6163 29.8176Z" fill="#838384"/>
</g>
<g opacity="0.2" filter="url(#filter21_f_1_279)">
<path d="M58.6904 57.8883C58.6076 58.1604 58.4841 58.4191 58.324 58.6561C57.9701 59.1804 57.4564 59.5751 56.9429 59.9389C56.067 60.5596 55.1549 61.1291 54.3399 61.8362C53.7936 62.3087 53.296 62.8388 52.8344 63.3966C52.4397 63.8736 52.0686 64.3748 51.6189 64.799C51.1649 65.2272 50.6305 65.5731 50.0546 65.7616C49.3543 65.9908 48.6143 65.9797 47.9397 65.8068C47.467 65.6857 47.006 65.4749 46.7132 65.0937C46.4192 64.7111 46.3239 64.197 46.29 63.6922C46.2297 62.7993 46.3365 61.8872 46.4335 60.9812C46.5143 60.2282 46.5887 59.4747 46.6194 58.7233C46.673 57.3566 46.5842 56.0017 46.3992 54.6724C46.3683 54.4496 46.3345 54.2254 46.3533 53.996C46.372 53.7666 46.4489 53.5281 46.6099 53.3511C46.7586 53.1875 46.9662 53.0907 47.173 53.043C47.3798 52.9953 47.5894 52.9908 47.7973 52.9873C48.287 52.9742 48.7796 52.9455 49.2621 52.9883C49.5665 53.0155 49.865 53.071 50.1688 53.1003C50.6761 53.149 51.2019 53.1234 51.7108 52.9742C52.2585 52.8138 52.7807 52.5126 53.3373 52.43C53.5656 52.396 53.7949 52.3998 54.0165 52.431C54.243 52.4627 54.4684 52.5253 54.6425 52.6635C54.7747 52.7687 54.8716 52.913 54.9474 53.0668C55.06 53.2961 55.1297 53.549 55.169 53.8083C55.2043 54.0381 55.2166 54.2748 55.2759 54.4971C55.3733 54.8626 55.5941 55.1735 55.8599 55.4266C56.1257 55.6797 56.4363 55.8795 56.7464 56.0765C57.0556 56.2727 57.3663 56.4676 57.6964 56.6293C57.8514 56.7052 58.0106 56.7738 58.1586 56.8614C58.3066 56.9489 58.4446 57.0563 58.5429 57.1982C58.6763 57.3905 58.7299 57.6425 58.6899 57.8901" fill="url(#paint17_linear_1_279)"/>
</g>
<mask id="mask3_1_279" style="mask-type:luminance" maskUnits="userSpaceOnUse" x="47" y="50" width="16" height="17">
<path d="M62.1629 58.54C62.3213 58.818 61.8896 59.1297 61.6728 59.3647C61.1955 59.8822 60.5501 60.218 59.9503 60.5866C58.9209 61.2193 57.7536 61.6141 56.7441 62.278C56.0682 62.7223 55.4686 63.2739 54.8538 63.7996C54.3278 64.2494 53.8996 64.8224 53.3165 65.1952C52.7334 65.568 52.0904 65.9182 51.4036 66.0046C50.571 66.109 49.6852 65.96 48.9145 65.6279C48.3758 65.3957 47.8423 65.0396 47.5284 64.5435C47.2129 64.0448 47.1699 63.4055 47.1398 62.8161C47.0863 61.7613 47.377 60.717 47.5189 59.6704C47.6372 58.7997 47.8414 57.9397 47.9123 57.0638C48.0411 55.4725 47.7765 53.8597 47.968 52.2749C48.0297 51.7637 47.9366 51.1156 48.3182 50.7703C48.6729 50.4492 49.2633 50.5754 49.742 50.5853C50.3242 50.5975 50.8963 50.7506 51.4634 50.8841C51.8213 50.9682 52.1593 51.1296 52.5203 51.1992C53.1191 51.3146 53.7328 51.3847 54.3422 51.3649C55.001 51.3433 55.6367 51.0523 56.2959 51.0577C56.566 51.0599 56.8396 51.1068 57.0941 51.1969C57.3522 51.2883 57.6142 51.4069 57.8118 51.5964C57.9623 51.7409 58.0607 51.937 58.139 52.1308C58.256 52.4201 58.2946 52.7361 58.3421 53.0446C58.3842 53.3186 58.3155 53.6138 58.4142 53.8731C58.7327 54.7086 59.3849 55.3921 60.0199 56.0215C60.3233 56.3583 60.7213 56.6367 61.0933 56.8619C61.4884 57.1011 61.8536 57.2883 62.0442 57.7002C62.1591 57.9586 61.9495 58.3546 62.1631 58.5402L62.1629 58.54Z" fill="white"/>
</mask>
<g mask="url(#mask3_1_279)">
<path d="M62.1629 58.54C62.0463 58.8394 61.8797 59.1191 61.6728 59.3647C61.216 59.9069 60.5818 60.2646 59.9503 60.5866C58.8728 61.1356 57.7568 61.6174 56.7441 62.2779C56.0656 62.7204 55.4393 63.24 54.8538 63.7996C54.353 64.2782 53.878 64.7895 53.3165 65.1952C52.7497 65.6042 52.0946 65.9008 51.4036 66.0046C50.5628 66.1308 49.6943 65.9675 48.9145 65.6279C48.3683 65.39 47.843 65.0495 47.5284 64.5435C47.2127 64.0356 47.1406 63.4142 47.1398 62.8161C47.1384 61.7584 47.3344 60.71 47.5189 59.6703C47.6721 58.8049 47.8183 57.9376 47.9123 57.0638C48.0834 55.4746 48.0821 53.8693 47.968 52.2749C47.9505 52.0079 47.9265 51.7383 47.9666 51.4735C48.0066 51.2088 48.1154 50.9449 48.3182 50.7703C48.5056 50.6089 48.7568 50.5378 49.004 50.5242C49.2511 50.5106 49.4972 50.5498 49.742 50.5854C50.3186 50.6697 50.8998 50.736 51.4634 50.8843C51.819 50.9778 52.1654 51.1036 52.5203 51.1994C53.1127 51.3595 53.7328 51.4361 54.3422 51.3651C54.9984 51.2885 55.6355 51.0418 56.2959 51.0578C56.5669 51.0645 56.8355 51.1156 57.0941 51.1971C57.3578 51.2803 57.618 51.3994 57.8118 51.5966C57.959 51.7463 58.0617 51.9351 58.139 52.1309C58.2539 52.4223 58.3157 52.7327 58.3421 53.0447C58.3656 53.3212 58.3618 53.6007 58.4142 53.8733C58.5003 54.3215 58.7357 54.7302 59.0283 55.0804C59.3209 55.4306 59.6723 55.7279 60.0197 56.0217C60.3678 56.3141 60.7177 56.6057 61.0931 56.8621C61.2693 56.9825 61.451 57.0953 61.6183 57.2276C61.7856 57.3599 61.9394 57.5143 62.0439 57.7002C62.1857 57.9525 62.2291 58.2585 62.1627 58.5402L62.1629 58.54Z" fill="url(#paint18_linear_1_279)"/>
</g>
<mask id="mask4_1_279" style="mask-type:luminance" maskUnits="userSpaceOnUse" x="47" y="50" width="16" height="17">
<path d="M62.1629 58.54C62.3213 58.818 61.8896 59.1297 61.6728 59.3647C61.1955 59.8822 60.5501 60.218 59.9503 60.5866C58.9209 61.2193 57.7536 61.6141 56.7441 62.278C56.0682 62.7223 55.4686 63.2739 54.8538 63.7996C54.3278 64.2494 53.8996 64.8224 53.3165 65.1952C52.7334 65.568 52.0904 65.9182 51.4036 66.0046C50.571 66.109 49.6852 65.96 48.9145 65.6279C48.3758 65.3957 47.8423 65.0396 47.5284 64.5435C47.2129 64.0448 47.1699 63.4055 47.1398 62.8161C47.0863 61.7613 47.377 60.717 47.5189 59.6704C47.6372 58.7997 47.8414 57.9397 47.9123 57.0638C48.0411 55.4725 47.7765 53.8597 47.968 52.2749C48.0297 51.7637 47.9366 51.1156 48.3182 50.7703C48.6729 50.4492 49.2633 50.5754 49.742 50.5853C50.3242 50.5975 50.8963 50.7506 51.4634 50.8841C51.8213 50.9682 52.1593 51.1296 52.5203 51.1992C53.1191 51.3146 53.7328 51.3847 54.3422 51.3649C55.001 51.3433 55.6367 51.0523 56.2959 51.0577C56.566 51.0599 56.8396 51.1068 57.0941 51.1969C57.3522 51.2883 57.6142 51.4069 57.8118 51.5964C57.9623 51.7409 58.0607 51.937 58.139 52.1308C58.256 52.4201 58.2946 52.7361 58.3421 53.0446C58.3842 53.3186 58.3155 53.6138 58.4142 53.8731C58.7327 54.7086 59.3849 55.3921 60.0199 56.0215C60.3233 56.3583 60.7213 56.6367 61.0933 56.8619C61.4884 57.1011 61.8536 57.2883 62.0442 57.7002C62.1591 57.9586 61.9495 58.3546 62.1631 58.5402L62.1629 58.54Z" fill="white"/>
</mask>
<g mask="url(#mask4_1_279)">
<g filter="url(#filter22_f_1_279)">
<path d="M61.6206 57.9914C61.5128 58.2613 61.3617 58.5117 61.1731 58.7329C60.755 59.2227 60.1757 59.5429 59.5999 59.8312C58.6159 60.3238 57.5977 60.7568 56.6722 61.3516C56.0536 61.7491 55.4816 62.216 54.9459 62.7197C54.4881 63.1502 54.0538 63.6102 53.5419 63.9743C53.0232 64.3433 52.4248 64.6091 51.7949 64.7019C51.0273 64.815 50.2353 64.6683 49.522 64.3632C49.0247 64.1505 48.5443 63.8462 48.2562 63.3884C47.9697 62.9329 47.9029 62.3737 47.9011 61.8355C47.8989 60.8842 48.0783 59.9434 48.2475 59.0073C48.388 58.2293 48.5217 57.4499 48.6068 56.664C48.7617 55.2353 48.7544 53.7923 48.6576 52.3586C48.6414 52.1184 48.6228 51.8758 48.6597 51.638C48.6966 51.4002 48.7951 51.1633 48.9775 51.0061C49.1486 50.8587 49.3784 50.7941 49.6041 50.7823C49.8299 50.7705 50.0544 50.807 50.2778 50.8397C50.8039 50.9172 51.3347 50.9755 51.8495 51.1083C52.1741 51.1922 52.4908 51.3054 52.8147 51.3917C53.356 51.5362 53.9221 51.6049 54.4787 51.5407C55.0775 51.4716 55.6601 51.25 56.2628 51.2645C56.51 51.2705 56.7554 51.3167 56.9921 51.3898C57.2327 51.4639 57.4708 51.5698 57.6475 51.7489C57.7808 51.8838 57.8729 52.0542 57.9462 52.2293C58.0551 52.4898 58.126 52.7683 58.1317 53.0508C58.1378 53.3457 58.0732 53.6418 58.1133 53.9338C58.1456 54.1711 58.2461 54.3948 58.3743 54.597C58.5026 54.7993 58.6588 54.9817 58.8135 55.1644C59.1124 55.5178 59.4123 55.8776 59.787 56.1488C60.2138 56.4575 60.7203 56.6379 61.1612 56.9263C61.2926 57.0123 61.4199 57.1094 61.5125 57.2361C61.5898 57.3441 61.64 57.4691 61.6589 57.6005C61.6778 57.7319 61.6648 57.866 61.6211 57.9914H61.6206Z" fill="#CD8907"/>
</g>
</g>
<mask id="mask5_1_279" style="mask-type:luminance" maskUnits="userSpaceOnUse" x="47" y="50" width="16" height="17">
<path d="M62.1629 58.54C62.3211 58.818 61.8896 59.1298 61.6727 59.3647C61.1952 59.8823 60.5499 60.218 59.9498 60.5867C58.9205 61.2195 57.7535 61.6163 56.7436 62.278C56.0678 62.7224 55.4684 63.2741 54.8532 63.7996C54.3272 64.2494 53.8991 64.8228 53.3158 65.1951C52.7325 65.5675 52.0897 65.918 51.4027 66.0046C50.5701 66.1093 49.6844 65.96 48.9159 65.628C48.3772 65.3957 47.8416 65.0394 47.5298 64.5437C47.2143 64.045 47.1711 63.4058 47.1413 62.8164C47.0876 61.7615 47.3784 60.7171 47.5205 59.6706C47.6387 58.7997 47.8428 57.9396 47.9138 57.064C48.0425 55.4729 47.7781 53.8599 47.9695 52.275C48.0292 51.7639 47.9381 51.1159 48.3197 50.7705C48.6744 50.4494 49.2646 50.5775 49.7433 50.5856C50.3256 50.5981 50.8978 50.7512 51.4646 50.8844C51.8227 50.9685 52.1605 51.13 52.5216 51.1997C53.1184 51.3151 53.734 51.3853 54.3435 51.3653C55.0025 51.3439 55.6379 51.0526 56.2972 51.0582C56.5674 51.0603 56.8409 51.1075 57.0956 51.1976C57.3536 51.289 57.6156 51.4078 57.8132 51.597C57.9638 51.7416 58.0618 51.9376 58.1402 52.1332C58.2572 52.4228 58.2958 52.7385 58.3432 53.047C58.3853 53.3209 58.3165 53.6165 58.4154 53.8754C58.7337 54.7108 59.3862 55.3944 60.0209 56.0237C60.3243 56.3605 60.7223 56.6389 61.0944 56.8641C61.4893 57.1033 61.8543 57.2905 62.0453 57.7024C62.1601 57.9608 61.9506 58.357 62.1643 58.5426L62.1629 58.54Z" fill="white"/>
</mask>
<g mask="url(#mask5_1_279)">
<g filter="url(#filter23_f_1_279)">
<path d="M61.5594 57.6874C61.4396 57.9587 61.2844 58.2116 61.0998 58.436C60.6715 58.9568 60.0931 59.3154 59.4838 59.5453C58.4807 59.9244 57.3857 59.9752 56.4011 60.4068C55.8011 60.6697 55.2611 61.0659 54.714 61.4406C54.272 61.7431 53.8204 62.0348 53.3349 62.2463C52.7869 62.4854 52.2037 62.6195 51.6188 62.7139C51.2468 62.7739 50.8702 62.8177 50.4944 62.7969C50.1186 62.7761 49.7416 62.6881 49.4101 62.4966C49.1587 62.3512 48.9327 62.142 48.7982 61.8707C48.649 61.5691 48.6231 61.2152 48.6267 60.8733C48.6358 59.9625 48.8308 59.0617 48.8248 58.1509C48.8197 57.3581 48.6627 56.5754 48.6175 55.7842C48.5306 54.2623 48.8573 52.7141 48.5698 51.2212C48.524 50.9823 48.462 50.7435 48.4649 50.4994C48.4665 50.3772 48.4848 50.2549 48.5276 50.1419C48.5704 50.0288 48.6396 49.9263 48.7315 49.8549C48.8091 49.7948 48.9006 49.7583 48.9947 49.7418C49.0888 49.7253 49.1851 49.7285 49.2796 49.7433C49.4682 49.7727 49.6481 49.8467 49.8317 49.9014C50.3573 50.058 50.9126 50.0546 51.4466 50.1728C51.7818 50.247 52.1065 50.3679 52.4381 50.4589C52.9951 50.609 53.5761 50.6762 54.1474 50.609C54.7622 50.5372 55.3624 50.3141 55.9803 50.3302C56.2336 50.3366 56.4851 50.3838 56.7294 50.4567C56.9737 50.5297 57.2178 50.6326 57.4026 50.8192C57.5359 50.9539 57.6314 51.126 57.7094 51.304C57.8228 51.564 57.9017 51.8467 57.9 52.1337C57.899 52.2832 57.8761 52.4314 57.8628 52.5798C57.8494 52.7283 57.8453 52.881 57.8807 53.0253C57.9161 53.1697 57.9909 53.3014 58.0762 53.42C58.1616 53.5386 58.2583 53.6474 58.3464 53.7636C58.5935 54.089 58.7701 54.4682 58.9625 54.834C59.1549 55.1997 59.3708 55.5617 59.6748 55.8249C60.0886 56.1836 60.6253 56.3268 61.0865 56.61C61.2218 56.693 61.3525 56.7902 61.4474 56.9231C61.5235 57.0302 61.5736 57.156 61.5931 57.2892C61.6126 57.4224 61.6008 57.5588 61.559 57.6859L61.5594 57.6874Z" fill="#F5C021"/>
</g>
</g>
<g filter="url(#filter24_f_1_279)">
<path d="M48.4651 51.3642C49.0353 51.2098 49.5209 51.6422 49.9345 51.9685C50.2017 52.1965 50.5877 52.1391 50.9157 52.1499C51.4587 52.1302 51.9992 52.2409 52.5426 52.1736C53.6122 52.0831 54.6606 51.8202 55.7352 51.7732C56.2487 51.7409 56.8248 51.7111 57.2683 52.0108C57.4481 52.1354 57.7117 52.6618 57.889 52.4642C57.8159 51.9111 57.4057 51.3753 56.8551 51.2281C56.4243 51.1602 55.9848 51.2785 55.5514 51.2403C54.2594 51.2094 52.9765 50.9696 51.6813 51.0384C50.7804 51.0462 49.8803 51.0044 48.9808 50.9692C48.6275 50.897 48.5027 51.2112 48.3107 51.3313" fill="url(#paint19_linear_1_279)"/>
</g>
<g opacity="0.75" filter="url(#filter25_f_1_279)">
<path d="M51.0214 40.8462C51.2281 40.8143 52.5039 41.8989 52.3295 42.3036C52.1551 42.7083 51.8274 42.4636 51.593 42.4664C51.3586 42.4691 50.7174 42.7601 50.61 42.5765C50.5026 42.3928 50.8936 41.9638 51.0983 41.6054C51.2631 41.3167 50.8147 40.8802 51.0215 40.8483L51.0214 40.8462Z" fill="#7C7C7C"/>
</g>
<g opacity="0.25" filter="url(#filter26_f_1_279)">
<path d="M33.0197 34.0197C32.999 33.7697 32.6422 33.7324 32.483 33.8569C32.3486 33.9623 32.2226 34.3218 32.3385 34.4625C32.527 34.6905 33.0478 34.3625 33.0196 34.02L33.0197 34.0197Z" fill="#7C7C7C"/>
</g>
<g opacity="0.35" filter="url(#filter27_f_1_279)">
<path d="M56.154 52.2327C56.056 52.0409 55.8777 51.8975 55.6788 51.8145C55.4798 51.7314 55.2616 51.7048 55.0463 51.7066C54.6155 51.71 54.1873 51.8221 53.7582 51.7849C53.3956 51.7535 53.0515 51.6173 52.6964 51.5313C52.3314 51.4442 51.9442 51.4094 51.5816 51.5064C51.1941 51.6119 50.8523 51.8709 50.6382 52.2105C50.4495 52.5098 50.3597 52.8637 50.3318 53.2165C50.304 53.5693 50.3341 53.9243 50.3698 54.2765C50.3955 54.5314 50.4244 54.7865 50.4861 55.0355C50.5477 55.2844 50.6434 55.5268 50.7934 55.7343C51.0093 56.033 51.3301 56.246 51.6759 56.374C52.2473 56.5828 52.8758 56.5718 53.4395 56.3432C54.4247 55.9155 55.2584 55.1484 55.7667 54.2022C55.9486 53.8635 56.0899 53.5025 56.1813 53.1291C56.2175 52.9807 56.2461 52.8294 56.2475 52.6766C56.2488 52.5238 56.2219 52.3685 56.1524 52.2327H56.154Z" fill="url(#paint20_radial_1_279)"/>
</g>
<g opacity="0.35" filter="url(#filter28_f_1_279)">
<path d="M56.154 52.0315C56.056 51.8929 55.8777 51.7892 55.6788 51.7292C55.4798 51.6691 55.2616 51.6499 55.0463 51.6511C54.6155 51.6537 54.1873 51.7347 53.7582 51.7078C53.3956 51.6851 53.0515 51.5866 52.6964 51.5244C52.3314 51.4615 51.9442 51.4363 51.5816 51.5064C51.1941 51.5827 50.8523 51.7699 50.6382 52.0154C50.4495 52.2319 50.3597 52.4877 50.3318 52.7427C50.304 52.9978 50.3341 53.2544 50.3698 53.5091C50.3955 53.6933 50.4244 53.8777 50.4861 54.0577C50.5477 54.2376 50.6434 54.4129 50.7934 54.5629C51.0093 54.7788 51.3301 54.9328 51.6759 55.0253C52.2473 55.1763 52.8758 55.1683 53.4395 55.0031C54.4247 54.6939 55.2584 54.1393 55.7667 53.4553C55.9486 53.2104 56.0899 52.9495 56.1813 52.6796C56.2175 52.5722 56.2461 52.4629 56.2475 52.3524C56.2488 52.2419 56.2219 52.1297 56.1524 52.0315H56.154Z" fill="url(#paint21_radial_1_279)"/>
</g>
<path d="M56.9728 50.4378C56.9023 50.2457 56.7782 50.0754 56.6264 49.9383C56.4746 49.8011 56.2957 49.696 56.1072 49.6159C55.7303 49.4558 55.3204 49.3966 54.918 49.3207L53.7817 49.0984C53.3866 49.0312 52.9779 48.9884 52.5868 49.0767C52.2446 49.1538 51.9282 49.3308 51.6692 49.5675C51.4102 49.8042 51.2079 50.0995 51.0626 50.4204C50.8063 50.9826 50.7258 51.6153 50.7747 52.2312C50.8112 52.6895 50.927 53.1617 51.229 53.5088C51.4726 53.789 51.8185 53.9639 52.1748 54.0692C52.7884 54.2508 53.4571 54.2412 54.0651 54.0423C55.0762 53.7005 55.9507 53.0428 56.5594 52.1661C56.7578 51.8789 56.927 51.5659 57.0038 51.2256C57.0622 50.9645 57.0643 50.6895 56.9728 50.4397V50.4378Z" fill="#020204"/>
<mask id="mask6_1_279" style="mask-type:luminance" maskUnits="userSpaceOnUse" x="50" y="49" width="8" height="6">
<path d="M56.9728 50.4378C56.9023 50.2457 56.7782 50.0754 56.6264 49.9383C56.4746 49.8011 56.2957 49.696 56.1072 49.6159C55.7303 49.4558 55.3204 49.3966 54.918 49.3207L53.7817 49.0984C53.3866 49.0312 52.9779 48.9884 52.5868 49.0767C52.2446 49.1538 51.9282 49.3308 51.6692 49.5675C51.4102 49.8042 51.2079 50.0995 51.0626 50.4204C50.8063 50.9826 50.7258 51.6153 50.7747 52.2312C50.8112 52.6895 50.927 53.1617 51.229 53.5088C51.4726 53.789 51.8185 53.9639 52.1748 54.0692C52.7884 54.2508 53.4571 54.2412 54.0651 54.0423C55.0762 53.7005 55.9507 53.0428 56.5594 52.1661C56.7578 51.8789 56.927 51.5659 57.0038 51.2256C57.0622 50.9645 57.0643 50.6895 56.9728 50.4397" fill="white"/>
</mask>
<g mask="url(#mask6_1_279)">
<g filter="url(#filter29_f_1_279)">
<path d="M52.8009 48.8936C52.706 48.8987 52.6116 48.9097 52.518 48.9263C51.914 49.0337 51.361 49.4154 51.0495 49.9435C50.8296 50.32 50.7291 50.7543 50.7612 51.1891C50.7739 50.8859 50.8535 50.5891 51.0006 50.324C51.2502 49.8746 51.7024 49.5355 52.2082 49.4429C52.5215 49.3858 52.8404 49.4203 53.1547 49.4593C53.4564 49.4969 53.7605 49.5364 54.0578 49.6008C54.5173 49.7003 54.9723 49.8532 55.358 50.123C55.4478 50.1856 55.532 50.257 55.6027 50.3405C55.6734 50.4241 55.7284 50.5212 55.7496 50.6288C55.7806 50.7861 55.7357 50.9513 55.6574 51.0911C55.579 51.2308 55.472 51.3534 55.358 51.4663C55.2657 51.5579 55.1674 51.6463 55.0697 51.7327C55.5153 51.6463 55.9665 51.5241 56.3369 51.265C56.4936 51.1553 56.6354 51.0239 56.7285 50.857C56.8217 50.69 56.8612 50.488 56.8156 50.3022C56.7848 50.1769 56.7164 50.0617 56.6307 49.9651C56.5451 49.8685 56.4427 49.7889 56.3371 49.715C55.8706 49.3882 55.3249 49.1788 54.7597 49.111C54.3977 49.0443 54.0322 48.9881 53.6666 48.9421C53.3807 48.9063 53.0888 48.8772 52.8016 48.8934L52.8009 48.8936Z" fill="url(#paint22_radial_1_279)"/>
</g>
</g>
<mask id="mask7_1_279" style="mask-type:luminance" maskUnits="userSpaceOnUse" x="50" y="49" width="8" height="6">
<path d="M56.9728 50.4378C56.9023 50.2457 56.7782 50.0754 56.6264 49.9383C56.4746 49.8011 56.2957 49.696 56.1072 49.6159C55.7303 49.4558 55.3204 49.3966 54.918 49.3207L53.7817 49.0984C53.3866 49.0312 52.9779 48.9884 52.5868 49.0767C52.2446 49.1538 51.9282 49.3308 51.6692 49.5675C51.4102 49.8042 51.2079 50.0995 51.0626 50.4204C50.8063 50.9826 50.7258 51.6153 50.7747 52.2312C50.8112 52.6895 50.927 53.1617 51.229 53.5088C51.4726 53.789 51.8185 53.9639 52.1748 54.0692C52.7884 54.2508 53.4571 54.2412 54.0651 54.0423C55.0762 53.7005 55.9507 53.0428 56.5594 52.1661C56.7578 51.8789 56.927 51.5659 57.0038 51.2256C57.0622 50.9645 57.0643 50.6895 56.9728 50.4397" fill="white"/>
</mask>
<g mask="url(#mask7_1_279)">
<g filter="url(#filter30_f_1_279)">
<path d="M52.8009 48.8936C52.706 48.8987 52.6116 48.9097 52.518 48.9263C51.914 49.0337 51.361 49.4154 51.0495 49.9435C50.8296 50.32 50.7291 50.7543 50.7612 51.1891C50.7739 50.8859 50.8535 50.5891 51.0006 50.324C51.2502 49.8746 51.7024 49.5355 52.2082 49.4429C52.5215 49.3858 52.8404 49.4203 53.1547 49.4593C53.4564 49.4969 53.7605 49.5364 54.0578 49.6008C54.5173 49.7003 54.9723 49.8532 55.358 50.123C55.4478 50.1856 55.532 50.257 55.6027 50.3405C55.6734 50.4241 55.7284 50.5212 55.7496 50.6288C55.7806 50.7861 55.7357 50.9513 55.6574 51.0911C55.579 51.2308 55.472 51.3534 55.358 51.4663C55.2657 51.5579 55.1674 51.6463 55.0697 51.7327C55.5153 51.6463 55.9665 51.5241 56.3369 51.265C56.4936 51.1553 56.6354 51.0239 56.7285 50.857C56.8217 50.69 56.8612 50.488 56.8156 50.3022C56.7848 50.1769 56.7164 50.0617 56.6307 49.9651C56.5451 49.8685 56.4427 49.7889 56.3371 49.715C55.8706 49.3882 55.3249 49.1788 54.7597 49.111C54.3977 49.0443 54.0322 48.9881 53.6666 48.9421C53.3807 48.9063 53.0888 48.8772 52.8016 48.8934L52.8009 48.8936Z" fill="url(#paint23_linear_1_279)"/>
</g>
</g>
<path d="M33.0065 32.8746L30.0611 36.5623C29.4461 37.3247 28.8165 38.093 28.4162 38.9869C28.0722 39.7551 27.9097 40.5895 27.6738 41.3977C27.4061 42.3153 27.0427 43.2027 26.6347 44.0671C26.2578 44.8651 25.8427 45.6446 25.4267 46.4231C25.1242 46.9895 24.8166 47.5685 24.7117 48.202C24.6288 48.7026 24.6768 49.2192 24.8046 49.7104C24.9324 50.2016 25.1353 50.6695 25.3682 51.1214C26.3546 53.0491 27.8346 54.7108 29.5878 55.982C30.3832 56.5588 31.2356 57.0577 32.1294 57.466C32.6136 57.6871 33.124 57.8845 33.6563 57.8937C33.9226 57.8982 34.1913 57.8545 34.435 57.7475C34.6787 57.6404 34.8963 57.4683 35.0413 57.245C35.2193 56.9703 35.2797 56.6292 35.244 56.3038C35.2084 55.9785 35.0813 55.668 34.9111 55.3883C34.4933 54.7054 33.838 54.2116 33.206 53.722C31.8413 52.6648 30.5211 51.5497 29.2579 50.3731C28.9011 50.0406 28.5446 49.6981 28.2954 49.2793C28.0527 48.8713 27.9215 48.4066 27.8327 47.9402C27.5891 46.6609 27.6517 45.3149 28.0869 44.0878C28.2571 43.6077 28.482 43.1492 28.6992 42.6883C29.0752 41.8894 29.4315 41.0755 29.9263 40.3443C30.5422 39.4339 31.3653 38.6628 31.8671 37.685C32.2908 36.8599 32.4624 35.9318 32.6264 35.0187L33.0065 32.8746Z" fill="#020204"/>
<mask id="mask8_1_279" style="mask-type:luminance" maskUnits="userSpaceOnUse" x="24" y="32" width="12" height="26">
<path d="M32.9303 32.9072C32.9303 32.9072 32.0415 34.0116 31.5557 34.6908C31.0699 35.37 30.5571 35.8483 30.0611 36.5619C29.565 37.2756 28.7791 38.2037 28.4162 38.9866C28.0533 39.7695 28.0124 40.5594 27.6738 41.3973C27.3353 42.2353 27.0298 43.2497 26.6347 44.0667C26.2396 44.8838 25.7 45.7525 25.4267 46.4228C25.1534 47.0931 24.7635 47.4191 24.7117 48.2017C24.6598 48.9843 24.6112 49.6494 25.3682 51.121C26.1252 52.5927 28.3683 54.9516 29.5878 55.9817C30.8072 57.0118 31.2222 57.2393 32.1294 57.4657C33.0366 57.6922 34.5412 57.9875 35.0414 57.2446C35.5417 56.5018 35.4369 56.2064 34.9109 55.3881C34.3849 54.5699 34.0711 54.4653 33.2058 53.7218C32.3405 52.9784 29.9618 51.133 29.2578 50.3729C28.5537 49.6128 28.0207 49.779 28.2952 49.2791C28.5697 48.7792 27.9111 48.5811 27.8326 47.9401C27.6996 46.8531 27.9969 44.6852 28.0867 44.0876C28.1765 43.4901 28.2997 43.5787 28.699 42.6882C29.0983 41.7977 29.4169 41.1871 29.9262 40.3441C30.4355 39.5011 31.4274 38.5812 31.8669 37.6848C32.3064 36.7884 32.4768 35.8189 32.6262 35.0185C32.7755 34.2182 32.9303 32.9072 32.9303 32.9072Z" fill="white"/>
</mask>
<g mask="url(#mask8_1_279)">
<g opacity="0.95" filter="url(#filter31_f_1_279)">
<path d="M30.1923 39.8101C29.7877 40.1829 29.4388 40.6118 29.1561 41.0839C28.6917 41.8602 28.4181 42.7319 28.0808 43.5712C27.8295 44.1961 27.5369 44.8232 27.5017 45.4956C27.4838 45.8409 27.5348 46.1859 27.5464 46.5316C27.5581 46.8773 27.5259 47.2365 27.355 47.5384C27.2135 47.7907 26.978 47.9892 26.7052 48.0856C27.0758 48.2104 27.3997 48.4451 27.6338 48.7583C27.8279 49.0194 27.952 49.3247 28.1205 49.6025C28.2575 49.8285 28.4256 50.0377 28.6327 50.2022C28.8399 50.3667 29.087 50.4841 29.3493 50.5177C29.5298 50.5396 29.7129 50.5223 29.8861 50.467C30.0593 50.4116 30.2185 50.3196 30.3528 50.1971C30.0177 47.0578 30.3246 43.8514 31.2492 40.8327C31.3075 40.6421 31.3688 40.4501 31.3832 40.2513C31.3977 40.0525 31.3606 39.8426 31.2398 39.6842C31.1754 39.5998 31.0887 39.5328 30.9909 39.4914C30.8931 39.4499 30.7845 39.4348 30.6793 39.4475C30.5742 39.4602 30.4722 39.5008 30.3869 39.5641C30.3016 39.6275 30.2334 39.7133 30.1908 39.8104L30.1923 39.8101Z" fill="#7C7C7C"/>
</g>
</g>
<mask id="mask9_1_279" style="mask-type:luminance" maskUnits="userSpaceOnUse" x="18" y="49" width="18" height="17">
<path d="M25.8837 49.688C26.1622 49.5726 26.4752 49.5515 26.7714 49.6062C27.0677 49.6608 27.3476 49.7889 27.597 49.9581C28.0955 50.2968 28.4652 50.7898 28.8194 51.2775C29.6326 52.3974 30.4156 53.5406 31.1249 54.7291C31.7003 55.693 32.2291 56.6885 32.894 57.5929C33.3281 58.1833 33.8177 58.7313 34.2539 59.3199C34.6901 59.9086 35.0769 60.5481 35.2705 61.255C35.5218 62.1735 35.4245 63.1858 34.9873 64.0318C34.6797 64.627 34.2082 65.1374 33.6345 65.4834C33.0608 65.8294 32.3864 66.008 31.717 65.983C30.6528 65.9429 29.6805 65.4112 28.6911 65.0169C26.6755 64.2142 24.4858 63.9621 22.4081 63.3369C21.7693 63.1447 21.1416 62.9174 20.4987 62.7406C20.2132 62.6622 19.9225 62.593 19.6527 62.4708C19.3829 62.3486 19.1305 62.1662 18.9805 61.9108C18.8646 61.7134 18.8155 61.4809 18.8186 61.2518C18.8218 61.0228 18.8754 60.7967 18.9533 60.5814C19.1093 60.1507 19.3612 59.7608 19.5312 59.3356C19.8089 58.6411 19.8588 57.8756 19.8214 57.1285C19.784 56.3815 19.663 55.6412 19.6116 54.8953C19.589 54.5622 19.5803 54.2247 19.6438 53.8969C19.7074 53.5692 19.8485 53.2485 20.0891 53.017C20.3108 52.8035 20.6052 52.6768 20.9065 52.6138C21.2078 52.5507 21.5183 52.5481 21.8262 52.5549C22.1341 52.5617 22.4424 52.5782 22.7494 52.5532C23.0565 52.5281 23.3644 52.4592 23.6319 52.3064C23.886 52.1612 24.0939 51.9452 24.2662 51.7086C24.4385 51.4721 24.5778 51.2133 24.7205 50.9577C24.8632 50.7022 25.0108 50.4474 25.1978 50.2222C25.3847 49.9969 25.6138 49.8004 25.8841 49.6883" fill="white"/>
</mask>
<g mask="url(#mask9_1_279)">
<path d="M25.8837 49.688C26.1622 49.5726 26.4752 49.5515 26.7714 49.6062C27.0677 49.6608 27.3476 49.7889 27.597 49.9581C28.0955 50.2968 28.4652 50.7898 28.8194 51.2775C29.6326 52.3974 30.4156 53.5406 31.1249 54.7291C31.7003 55.693 32.2291 56.6885 32.894 57.5929C33.3281 58.1833 33.8177 58.7313 34.2539 59.3199C34.6901 59.9086 35.0769 60.5481 35.2705 61.255C35.5218 62.1735 35.4245 63.1858 34.9873 64.0318C34.6797 64.627 34.2082 65.1374 33.6345 65.4834C33.0608 65.8294 32.3864 66.008 31.717 65.983C30.6528 65.9429 29.6805 65.4112 28.6911 65.0169C26.6755 64.2142 24.4858 63.9621 22.4081 63.3369C21.7693 63.1447 21.1416 62.9174 20.4987 62.7406C20.2132 62.6622 19.9225 62.593 19.6527 62.4708C19.3829 62.3486 19.1305 62.1662 18.9805 61.9108C18.8646 61.7134 18.8155 61.4809 18.8186 61.2518C18.8218 61.0228 18.8754 60.7967 18.9533 60.5814C19.1093 60.1507 19.3612 59.7608 19.5312 59.3356C19.8089 58.6411 19.8588 57.8756 19.8214 57.1285C19.784 56.3815 19.663 55.6412 19.6116 54.8953C19.589 54.5622 19.5803 54.2247 19.6438 53.8969C19.7074 53.5692 19.8485 53.2485 20.0891 53.017C20.3108 52.8035 20.6052 52.6768 20.9065 52.6138C21.2078 52.5507 21.5183 52.5481 21.8262 52.5549C22.1341 52.5617 22.4424 52.5782 22.7494 52.5532C23.0565 52.5281 23.3644 52.4592 23.6319 52.3064C23.886 52.1612 24.0939 51.9452 24.2662 51.7086C24.4385 51.4721 24.5778 51.2133 24.7205 50.9577C24.8632 50.7022 25.0108 50.4474 25.1978 50.2222C25.3847 49.9969 25.6138 49.8004 25.8841 49.6883L25.8837 49.688Z" fill="url(#paint24_linear_1_279)"/>
<g filter="url(#filter32_f_1_279)">
<path d="M26.3228 50.1684C26.5761 50.0664 26.8614 50.0552 27.1275 50.1155C27.3936 50.1757 27.641 50.3069 27.8565 50.4718C28.2878 50.8049 28.5875 51.2749 28.8754 51.7372C29.5664 52.8569 30.2418 53.9885 30.8799 55.143C31.3633 56.0121 31.8242 56.8998 32.4181 57.6982C32.8121 58.2277 33.2617 58.713 33.664 59.2364C34.0662 59.7598 34.4246 60.3298 34.6027 60.9653C34.8318 61.7845 34.739 62.6885 34.3425 63.4427C34.0554 63.9866 33.6222 64.4395 33.0917 64.7505C32.5598 65.0596 31.9505 65.2098 31.3359 65.1835C30.3615 65.1386 29.4717 64.6519 28.5545 64.3219C26.7959 63.6838 24.89 63.5982 23.0862 63.1C22.4395 62.9246 21.8091 62.6905 21.1593 62.5267C20.8718 62.4541 20.5792 62.3949 20.3061 62.2795C20.033 62.1641 19.7757 61.9853 19.6276 61.7286C19.5174 61.5377 19.4734 61.3129 19.4802 61.0926C19.487 60.8722 19.5428 60.6574 19.6194 60.4496C19.7764 60.0376 20.0232 59.6663 20.1816 59.2529C20.4218 58.6308 20.4514 57.9468 20.4069 57.2815C20.3623 56.6163 20.2467 55.9569 20.2062 55.2913C20.1881 54.9937 20.1853 54.6926 20.2455 54.4008C20.3057 54.1091 20.4328 53.8264 20.645 53.6155C20.8747 53.3875 21.1915 53.2632 21.5113 53.2144C21.831 53.1657 22.1563 53.1869 22.4782 53.2157C22.8 53.2444 23.1231 53.2806 23.446 53.2613C23.7688 53.2419 24.0962 53.1633 24.3633 52.9815C24.6064 52.8171 24.789 52.577 24.9279 52.3205C25.0668 52.0639 25.166 51.7887 25.2718 51.5168C25.3777 51.2449 25.4924 50.9734 25.6586 50.7336C25.8248 50.4937 26.0478 50.2801 26.3211 50.1705" fill="#D99A03"/>
</g>
<g filter="url(#filter33_f_1_279)">
<path d="M26.0884 49.5357C26.3338 49.414 26.6227 49.3891 26.8918 49.4439C27.1609 49.4988 27.4102 49.6302 27.6222 49.8022C28.046 50.1441 28.3149 50.6355 28.5656 51.1158C29.1409 52.2192 29.6766 53.3466 30.365 54.3855C30.8646 55.1376 31.4407 55.8414 31.9458 56.5914C32.6309 57.6085 33.1879 58.7274 33.4177 59.9259C33.5723 60.732 33.5674 61.601 33.1789 62.3289C32.923 62.8068 32.5088 63.2006 32.0191 63.4442C31.5295 63.6878 30.9673 63.789 30.4195 63.7406C29.5572 63.6646 28.7739 63.2406 27.9623 62.9449C26.5219 62.4202 24.9653 62.2949 23.483 61.8988C22.8578 61.7318 22.2472 61.5168 21.6119 61.386C21.3323 61.3275 21.0472 61.2851 20.7804 61.1843C20.5136 61.0834 20.2607 60.9166 20.1242 60.6698C20.0285 60.4961 19.9959 60.2929 20.0104 60.0959C20.0248 59.899 20.0835 59.7071 20.1609 59.5247C20.3155 59.1599 20.5438 58.8256 20.6657 58.4485C20.842 57.8943 20.7696 57.2935 20.6371 56.7275C20.5047 56.1615 20.3139 55.6062 20.2553 55.0284C20.2291 54.7711 20.2297 54.5087 20.2883 54.2566C20.347 54.0045 20.4671 53.7623 20.6556 53.5814C20.8981 53.3486 21.2377 53.2327 21.5752 53.2002C21.9127 53.1678 22.2526 53.2122 22.5882 53.2601C22.9238 53.3079 23.2615 53.3626 23.6003 53.3455C23.9392 53.3284 24.2841 53.2413 24.5495 53.0337C24.812 52.8286 24.977 52.5232 25.0717 52.2071C25.1664 51.891 25.197 51.5606 25.2358 51.2334C25.2746 50.9063 25.3228 50.576 25.4499 50.2711C25.577 49.9661 25.7911 49.6851 26.0905 49.5366L26.0884 49.5357Z" fill="#F5BD0C"/>
</g>
<g filter="url(#filter34_f_1_279)">
<path d="M29.1613 52.2902C29.6149 53.1105 29.8916 54.052 30.3414 54.8793C30.7553 55.6403 31.2263 56.4239 31.6468 57.1258C31.8339 57.4382 32.2705 57.9186 32.7121 58.6639C33.1121 59.3393 33.5159 60.2822 33.742 60.5988C33.6121 60.228 33.3451 59.2329 33.0266 58.5235C32.7307 57.8603 32.3826 57.4822 32.169 57.1258C31.7485 56.4239 31.2958 55.7932 30.8636 55.1241C30.2674 54.2012 29.8129 53.1685 29.1613 52.2904V52.2902Z" fill="url(#paint25_linear_1_279)"/>
</g>
</g>
</g>
<defs>
<filter id="filter0_f_1_279" x="33.4621" y="27.7587" width="12.8786" height="8.32738" filterUnits="userSpaceOnUse" color-interpolation-filters="sRGB">
<feFlood flood-opacity="0" result="BackgroundImageFix"/>
<feBlend mode="normal" in="SourceGraphic" in2="BackgroundImageFix" result="shape"/>
<feGaussianBlur stdDeviation="0.436168" result="effect1_foregroundBlur_1_279"/>
</filter>
<filter id="filter1_f_1_279" x="33.8545" y="27.7621" width="11.422" height="5.60835" filterUnits="userSpaceOnUse" color-interpolation-filters="sRGB">
<feFlood flood-opacity="0" result="BackgroundImageFix"/>
<feBlend mode="normal" in="SourceGraphic" in2="BackgroundImageFix" result="shape"/>
<feGaussianBlur stdDeviation="0.191623" result="effect1_foregroundBlur_1_279"/>
</filter>
<filter id="filter2_f_1_279" x="33.6711" y="24.8401" width="11.6608" height="6.45971" filterUnits="userSpaceOnUse" color-interpolation-filters="sRGB">
<feFlood flood-opacity="0" result="BackgroundImageFix"/>
<feBlend mode="normal" in="SourceGraphic" in2="BackgroundImageFix" result="shape"/>
<feGaussianBlur stdDeviation="0.291564" result="effect1_foregroundBlur_1_279"/>
</filter>
<filter id="filter3_f_1_279" x="41.8845" y="15.6969" width="4.58517" height="4.43545" filterUnits="userSpaceOnUse" color-interpolation-filters="sRGB">
<feFlood flood-opacity="0" result="BackgroundImageFix"/>
<feBlend mode="normal" in="SourceGraphic" in2="BackgroundImageFix" result="shape"/>
<feGaussianBlur stdDeviation="0.429496" result="effect1_foregroundBlur_1_279"/>
</filter>
<filter id="filter4_f_1_279" x="42.2065" y="24.581" width="0.871696" height="0.710655" filterUnits="userSpaceOnUse" color-interpolation-filters="sRGB">
<feFlood flood-opacity="0" result="BackgroundImageFix"/>
<feBlend mode="normal" in="SourceGraphic" in2="BackgroundImageFix" result="shape"/>
<feGaussianBlur stdDeviation="0.0533428" result="effect1_foregroundBlur_1_279"/>
</filter>
<filter id="filter5_f_1_279" x="42.0959" y="23.7125" width="1.65921" height="1.64158" filterUnits="userSpaceOnUse" color-interpolation-filters="sRGB">
<feFlood flood-opacity="0" result="BackgroundImageFix"/>
<feBlend mode="normal" in="SourceGraphic" in2="BackgroundImageFix" result="shape"/>
<feGaussianBlur stdDeviation="0.111184" result="effect1_foregroundBlur_1_279"/>
</filter>
<filter id="filter6_f_1_279" x="42.6309" y="20.5748" width="2.79748" height="2.59118" filterUnits="userSpaceOnUse" color-interpolation-filters="sRGB">
<feFlood flood-opacity="0" result="BackgroundImageFix"/>
<feBlend mode="normal" in="SourceGraphic" in2="BackgroundImageFix" result="shape"/>
<feGaussianBlur stdDeviation="0.0317057" result="effect1_foregroundBlur_1_279"/>
</filter>
<filter id="filter7_f_1_279" x="35.445" y="20.9205" width="2.61239" height="2.31005" filterUnits="userSpaceOnUse" color-interpolation-filters="sRGB">
<feFlood flood-opacity="0" result="BackgroundImageFix"/>
<feBlend mode="normal" in="SourceGraphic" in2="BackgroundImageFix" result="shape"/>
<feGaussianBlur stdDeviation="0.0289208" result="effect1_foregroundBlur_1_279"/>
</filter>
<filter id="filter8_f_1_279" x="35.5848" y="23.88" width="1.35293" height="1.90548" filterUnits="userSpaceOnUse" color-interpolation-filters="sRGB">
<feFlood flood-opacity="0" result="BackgroundImageFix"/>
<feBlend mode="normal" in="SourceGraphic" in2="BackgroundImageFix" result="shape"/>
<feGaussianBlur stdDeviation="0.109899" result="effect1_foregroundBlur_1_279"/>
</filter>
<filter id="filter9_f_1_279" x="36.4307" y="29.5469" width="3.18699" height="2.47108" filterUnits="userSpaceOnUse" color-interpolation-filters="sRGB">
<feFlood flood-opacity="0" result="BackgroundImageFix"/>
<feBlend mode="normal" in="SourceGraphic" in2="BackgroundImageFix" result="shape"/>
<feGaussianBlur stdDeviation="0.192591" result="effect1_foregroundBlur_1_279"/>
</filter>
<filter id="filter10_f_1_279" x="34.3299" y="26.8061" width="9.85755" height="4.6395" filterUnits="userSpaceOnUse" color-interpolation-filters="sRGB">
<feFlood flood-opacity="0" result="BackgroundImageFix"/>
<feBlend mode="normal" in="SourceGraphic" in2="BackgroundImageFix" result="shape"/>
<feGaussianBlur stdDeviation="0.162385" result="effect1_foregroundBlur_1_279"/>
</filter>
<filter id="filter11_f_1_279" x="38.2971" y="26.9378" width="2.9304" height="3.44831" filterUnits="userSpaceOnUse" color-interpolation-filters="sRGB">
<feFlood flood-opacity="0" result="BackgroundImageFix"/>
<feBlend mode="normal" in="SourceGraphic" in2="BackgroundImageFix" result="shape"/>
<feGaussianBlur stdDeviation="0.18188" result="effect1_foregroundBlur_1_279"/>
</filter>
<filter id="filter12_f_1_279" x="39.3546" y="26.1254" width="1.08022" height="0.611716" filterUnits="userSpaceOnUse" color-interpolation-filters="sRGB">
<feFlood flood-opacity="0" result="BackgroundImageFix"/>
<feBlend mode="normal" in="SourceGraphic" in2="BackgroundImageFix" result="shape"/>
<feGaussianBlur stdDeviation="0.0235651" result="effect1_foregroundBlur_1_279"/>
</filter>
<filter id="filter13_f_1_279" x="37.0249" y="26.2149" width="0.490134" height="0.530753" filterUnits="userSpaceOnUse" color-interpolation-filters="sRGB">
<feFlood flood-opacity="0" result="BackgroundImageFix"/>
<feBlend mode="normal" in="SourceGraphic" in2="BackgroundImageFix" result="shape"/>
<feGaussianBlur stdDeviation="0.0235651" result="effect1_foregroundBlur_1_279"/>
</filter>
<filter id="filter14_f_1_279" x="43.6514" y="27.5446" width="1.29694" height="1.52302" filterUnits="userSpaceOnUse" color-interpolation-filters="sRGB">
<feFlood flood-opacity="0" result="BackgroundImageFix"/>
<feBlend mode="normal" in="SourceGraphic" in2="BackgroundImageFix" result="shape"/>
<feGaussianBlur stdDeviation="0.073168" result="effect1_foregroundBlur_1_279"/>
</filter>
<filter id="filter15_f_1_279" x="48.4846" y="37.7892" width="6.06179" height="15.2732" filterUnits="userSpaceOnUse" color-interpolation-filters="sRGB">
<feFlood flood-opacity="0" result="BackgroundImageFix"/>
<feBlend mode="normal" in="SourceGraphic" in2="BackgroundImageFix" result="shape"/>
<feGaussianBlur stdDeviation="0.292242" result="effect1_foregroundBlur_1_279"/>
</filter>
<filter id="filter16_f_1_279" x="30.0573" y="35.5291" width="6.80695" height="6.40698" filterUnits="userSpaceOnUse" color-interpolation-filters="sRGB">
<feFlood flood-opacity="0" result="BackgroundImageFix"/>
<feBlend mode="normal" in="SourceGraphic" in2="BackgroundImageFix" result="shape"/>
<feGaussianBlur stdDeviation="0.147995" result="effect1_foregroundBlur_1_279"/>
</filter>
<filter id="filter17_f_1_279" x="39.1936" y="34.8805" width="10.3366" height="7.46482" filterUnits="userSpaceOnUse" color-interpolation-filters="sRGB">
<feFlood flood-opacity="0" result="BackgroundImageFix"/>
<feBlend mode="normal" in="SourceGraphic" in2="BackgroundImageFix" result="shape"/>
<feGaussianBlur stdDeviation="0.243791" result="effect1_foregroundBlur_1_279"/>
</filter>
<filter id="filter18_f_1_279" x="35.6303" y="35.7767" width="4.44855" height="4.70948" filterUnits="userSpaceOnUse" color-interpolation-filters="sRGB">
<feFlood flood-opacity="0" result="BackgroundImageFix"/>
<feBlend mode="normal" in="SourceGraphic" in2="BackgroundImageFix" result="shape"/>
<feGaussianBlur stdDeviation="0.168169" result="effect1_foregroundBlur_1_279"/>
</filter>
<filter id="filter19_f_1_279" x="35.54" y="41.4202" width="1.97835" height="11.6881" filterUnits="userSpaceOnUse" color-interpolation-filters="sRGB">
<feFlood flood-opacity="0" result="BackgroundImageFix"/>
<feBlend mode="normal" in="SourceGraphic" in2="BackgroundImageFix" result="shape"/>
<feGaussianBlur stdDeviation="0.309774" result="effect1_foregroundBlur_1_279"/>
</filter>
<filter id="filter20_f_1_279" x="46.103" y="29.3644" width="2.89158" height="3.13225" filterUnits="userSpaceOnUse" color-interpolation-filters="sRGB">
<feFlood flood-opacity="0" result="BackgroundImageFix"/>
<feBlend mode="normal" in="SourceGraphic" in2="BackgroundImageFix" result="shape"/>
<feGaussianBlur stdDeviation="0.193019" result="effect1_foregroundBlur_1_279"/>
</filter>
<filter id="filter21_f_1_279" x="45.3134" y="51.4469" width="14.3486" height="15.4474" filterUnits="userSpaceOnUse" color-interpolation-filters="sRGB">
<feFlood flood-opacity="0" result="BackgroundImageFix"/>
<feBlend mode="normal" in="SourceGraphic" in2="BackgroundImageFix" result="shape"/>
<feGaussianBlur stdDeviation="0.479548" result="effect1_foregroundBlur_1_279"/>
</filter>
<filter id="filter22_f_1_279" x="45.8535" y="48.7324" width="17.8614" height="18.0551" filterUnits="userSpaceOnUse" color-interpolation-filters="sRGB">
<feFlood flood-opacity="0" result="BackgroundImageFix"/>
<feBlend mode="normal" in="SourceGraphic" in2="BackgroundImageFix" result="shape"/>
<feGaussianBlur stdDeviation="1.0238" result="effect1_foregroundBlur_1_279"/>
</filter>
<filter id="filter23_f_1_279" x="46.8514" y="48.1173" width="16.3643" height="16.2982" filterUnits="userSpaceOnUse" color-interpolation-filters="sRGB">
<feFlood flood-opacity="0" result="BackgroundImageFix"/>
<feBlend mode="normal" in="SourceGraphic" in2="BackgroundImageFix" result="shape"/>
<feGaussianBlur stdDeviation="0.806721" result="effect1_foregroundBlur_1_279"/>
</filter>
<filter id="filter24_f_1_279" x="48.1054" y="50.7534" width="9.98883" height="1.95999" filterUnits="userSpaceOnUse" color-interpolation-filters="sRGB">
<feFlood flood-opacity="0" result="BackgroundImageFix"/>
<feBlend mode="normal" in="SourceGraphic" in2="BackgroundImageFix" result="shape"/>
<feGaussianBlur stdDeviation="0.102615" result="effect1_foregroundBlur_1_279"/>
</filter>
<filter id="filter25_f_1_279" x="49.6096" y="39.8635" width="3.71833" height="3.75586" filterUnits="userSpaceOnUse" color-interpolation-filters="sRGB">
<feFlood flood-opacity="0" result="BackgroundImageFix"/>
<feBlend mode="normal" in="SourceGraphic" in2="BackgroundImageFix" result="shape"/>
<feGaussianBlur stdDeviation="0.491044" result="effect1_foregroundBlur_1_279"/>
</filter>
<filter id="filter26_f_1_279" x="32.0188" y="33.5136" width="1.27605" height="1.29872" filterUnits="userSpaceOnUse" color-interpolation-filters="sRGB">
<feFlood flood-opacity="0" result="BackgroundImageFix"/>
<feBlend mode="normal" in="SourceGraphic" in2="BackgroundImageFix" result="shape"/>
<feGaussianBlur stdDeviation="0.137066" result="effect1_foregroundBlur_1_279"/>
</filter>
<filter id="filter27_f_1_279" x="49.1024" y="50.2295" width="8.36363" height="7.51198" filterUnits="userSpaceOnUse" color-interpolation-filters="sRGB">
<feFlood flood-opacity="0" result="BackgroundImageFix"/>
<feBlend mode="normal" in="SourceGraphic" in2="BackgroundImageFix" result="shape"/>
<feGaussianBlur stdDeviation="0.609264" result="effect1_foregroundBlur_1_279"/>
</filter>
<filter id="filter28_f_1_279" x="49.8484" y="50.9918" width="6.87156" height="4.61377" filterUnits="userSpaceOnUse" color-interpolation-filters="sRGB">
<feFlood flood-opacity="0" result="BackgroundImageFix"/>
<feBlend mode="normal" in="SourceGraphic" in2="BackgroundImageFix" result="shape"/>
<feGaussianBlur stdDeviation="0.236245" result="effect1_foregroundBlur_1_279"/>
</filter>
<filter id="filter29_f_1_279" x="50.3162" y="48.4496" width="6.9575" height="3.72221" filterUnits="userSpaceOnUse" color-interpolation-filters="sRGB">
<feFlood flood-opacity="0" result="BackgroundImageFix"/>
<feBlend mode="normal" in="SourceGraphic" in2="BackgroundImageFix" result="shape"/>
<feGaussianBlur stdDeviation="0.219584" result="effect1_foregroundBlur_1_279"/>
</filter>
<filter id="filter30_f_1_279" x="50.3162" y="48.4496" width="6.9575" height="3.72221" filterUnits="userSpaceOnUse" color-interpolation-filters="sRGB">
<feFlood flood-opacity="0" result="BackgroundImageFix"/>
<feBlend mode="normal" in="SourceGraphic" in2="BackgroundImageFix" result="shape"/>
<feGaussianBlur stdDeviation="0.219584" result="effect1_foregroundBlur_1_279"/>
</filter>
<filter id="filter31_f_1_279" x="26.2202" y="38.9581" width="5.65105" height="12.0538" filterUnits="userSpaceOnUse" color-interpolation-filters="sRGB">
<feFlood flood-opacity="0" result="BackgroundImageFix"/>
<feBlend mode="normal" in="SourceGraphic" in2="BackgroundImageFix" result="shape"/>
<feGaussianBlur stdDeviation="0.242506" result="effect1_foregroundBlur_1_279"/>
</filter>
<filter id="filter32_f_1_279" x="17.7982" y="48.3974" width="18.6089" height="18.4703" filterUnits="userSpaceOnUse" color-interpolation-filters="sRGB">
<feFlood flood-opacity="0" result="BackgroundImageFix"/>
<feBlend mode="normal" in="SourceGraphic" in2="BackgroundImageFix" result="shape"/>
<feGaussianBlur stdDeviation="0.840631" result="effect1_foregroundBlur_1_279"/>
</filter>
<filter id="filter33_f_1_279" x="18.9723" y="48.3816" width="15.575" height="16.4056" filterUnits="userSpaceOnUse" color-interpolation-filters="sRGB">
<feFlood flood-opacity="0" result="BackgroundImageFix"/>
<feBlend mode="normal" in="SourceGraphic" in2="BackgroundImageFix" result="shape"/>
<feGaussianBlur stdDeviation="0.517366" result="effect1_foregroundBlur_1_279"/>
</filter>
<filter id="filter34_f_1_279" x="29.0027" y="52.1317" width="4.89775" height="8.62565" filterUnits="userSpaceOnUse" color-interpolation-filters="sRGB">
<feFlood flood-opacity="0" result="BackgroundImageFix"/>
<feBlend mode="normal" in="SourceGraphic" in2="BackgroundImageFix" result="shape"/>
<feGaussianBlur stdDeviation="0.0792644" result="effect1_foregroundBlur_1_279"/>
</filter>
<radialGradient id="paint0_radial_1_279" cx="0" cy="0" r="1" gradientUnits="userSpaceOnUse" gradientTransform="translate(686.353 994.639) rotate(-2.41003) scale(43.3201 106.032)">
<stop stop-color="#FEFEFC"/>
<stop offset="0.757" stop-color="#FEFEFC"/>
<stop offset="1" stop-color="#D4D4D4"/>
</radialGradient>
<radialGradient id="paint1_radial_1_279" cx="0" cy="0" r="1" gradientUnits="userSpaceOnUse" gradientTransform="translate(1220.89 1041.05) rotate(-1.81001) scale(77.5581 112.079)">
<stop stop-color="#FEFEFC"/>
<stop offset="0.757" stop-color="#FEFEFC"/>
<stop offset="1" stop-color="#D4D4D4"/>
</radialGradient>
<radialGradient id="paint2_radial_1_279" cx="0" cy="0" r="1" gradientUnits="userSpaceOnUse" gradientTransform="translate(1301.51 -324.805) rotate(-36.0085) scale(71.0561 47.1374)">
<stop stop-color="#020204"/>
<stop offset="0.734" stop-color="#020204"/>
<stop offset="1" stop-color="#5C5C5C"/>
</radialGradient>
<linearGradient id="paint3_linear_1_279" x1="410.313" y1="182.838" x2="418.332" y2="192.474" gradientUnits="userSpaceOnUse">
<stop stop-color="#949494" stop-opacity="0.392"/>
<stop offset="0.5" stop-color="#949494"/>
<stop offset="1" stop-color="#949494" stop-opacity="0.392"/>
</linearGradient>
<linearGradient id="paint4_linear_1_279" x1="777.691" y1="741.857" x2="922.668" y2="860.944" gradientUnits="userSpaceOnUse">
<stop stop-color="#747474"/>
<stop offset="0.125" stop-color="#8C8C8C"/>
<stop offset="0.25" stop-color="#A4A4A4"/>
<stop offset="0.5" stop-color="#D4D4D4"/>
<stop offset="0.619" stop-color="#D4D4D4"/>
<stop offset="1" stop-color="#7C7C7C"/>
</linearGradient>
<linearGradient id="paint5_linear_1_279" x1="84.1154" y1="280.779" x2="119.234" y2="316.709" gradientUnits="userSpaceOnUse">
<stop stop-color="#646464" stop-opacity="0"/>
<stop offset="0.306" stop-color="#646464" stop-opacity="0.583"/>
<stop offset="0.47" stop-color="#646464"/>
<stop offset="0.728" stop-color="#646464" stop-opacity="0.257"/>
<stop offset="1" stop-color="#646464" stop-opacity="0"/>
</linearGradient>
<linearGradient id="paint6_linear_1_279" x1="-28.8452" y1="255.044" x2="0.457734" y2="287.152" gradientUnits="userSpaceOnUse">
<stop stop-color="#646464" stop-opacity="0"/>
<stop offset="0.306" stop-color="#646464" stop-opacity="0.583"/>
<stop offset="0.47" stop-color="#646464"/>
<stop offset="0.728" stop-color="#646464" stop-opacity="0.257"/>
<stop offset="1" stop-color="#646464" stop-opacity="0"/>
</linearGradient>
<linearGradient id="paint7_linear_1_279" x1="185.644" y1="217.69" x2="195.621" y2="228.806" gradientUnits="userSpaceOnUse">
<stop stop-color="#757574" stop-opacity="0"/>
<stop offset="0.263" stop-color="#757574"/>
<stop offset="0.5" stop-color="#757574"/>
<stop offset="1" stop-color="#757574" stop-opacity="0"/>
</linearGradient>
<radialGradient id="paint8_radial_1_279" cx="0" cy="0" r="1" gradientUnits="userSpaceOnUse" gradientTransform="translate(3203.18 -500.826) rotate(-22.428) scale(334.786 116.311)">
<stop stop-color="#D2940A"/>
<stop offset="0.751" stop-color="#D89C08"/>
<stop offset="0.866" stop-color="#B67E07"/>
<stop offset="1" stop-color="#946106"/>
</radialGradient>
<linearGradient id="paint9_linear_1_279" x1="526.136" y1="863.503" x2="1118.93" y2="854.302" gradientUnits="userSpaceOnUse">
<stop stop-color="#AD780A"/>
<stop offset="0.12" stop-color="#D89E08"/>
<stop offset="0.255" stop-color="#EDB80B"/>
<stop offset="0.392" stop-color="#EBC80D"/>
<stop offset="0.527" stop-color="#F5D838"/>
<stop offset="0.769" stop-color="#F6D811"/>
<stop offset="1" stop-color="#F5CD31"/>
</linearGradient>
<radialGradient id="paint10_radial_1_279" cx="0" cy="0" r="1" gradientUnits="userSpaceOnUse" gradientTransform="translate(115.981 70.6783) scale(3.18457 0.974946)">
<stop stop-color="#3A2903"/>
<stop offset="0.555" stop-color="#735208"/>
<stop offset="1" stop-color="#AC8C04"/>
</radialGradient>
<radialGradient id="paint11_radial_1_279" cx="0" cy="0" r="1" gradientUnits="userSpaceOnUse" gradientTransform="translate(62.0607 95.4355) scale(0.607645 0.720332)">
<stop stop-color="#3A2903"/>
<stop offset="0.555" stop-color="#735208"/>
<stop offset="1" stop-color="#AC8C04"/>
</radialGradient>
<linearGradient id="paint12_linear_1_279" x1="263.962" y1="220.875" x2="264.593" y2="224.148" gradientUnits="userSpaceOnUse">
<stop stop-color="#F5CE2D"/>
<stop offset="1" stop-color="#D79B08"/>
</linearGradient>
<radialGradient id="paint13_radial_1_279" cx="0" cy="0" r="1" gradientUnits="userSpaceOnUse" gradientTransform="translate(706.822 48.9477) rotate(-9.34942) scale(88.3477 37.8953)">
<stop stop-color="#C8C8C8"/>
<stop offset="1" stop-color="#797978"/>
</radialGradient>
<radialGradient id="paint14_radial_1_279" cx="0" cy="0" r="1" gradientUnits="userSpaceOnUse" gradientTransform="translate(-1371.16 1015.22) rotate(180) scale(118.9 121.587)">
<stop/>
<stop offset="1" stop-opacity="0.25"/>
</radialGradient>
<radialGradient id="paint15_radial_1_279" cx="0" cy="0" r="1" gradientUnits="userSpaceOnUse" gradientTransform="translate(2911.51 1205.67) scale(256.419 135.693)">
<stop/>
<stop offset="1" stop-opacity="0.25"/>
</radialGradient>
<radialGradient id="paint16_radial_1_279" cx="0" cy="0" r="1" gradientUnits="userSpaceOnUse" gradientTransform="translate(1026.12 1006.05) scale(40.9495 46.8102)">
<stop/>
<stop offset="1" stop-opacity="0.25"/>
</radialGradient>
<linearGradient id="paint17_linear_1_279" x1="397.878" y1="4434.54" x2="452.126" y2="4806.54" gradientUnits="userSpaceOnUse">
<stop/>
<stop offset="1" stop-opacity="0"/>
</linearGradient>
<linearGradient id="paint18_linear_1_279" x1="6701.32" y1="5818.99" x2="7457.97" y2="4629.52" gradientUnits="userSpaceOnUse">
<stop stop-color="#3E2A06"/>
<stop offset="1" stop-color="#AD780A"/>
</linearGradient>
<linearGradient id="paint19_linear_1_279" x1="480.908" y1="499.689" x2="480.549" y2="519.648" gradientUnits="userSpaceOnUse">
<stop stop-color="#F3CD0C"/>
<stop offset="1" stop-color="#F3CD0C" stop-opacity="0"/>
</linearGradient>
<radialGradient id="paint20_radial_1_279" cx="0" cy="0" r="1" gradientUnits="userSpaceOnUse" gradientTransform="translate(2230.13 2900.17) rotate(15) scale(135.218 121.541)">
<stop stop-color="#110800"/>
<stop offset="0.591" stop-color="#A65A00" stop-opacity="0.8"/>
<stop offset="1" stop-color="#FF921E" stop-opacity="0"/>
</radialGradient>
<radialGradient id="paint21_radial_1_279" cx="0" cy="0" r="1" gradientUnits="userSpaceOnUse" gradientTransform="translate(2230.13 2110.87) rotate(10.9628) scale(133.038 89.3047)">
<stop stop-color="#110800"/>
<stop offset="0.591" stop-color="#A65A00" stop-opacity="0.8"/>
<stop offset="1" stop-color="#FF921E" stop-opacity="0"/>
</radialGradient>
<radialGradient id="paint22_radial_1_279" cx="0" cy="0" r="1" gradientUnits="userSpaceOnUse" gradientTransform="translate(839.84 531.264) rotate(23.5217) scale(49.055 10.6056)">
<stop stop-color="#7C7C7C"/>
<stop offset="1" stop-color="#7C7C7C" stop-opacity="0.33"/>
</radialGradient>
<linearGradient id="paint23_linear_1_279" x1="2230.14" y1="843.357" x2="2248.27" y2="841.742" gradientUnits="userSpaceOnUse">
<stop stop-color="#7C7C7C"/>
<stop offset="1" stop-color="#7C7C7C" stop-opacity="0.33"/>
</linearGradient>
<linearGradient id="paint24_linear_1_279" x1="2061.4" y1="4997.21" x2="2840.45" y2="6318.65" gradientUnits="userSpaceOnUse">
<stop stop-color="#B98309"/>
<stop offset="1" stop-color="#382605"/>
</linearGradient>
<linearGradient id="paint25_linear_1_279" x1="812.652" y1="2729.51" x2="963.213" y2="2885.77" gradientUnits="userSpaceOnUse">
<stop stop-color="#EBC40C"/>
<stop offset="1" stop-color="#EBC40C" stop-opacity="0"/>
</linearGradient>
<clipPath id="clip0_1_279">
<rect width="52" height="52" fill="white" transform="translate(14 14)"/>
</clipPath>
</defs>
</svg>
