<svg width="80" height="80" viewBox="0 0 80 80" fill="none" xmlns="http://www.w3.org/2000/svg">
<rect width="80" height="80" rx="40" fill="#A3A3A3"/>
<path d="M36.6301 12.0627C34.969 12.2272 31.2507 12.9074 31.8448 12.9294C31.9328 12.9294 32.4608 12.8636 32.9999 12.7648C34.463 12.5234 37.3452 12.4466 39.3144 12.6112C48.1811 13.3134 55.5186 18.1956 59.1929 25.8315C59.886 27.2688 60.458 28.9364 60.7771 30.4394C61.0741 31.8657 61.1841 34.6305 61.0081 36.1884C60.568 39.8857 58.8519 43.934 56.5747 46.5891C56.2557 46.9731 55.7717 47.5326 55.4966 47.8508C55.0016 48.4322 55.0016 48.4322 55.8597 47.6643C59.2919 44.6362 61.6461 40.7414 62.6032 36.5285C62.8782 35.2887 62.9442 31.1635 62.7132 29.7921C62.2072 26.8189 60.9531 23.8128 59.1929 21.3882C58.3899 20.2801 56.4207 18.2175 55.2876 17.3069C51.9214 14.608 47.895 12.8855 43.3407 12.2163C42.0096 12.0188 37.9942 11.931 36.6301 12.0627Z" fill="white"/>
<path d="M35.1996 15.1016C32.2294 15.354 28.5991 16.473 25.5739 18.0638C23.0437 19.3914 21.3825 20.6421 19.2484 22.8253C15.9481 26.2045 13.6489 30.0773 12.7029 33.8295C12.5378 34.4987 12.3728 35.2887 12.3288 35.5958C12.2738 36.0566 12.3178 35.9689 12.6259 35.0473C13.6489 31.9973 15.9591 28.4755 18.7643 25.6779C20.6675 23.7798 22.8347 22.178 25.0018 21.0809C31.0523 18.009 38.2469 17.8883 44.0443 20.7737C48.8627 23.1655 52.515 27.543 53.8131 32.4691C54.0331 33.2919 54.0991 33.8734 54.1431 35.2887C54.2091 37.3403 54.0881 38.4155 53.6041 39.9295C52.218 44.2851 48.6317 47.7629 44.2974 48.9369C43.0543 49.277 40.4361 49.3538 39.259 49.0904C35.7717 48.3225 33.5825 45.5467 34.0226 42.4529C34.2866 40.6316 35.1336 39.0518 36.6848 37.5048C37.4988 36.693 37.8068 36.4735 38.7859 35.9908C40.172 35.3106 40.9641 35.1021 42.1412 35.1021C42.8673 35.1021 43.0873 35.146 43.3183 35.3216C43.9673 35.8372 43.9893 37.0331 43.3623 38.3277C42.5372 40.0282 40.4801 41.3996 39.754 40.7414C39.567 40.5768 39.545 40.5878 39.479 40.862C39.38 41.257 39.578 41.3777 40.238 41.3119C41.1401 41.2131 41.9212 40.7743 42.8342 39.8417C44.6164 38.0315 45.1224 35.8592 44.0333 34.7072C43.5713 34.2135 42.9663 34.0709 41.5581 34.1367C40.6011 34.1806 40.161 34.2574 39.281 34.5536C35.9037 35.6946 33.0875 38.6349 32.2734 41.8933C31.9544 43.177 32.0094 44.8994 32.4274 46.0514C33.2195 48.2896 35.4637 50.3521 38.0709 51.2189C40.6891 52.0966 43.9893 52.0746 46.7946 51.153C48.9397 50.4619 50.7989 49.3318 52.515 47.6642C55.2982 44.9653 57.1684 41.5642 57.9935 37.6255C58.3015 36.1773 58.2685 32.7214 57.9384 31.0647C57.2454 27.6307 55.7383 24.5917 53.4391 22.0135C50.1058 18.2613 45.0344 15.705 39.853 15.1455C38.8629 15.0358 36.2337 15.0138 35.1996 15.1016Z" fill="#FF6600"/>
<path d="M38.9949 26.2264C41.4481 26.4349 43.4832 26.9944 45.0784 27.905C46.9485 28.9692 48.2466 30.2967 49.0607 31.9753C49.7097 33.3358 49.8307 33.9063 49.8307 35.6507C49.8197 36.9014 49.7757 37.2964 49.5337 38.1741C48.8517 40.6207 47.5536 42.6613 45.7384 44.0876C44.7043 44.9104 44.6823 44.9543 45.4304 44.5374C47.8726 43.2099 49.7427 41.0376 50.6448 38.4813C51.0298 37.3732 51.0408 37.3183 51.0408 35.6507C51.0408 34.1696 51.0078 33.8404 50.7878 33.1273C49.7207 29.7482 47.1795 27.4662 43.3072 26.4129C42.5922 26.2155 42.0971 26.1825 40.15 26.1496C38.1148 26.1277 37.9828 26.1387 38.9949 26.2264Z" fill="white"/>
<path d="M36.2447 28.2013C33.8355 28.4755 31.3823 29.3642 29.3911 30.6917C27.818 31.734 25.9148 33.7637 24.6387 35.7604C23.9347 36.8466 22.9116 38.9969 22.5596 40.116C21.9325 42.1128 21.7895 43.1111 21.7895 45.47C21.7785 47.9495 21.9655 49.1673 22.6696 51.3176C25.2988 59.3705 33.4174 64.9658 42.4602 64.9658C46.6735 64.9658 49.9627 64.143 54.1651 62.0475C56.6183 60.8077 58.4774 59.4692 60.5126 57.4396C62.7678 55.1795 64.3519 52.9852 65.727 50.1876C66.7061 48.2018 67.1571 46.962 67.4761 45.2615C67.7622 43.8243 67.7622 43.5939 67.4871 44.5484C67.0361 46.1282 65.859 48.4432 64.5389 50.3522C61.5797 54.6529 57.6084 57.9442 53.241 59.7216C46.1234 62.607 37.9168 61.5099 32.3394 56.9239C29.0611 54.225 26.5969 50.2095 25.9478 46.4574C25.6838 44.9543 25.7828 42.0579 26.1569 40.8072C26.7509 38.7556 27.433 37.3622 28.5551 35.8811C30.5022 33.3029 33.3514 31.5146 36.5747 30.8673C37.6968 30.6478 40.106 30.7027 41.129 30.988C42.6912 31.4158 44.1543 32.4252 45.0454 33.6978C45.8374 34.8279 45.9584 35.2667 45.9034 37.0002C45.8594 38.3496 45.8374 38.5032 45.4964 39.3151C45.0014 40.4561 44.2423 41.5752 43.3732 42.42C42.4712 43.3086 42.0971 43.5829 41.052 44.1095C39.919 44.691 39.1599 44.8665 37.8838 44.8665C36.8387 44.8665 36.8057 44.8556 36.5417 44.5374C36.0246 43.923 36.0576 42.7052 36.6187 41.5861C37.4108 40.0392 39.6549 38.5471 40.205 39.2164C40.381 39.4248 40.535 39.3261 40.535 38.9969C40.535 38.6568 40.106 38.5581 39.3689 38.7556C37.8068 39.1615 36.2337 40.7304 35.5846 42.5297C35.1556 43.7146 35.4196 45.0531 36.1787 45.5138C37.0147 46.0295 38.8189 46.0295 40.502 45.5138C42.2951 44.9653 44.4293 43.5171 45.7384 41.9592C46.5635 40.9827 47.5206 39.0737 47.7516 37.9547C48.0046 36.7698 47.9166 34.8389 47.5756 33.9612C46.3435 30.7685 43.2192 28.6072 39.2149 28.1903C38.0158 28.0696 37.4108 28.0696 36.2447 28.2013Z" fill="#FF6600"/>
<path d="M23.2304 33.27C21.4373 35.0693 20.6562 36.0786 19.5672 37.9766C18.3461 40.116 17.598 42.2225 17.257 44.5703C17.004 46.2599 17.092 49.3977 17.433 50.9556C18.8081 57.3408 23.0324 62.5522 29.2589 65.5473C31.7121 66.7322 33.8463 67.3466 37.0475 67.8074C39.6327 68.1804 44.2311 67.9939 46.7503 67.4014C47.2674 67.2808 47.3114 67.2588 46.9263 67.3137C40.1718 68.1036 33.9123 66.798 28.9839 63.5835C27.4988 62.607 26.4647 61.7513 25.0676 60.325C22.0644 57.2421 20.0292 53.5448 19.1931 49.6281C18.8961 48.2457 18.7751 45.2615 18.9621 43.7036C19.3031 40.8291 20.4692 37.6585 22.1304 35.1022C22.7904 34.0928 23.3955 33.3358 24.4075 32.2716C24.7596 31.8986 25.0236 31.5914 24.9796 31.5914C24.9356 31.5914 24.1435 32.3484 23.2304 33.27Z" fill="#FF6600"/>
<path d="M33.6375 36.0567C29.6662 38.7117 27.939 43.3635 29.4351 47.4338C30.5572 50.4948 32.9994 52.5574 36.6847 53.5558C37.3668 53.7423 37.9058 53.7862 39.765 53.8081C41.0081 53.8191 41.7011 53.8191 41.3051 53.7971C37.6528 53.5887 34.8916 52.5464 32.8014 50.5826C30.7992 48.6955 29.9852 46.6878 30.1172 43.9889C30.2602 41.1254 31.4263 38.5691 33.5825 36.4407C34.0885 35.947 34.4735 35.541 34.4515 35.541C34.4405 35.541 34.0665 35.7714 33.6375 36.0567Z" fill="#FF6600"/>
<path d="M39.6996 39.8753C39.6557 39.9738 39.6776 40.1053 39.7435 40.171C39.9193 40.3462 40.2597 40.2257 40.2597 39.9848C40.2597 39.7 39.7985 39.6124 39.6996 39.8753Z" fill="#FF6600"/>
</svg>
