<svg width="80" height="80" viewBox="0 0 80 80" fill="none" xmlns="http://www.w3.org/2000/svg">
<rect width="80" height="80" rx="40" fill="#A3A3A3"/>
<path fill-rule="evenodd" clip-rule="evenodd" d="M42.009 53.3043C35.3566 53.5633 28.1866 52.3109 22.1398 49.287L23.3922 47.3002C29.2665 50.0646 36.0049 51.0152 42.009 50.7557C42.009 50.9715 42.267 46.6952 42.6558 44.3628H33.6288C34.4492 34.9466 37.3433 26.5669 41.6629 19.4402H14.667V60.5608H43.0446C42.3968 58.0982 42.009 53.2178 42.009 53.3043Z" fill="#D0E9FB"/>
<path fill-rule="evenodd" clip-rule="evenodd" d="M44.7296 50.5827C49.6538 50.1074 53.9729 48.8117 56.608 47.1272L58.1632 49.114C54.5342 51.231 49.8263 52.6127 44.7296 53.1313C44.8594 55.6799 45.2482 58.0982 45.896 60.5608H65.3327V19.4402H44.6431C40.2375 26.1786 37.7322 33.6941 36.7821 41.6417H46.0691C45.291 44.6651 44.8161 47.6458 44.7296 50.5827ZM26.9337 25.66H29.5688V31.7506H26.9337V25.66Z" fill="#00ACEC"/>
<path fill-rule="evenodd" clip-rule="evenodd" d="M48.876 25.66H51.5116V31.7506H48.876V25.66Z" fill="black"/>
<path fill-rule="evenodd" clip-rule="evenodd" d="M44.7294 50.5827C49.6536 50.1074 53.9727 48.8117 56.6078 47.1272L58.163 49.114C54.534 51.231 49.8261 52.6127 44.7294 53.1313C44.9452 57.7094 46.0689 62.2448 48.3142 66.6076L46.0688 67.8163C41.9655 61.3379 41.2312 52.6127 42.6561 44.3629H33.6287C34.7518 31.5344 39.6755 20.6494 46.846 12.1837L48.789 13.8682C41.7925 21.9888 37.9482 31.4483 36.7818 41.6417H46.0688C45.2908 44.6651 44.8159 47.6458 44.7294 50.5827Z" fill="black"/>
<path fill-rule="evenodd" clip-rule="evenodd" d="M42.009 50.7557V53.3043C35.3566 53.5633 28.1866 52.3109 22.1398 49.287L23.3922 47.3002C29.266 50.0646 36.0044 51.0147 42.009 50.7557Z" fill="#00ACEC"/>
</svg>
